G04*
G04 #@! TF.GenerationSoftware,Altium Limited,Altium Designer,19.0.10 (269)*
G04*
G04 Layer_Color=8421504*
%FSLAX23Y23*%
%MOIN*%
G70*
G01*
G75*
%ADD16C,0.008*%
%ADD18R,0.031X0.031*%
%ADD19R,0.055X0.041*%
%ADD20R,0.031X0.035*%
%ADD21R,0.091X0.091*%
%ADD22R,0.043X0.039*%
%ADD23R,0.150X0.110*%
%ADD24R,0.118X0.063*%
%ADD25R,0.244X0.228*%
%ADD26R,0.043X0.043*%
%ADD27R,0.026X0.022*%
%ADD28R,0.028X0.024*%
%ADD29R,0.043X0.043*%
%ADD30R,0.028X0.028*%
%ADD31R,0.028X0.028*%
%ADD32R,0.012X0.012*%
%ADD33R,0.028X0.012*%
%ADD34R,0.012X0.012*%
%ADD35R,0.012X0.028*%
%ADD36R,0.022X0.057*%
%ADD37R,0.022X0.057*%
G36*
X625Y478D02*
X617Y470D01*
Y482D01*
X625D01*
Y478D01*
D02*
G37*
G36*
X637Y462D02*
X625D01*
X633Y470D01*
X637D01*
Y462D01*
D02*
G37*
G36*
Y561D02*
X633D01*
X625Y568D01*
X637D01*
Y561D01*
D02*
G37*
G36*
X625Y553D02*
Y549D01*
X617D01*
Y561D01*
X625Y553D01*
D02*
G37*
G36*
X723Y470D02*
X715Y478D01*
Y482D01*
X723D01*
Y470D01*
D02*
G37*
G36*
X715Y462D02*
X703D01*
Y470D01*
X707D01*
X715Y462D01*
D02*
G37*
G36*
X707Y561D02*
X703D01*
Y568D01*
X715D01*
X707Y561D01*
D02*
G37*
G36*
X723Y549D02*
X715D01*
Y553D01*
X723Y561D01*
Y549D01*
D02*
G37*
D16*
X2440Y2035D02*
X2463D01*
X2452D01*
Y2000D01*
X2481D02*
X2492D01*
X2498Y2006D01*
Y2017D01*
X2492Y2023D01*
X2481D01*
X2475Y2017D01*
Y2006D01*
X2481Y2000D01*
X2510Y1988D02*
Y2023D01*
X2527D01*
X2533Y2017D01*
Y2006D01*
X2527Y2000D01*
X2510D01*
X2580D02*
Y2035D01*
X2597D01*
X2603Y2029D01*
Y2017D01*
X2597Y2012D01*
X2580D01*
X2621Y2023D02*
X2632D01*
X2638Y2017D01*
Y2000D01*
X2621D01*
X2615Y2006D01*
X2621Y2012D01*
X2638D01*
X2650Y2000D02*
X2667D01*
X2673Y2006D01*
X2667Y2012D01*
X2656D01*
X2650Y2017D01*
X2656Y2023D01*
X2673D01*
X2691Y2029D02*
Y2023D01*
X2685D01*
X2697D01*
X2691D01*
Y2006D01*
X2697Y2000D01*
X2732D02*
X2720D01*
X2714Y2006D01*
Y2017D01*
X2720Y2023D01*
X2732D01*
X2737Y2017D01*
Y2012D01*
X2714D01*
X2448Y2310D02*
X2425D01*
X2448Y2333D01*
Y2339D01*
X2442Y2345D01*
X2431D01*
X2425Y2339D01*
X2518Y2345D02*
X2507D01*
X2512D01*
Y2316D01*
X2507Y2310D01*
X2501D01*
X2495Y2316D01*
X2530Y2333D02*
Y2316D01*
X2536Y2310D01*
X2553D01*
Y2333D01*
X2565Y2310D02*
X2577D01*
X2571D01*
Y2345D01*
X2565D01*
X2594Y2333D02*
Y2316D01*
X2600Y2310D01*
X2617D01*
Y2304D01*
X2612Y2298D01*
X2606D01*
X2617Y2310D02*
Y2333D01*
X2687Y2310D02*
X2664D01*
X2687Y2333D01*
Y2339D01*
X2682Y2345D01*
X2670D01*
X2664Y2339D01*
X2699D02*
X2705Y2345D01*
X2717D01*
X2722Y2339D01*
Y2316D01*
X2717Y2310D01*
X2705D01*
X2699Y2316D01*
Y2339D01*
X2734Y2310D02*
X2746D01*
X2740D01*
Y2345D01*
X2734Y2339D01*
X2763Y2316D02*
X2769Y2310D01*
X2781D01*
X2787Y2316D01*
Y2339D01*
X2781Y2345D01*
X2769D01*
X2763Y2339D01*
Y2333D01*
X2769Y2327D01*
X2787D01*
X2425Y2420D02*
Y2455D01*
X2442D01*
X2448Y2449D01*
Y2437D01*
X2442Y2432D01*
X2425D01*
X2483Y2449D02*
X2477Y2455D01*
X2466D01*
X2460Y2449D01*
Y2426D01*
X2466Y2420D01*
X2477D01*
X2483Y2426D01*
X2495Y2455D02*
Y2420D01*
X2512D01*
X2518Y2426D01*
Y2432D01*
X2512Y2437D01*
X2495D01*
X2512D01*
X2518Y2443D01*
Y2449D01*
X2512Y2455D01*
X2495D01*
X2571Y2420D02*
Y2455D01*
X2582D02*
Y2420D01*
X2565Y2443D02*
X2582D01*
X2588D01*
X2565Y2432D02*
X2588D01*
X2600Y2449D02*
X2606Y2455D01*
X2617D01*
X2623Y2449D01*
Y2426D01*
X2617Y2420D01*
X2606D01*
X2600Y2426D01*
Y2449D01*
X2635D02*
X2641Y2455D01*
X2652D01*
X2658Y2449D01*
Y2426D01*
X2652Y2420D01*
X2641D01*
X2635Y2426D01*
Y2449D01*
X2693Y2420D02*
X2670D01*
X2693Y2443D01*
Y2449D01*
X2687Y2455D01*
X2676D01*
X2670Y2449D01*
X2705Y2437D02*
X2728D01*
X2740Y2449D02*
X2746Y2455D01*
X2757D01*
X2763Y2449D01*
Y2426D01*
X2757Y2420D01*
X2746D01*
X2740Y2426D01*
Y2449D01*
X2775D02*
X2781Y2455D01*
X2792D01*
X2798Y2449D01*
Y2426D01*
X2792Y2420D01*
X2781D01*
X2775Y2426D01*
Y2449D01*
X2810D02*
X2816Y2455D01*
X2827D01*
X2833Y2449D01*
Y2443D01*
X2827Y2437D01*
X2833Y2432D01*
Y2426D01*
X2827Y2420D01*
X2816D01*
X2810Y2426D01*
Y2432D01*
X2816Y2437D01*
X2810Y2443D01*
Y2449D01*
X2816Y2437D02*
X2827D01*
X2845Y2420D02*
X2857D01*
X2851D01*
Y2455D01*
X2845Y2449D01*
X2909Y2420D02*
Y2455D01*
X2927D01*
X2932Y2449D01*
Y2437D01*
X2927Y2432D01*
X2909D01*
X2921D02*
X2932Y2420D01*
X2961D02*
X2950D01*
X2944Y2426D01*
Y2437D01*
X2950Y2443D01*
X2961D01*
X2967Y2437D01*
Y2432D01*
X2944D01*
X2979Y2443D02*
X2991Y2420D01*
X3002Y2443D01*
X3049Y2437D02*
X3072D01*
D18*
X390Y907D02*
D03*
Y995D02*
D03*
X635Y951D02*
D03*
Y1040D02*
D03*
D19*
X1600Y1832D02*
D03*
Y1758D02*
D03*
Y2027D02*
D03*
Y1953D02*
D03*
D20*
X634Y835D02*
D03*
X560D02*
D03*
X597Y756D02*
D03*
X484Y835D02*
D03*
X410D02*
D03*
X447Y756D02*
D03*
D21*
X447Y2000D02*
D03*
X624D02*
D03*
D22*
X505Y1900D02*
D03*
X572D02*
D03*
D23*
X750Y2450D02*
D03*
Y2135D02*
D03*
X260Y2450D02*
D03*
Y2135D02*
D03*
D24*
X1358Y2270D02*
D03*
Y2450D02*
D03*
X1355Y1345D02*
D03*
Y1525D02*
D03*
X1072Y2140D02*
D03*
Y1960D02*
D03*
Y1850D02*
D03*
Y1670D02*
D03*
D25*
X1075Y2360D02*
D03*
X1072Y1435D02*
D03*
X1355Y2050D02*
D03*
Y1760D02*
D03*
D26*
X495Y1130D02*
D03*
X565D02*
D03*
D27*
X670Y650D02*
D03*
Y610D02*
D03*
X624Y650D02*
D03*
Y610D02*
D03*
X445Y555D02*
D03*
Y595D02*
D03*
X494Y555D02*
D03*
Y595D02*
D03*
X780Y555D02*
D03*
Y594D02*
D03*
D28*
X876Y738D02*
D03*
Y813D02*
D03*
X774Y775D02*
D03*
X1409Y782D02*
D03*
X1511Y820D02*
D03*
Y745D02*
D03*
X1084Y780D02*
D03*
X1186Y817D02*
D03*
Y743D02*
D03*
D29*
X705Y790D02*
D03*
Y860D02*
D03*
X720Y1040D02*
D03*
Y969D02*
D03*
X1511Y875D02*
D03*
Y945D02*
D03*
X1511Y670D02*
D03*
Y600D02*
D03*
X310Y995D02*
D03*
Y925D02*
D03*
X335Y825D02*
D03*
Y754D02*
D03*
X876Y660D02*
D03*
Y590D02*
D03*
X876Y875D02*
D03*
Y945D02*
D03*
X1185Y665D02*
D03*
Y594D02*
D03*
X1186Y875D02*
D03*
Y945D02*
D03*
X410Y1270D02*
D03*
Y1341D02*
D03*
X410Y1130D02*
D03*
Y1201D02*
D03*
D30*
X544Y594D02*
D03*
Y555D02*
D03*
X575Y380D02*
D03*
Y420D02*
D03*
X630Y380D02*
D03*
Y420D02*
D03*
D31*
X530Y468D02*
D03*
X570D02*
D03*
D32*
X611Y555D02*
D03*
Y476D02*
D03*
X729D02*
D03*
Y555D02*
D03*
D33*
X619Y535D02*
D03*
Y515D02*
D03*
Y496D02*
D03*
X721D02*
D03*
Y515D02*
D03*
Y535D02*
D03*
D34*
X631Y456D02*
D03*
X709D02*
D03*
Y574D02*
D03*
X631D02*
D03*
D35*
X650Y464D02*
D03*
X670D02*
D03*
X690D02*
D03*
Y566D02*
D03*
X670D02*
D03*
X650D02*
D03*
D36*
X567Y1340D02*
D03*
Y1255D02*
D03*
X493Y1340D02*
D03*
X530Y1255D02*
D03*
D37*
X493Y1255D02*
D03*
M02*
