G04*
G04 #@! TF.GenerationSoftware,Altium Limited,Altium Designer,19.0.10 (269)*
G04*
G04 Layer_Color=16711935*
%FSLAX23Y23*%
%MOIN*%
G70*
G01*
G75*
%ADD16C,0.008*%
%ADD38R,0.039X0.039*%
%ADD42R,0.051X0.047*%
%ADD44R,0.126X0.071*%
%ADD45R,0.252X0.236*%
%ADD56C,0.128*%
%ADD57C,0.070*%
%ADD58R,0.070X0.070*%
%ADD59R,0.043X0.043*%
%ADD60C,0.043*%
%ADD61C,0.030*%
%ADD62C,0.058*%
%ADD83R,0.118X0.158*%
%ADD84R,0.043X0.036*%
%ADD85R,0.025X0.032*%
%ADD86R,0.047X0.051*%
%ADD87R,0.041X0.071*%
%ADD88R,0.236X0.252*%
%ADD89R,0.071X0.126*%
D16*
X2450Y1655D02*
Y1620D01*
X2467D01*
X2473Y1626D01*
Y1632D01*
X2467Y1637D01*
X2450D01*
X2467D01*
X2473Y1643D01*
Y1649D01*
X2467Y1655D01*
X2450D01*
X2491Y1620D02*
X2502D01*
X2508Y1626D01*
Y1637D01*
X2502Y1643D01*
X2491D01*
X2485Y1637D01*
Y1626D01*
X2491Y1620D01*
X2526Y1649D02*
Y1643D01*
X2520D01*
X2532D01*
X2526D01*
Y1626D01*
X2532Y1620D01*
X2555Y1649D02*
Y1643D01*
X2549D01*
X2561D01*
X2555D01*
Y1626D01*
X2561Y1620D01*
X2584D02*
X2596D01*
X2602Y1626D01*
Y1637D01*
X2596Y1643D01*
X2584D01*
X2578Y1637D01*
Y1626D01*
X2584Y1620D01*
X2613D02*
Y1643D01*
X2619D01*
X2625Y1637D01*
Y1620D01*
Y1637D01*
X2631Y1643D01*
X2637Y1637D01*
Y1620D01*
X2707Y1649D02*
X2701Y1655D01*
X2689D01*
X2683Y1649D01*
Y1643D01*
X2689Y1637D01*
X2701D01*
X2707Y1632D01*
Y1626D01*
X2701Y1620D01*
X2689D01*
X2683Y1626D01*
X2724Y1620D02*
X2736D01*
X2742Y1626D01*
Y1637D01*
X2736Y1643D01*
X2724D01*
X2718Y1637D01*
Y1626D01*
X2724Y1620D01*
X2753D02*
X2765D01*
X2759D01*
Y1655D01*
X2753D01*
X2806D02*
Y1620D01*
X2788D01*
X2782Y1626D01*
Y1637D01*
X2788Y1643D01*
X2806D01*
X2835Y1620D02*
X2823D01*
X2817Y1626D01*
Y1637D01*
X2823Y1643D01*
X2835D01*
X2841Y1637D01*
Y1632D01*
X2817D01*
X2852Y1643D02*
Y1620D01*
Y1632D01*
X2858Y1637D01*
X2864Y1643D01*
X2870D01*
X2448Y2310D02*
X2425D01*
X2448Y2333D01*
Y2339D01*
X2442Y2345D01*
X2431D01*
X2425Y2339D01*
X2518Y2345D02*
X2507D01*
X2512D01*
Y2316D01*
X2507Y2310D01*
X2501D01*
X2495Y2316D01*
X2530Y2333D02*
Y2316D01*
X2536Y2310D01*
X2553D01*
Y2333D01*
X2565Y2310D02*
X2577D01*
X2571D01*
Y2345D01*
X2565D01*
X2594Y2333D02*
Y2316D01*
X2600Y2310D01*
X2617D01*
Y2304D01*
X2612Y2298D01*
X2606D01*
X2617Y2310D02*
Y2333D01*
X2687Y2310D02*
X2664D01*
X2687Y2333D01*
Y2339D01*
X2682Y2345D01*
X2670D01*
X2664Y2339D01*
X2699D02*
X2705Y2345D01*
X2717D01*
X2722Y2339D01*
Y2316D01*
X2717Y2310D01*
X2705D01*
X2699Y2316D01*
Y2339D01*
X2734Y2310D02*
X2746D01*
X2740D01*
Y2345D01*
X2734Y2339D01*
X2763Y2316D02*
X2769Y2310D01*
X2781D01*
X2787Y2316D01*
Y2339D01*
X2781Y2345D01*
X2769D01*
X2763Y2339D01*
Y2333D01*
X2769Y2327D01*
X2787D01*
X2425Y2420D02*
Y2455D01*
X2442D01*
X2448Y2449D01*
Y2437D01*
X2442Y2432D01*
X2425D01*
X2483Y2449D02*
X2477Y2455D01*
X2466D01*
X2460Y2449D01*
Y2426D01*
X2466Y2420D01*
X2477D01*
X2483Y2426D01*
X2495Y2455D02*
Y2420D01*
X2512D01*
X2518Y2426D01*
Y2432D01*
X2512Y2437D01*
X2495D01*
X2512D01*
X2518Y2443D01*
Y2449D01*
X2512Y2455D01*
X2495D01*
X2571Y2420D02*
Y2455D01*
X2582D02*
Y2420D01*
X2565Y2443D02*
X2582D01*
X2588D01*
X2565Y2432D02*
X2588D01*
X2600Y2449D02*
X2606Y2455D01*
X2617D01*
X2623Y2449D01*
Y2426D01*
X2617Y2420D01*
X2606D01*
X2600Y2426D01*
Y2449D01*
X2635D02*
X2641Y2455D01*
X2652D01*
X2658Y2449D01*
Y2426D01*
X2652Y2420D01*
X2641D01*
X2635Y2426D01*
Y2449D01*
X2693Y2420D02*
X2670D01*
X2693Y2443D01*
Y2449D01*
X2687Y2455D01*
X2676D01*
X2670Y2449D01*
X2705Y2437D02*
X2728D01*
X2740Y2449D02*
X2746Y2455D01*
X2757D01*
X2763Y2449D01*
Y2426D01*
X2757Y2420D01*
X2746D01*
X2740Y2426D01*
Y2449D01*
X2775D02*
X2781Y2455D01*
X2792D01*
X2798Y2449D01*
Y2426D01*
X2792Y2420D01*
X2781D01*
X2775Y2426D01*
Y2449D01*
X2810D02*
X2816Y2455D01*
X2827D01*
X2833Y2449D01*
Y2443D01*
X2827Y2437D01*
X2833Y2432D01*
Y2426D01*
X2827Y2420D01*
X2816D01*
X2810Y2426D01*
Y2432D01*
X2816Y2437D01*
X2810Y2443D01*
Y2449D01*
X2816Y2437D02*
X2827D01*
X2845Y2420D02*
X2857D01*
X2851D01*
Y2455D01*
X2845Y2449D01*
X2909Y2420D02*
Y2455D01*
X2927D01*
X2932Y2449D01*
Y2437D01*
X2927Y2432D01*
X2909D01*
X2921D02*
X2932Y2420D01*
X2961D02*
X2950D01*
X2944Y2426D01*
Y2437D01*
X2950Y2443D01*
X2961D01*
X2967Y2437D01*
Y2432D01*
X2944D01*
X2979Y2443D02*
X2991Y2420D01*
X3002Y2443D01*
X3049Y2437D02*
X3072D01*
D38*
X130Y1921D02*
D03*
Y2010D02*
D03*
D42*
X191Y1220D02*
D03*
X124D02*
D03*
X191Y1153D02*
D03*
X124D02*
D03*
D44*
X897Y1530D02*
D03*
Y1710D02*
D03*
X1502Y1270D02*
D03*
Y1450D02*
D03*
X1505Y2260D02*
D03*
Y2440D02*
D03*
X897Y1890D02*
D03*
Y2070D02*
D03*
X1502Y1625D02*
D03*
Y1805D02*
D03*
X1505Y1955D02*
D03*
Y2135D02*
D03*
X345Y2070D02*
D03*
Y1890D02*
D03*
D45*
X1180Y1620D02*
D03*
X1785Y1360D02*
D03*
X1788Y2350D02*
D03*
X1180Y1980D02*
D03*
X1785Y1715D02*
D03*
X1788Y2045D02*
D03*
X628Y1980D02*
D03*
D56*
X60Y2130D02*
D03*
Y1585D02*
D03*
X2080Y1715D02*
D03*
Y2045D02*
D03*
D57*
X700Y160D02*
D03*
X600D02*
D03*
D58*
X500D02*
D03*
D59*
X85Y935D02*
D03*
D60*
Y885D02*
D03*
Y835D02*
D03*
Y785D02*
D03*
D61*
X572Y695D02*
D03*
X760Y675D02*
D03*
X964Y530D02*
D03*
X1300Y625D02*
D03*
X876Y1825D02*
D03*
X930Y1765D02*
D03*
X876Y2140D02*
D03*
X65Y1218D02*
D03*
X795Y1080D02*
D03*
X935Y1005D02*
D03*
X1050Y1105D02*
D03*
X275Y1085D02*
D03*
X340Y1370D02*
D03*
X235Y1895D02*
D03*
X625Y1188D02*
D03*
X65Y1153D02*
D03*
X245Y625D02*
D03*
X544Y739D02*
D03*
X739Y737D02*
D03*
X485Y470D02*
D03*
X675Y380D02*
D03*
X1185Y1000D02*
D03*
X500Y738D02*
D03*
X565Y995D02*
D03*
X565Y940D02*
D03*
X140Y1035D02*
D03*
X280Y660D02*
D03*
X1195Y1190D02*
D03*
X960Y2135D02*
D03*
X1569Y600D02*
D03*
X1015Y885D02*
D03*
X245Y940D02*
D03*
X340Y425D02*
D03*
X1355Y925D02*
D03*
X876Y525D02*
D03*
X1185Y535D02*
D03*
X1569Y945D02*
D03*
X1520Y1700D02*
D03*
X1500Y1540D02*
D03*
X1410Y725D02*
D03*
X1375Y1025D02*
D03*
X774Y715D02*
D03*
D62*
X90Y1430D02*
D03*
X865Y1090D02*
D03*
X860Y1160D02*
D03*
X945Y1090D02*
D03*
Y1160D02*
D03*
X535Y2335D02*
D03*
X455D02*
D03*
X535Y2250D02*
D03*
X455D02*
D03*
D83*
X345Y1715D02*
D03*
X660D02*
D03*
Y2265D02*
D03*
X345D02*
D03*
D84*
X195Y975D02*
D03*
Y1035D02*
D03*
Y900D02*
D03*
Y840D02*
D03*
D85*
X1351Y805D02*
D03*
Y880D02*
D03*
X1325D02*
D03*
X1299D02*
D03*
Y805D02*
D03*
X1015Y715D02*
D03*
Y790D02*
D03*
X989D02*
D03*
X964D02*
D03*
Y715D02*
D03*
D86*
Y650D02*
D03*
Y583D02*
D03*
X405Y660D02*
D03*
Y593D02*
D03*
X331Y660D02*
D03*
Y593D02*
D03*
X1300Y678D02*
D03*
Y745D02*
D03*
X210Y1943D02*
D03*
Y2010D02*
D03*
D87*
X191Y1295D02*
D03*
Y1429D02*
D03*
D88*
X405Y903D02*
D03*
D89*
X495Y1185D02*
D03*
X315D02*
D03*
M02*
