G04*
G04 #@! TF.GenerationSoftware,Altium Limited,Altium Designer,19.0.10 (269)*
G04*
G04 Layer_Color=128*
%FSLAX23Y23*%
%MOIN*%
G70*
G01*
G75*
%ADD16C,0.008*%
%ADD18R,0.031X0.031*%
%ADD22R,0.043X0.039*%
%ADD24R,0.118X0.063*%
%ADD25R,0.244X0.228*%
%ADD75R,0.110X0.150*%
%ADD76R,0.035X0.028*%
%ADD77R,0.017X0.024*%
%ADD78R,0.039X0.043*%
%ADD79R,0.033X0.063*%
%ADD80R,0.228X0.244*%
%ADD81R,0.063X0.118*%
D16*
X2445Y1795D02*
Y1760D01*
X2462D01*
X2468Y1766D01*
Y1772D01*
X2462Y1777D01*
X2445D01*
X2462D01*
X2468Y1783D01*
Y1789D01*
X2462Y1795D01*
X2445D01*
X2486Y1760D02*
X2497D01*
X2503Y1766D01*
Y1777D01*
X2497Y1783D01*
X2486D01*
X2480Y1777D01*
Y1766D01*
X2486Y1760D01*
X2521Y1789D02*
Y1783D01*
X2515D01*
X2527D01*
X2521D01*
Y1766D01*
X2527Y1760D01*
X2550Y1789D02*
Y1783D01*
X2544D01*
X2556D01*
X2550D01*
Y1766D01*
X2556Y1760D01*
X2579D02*
X2591D01*
X2597Y1766D01*
Y1777D01*
X2591Y1783D01*
X2579D01*
X2573Y1777D01*
Y1766D01*
X2579Y1760D01*
X2608D02*
Y1783D01*
X2614D01*
X2620Y1777D01*
Y1760D01*
Y1777D01*
X2626Y1783D01*
X2632Y1777D01*
Y1760D01*
X2678D02*
Y1795D01*
X2696D01*
X2702Y1789D01*
Y1777D01*
X2696Y1772D01*
X2678D01*
X2719Y1783D02*
X2731D01*
X2737Y1777D01*
Y1760D01*
X2719D01*
X2713Y1766D01*
X2719Y1772D01*
X2737D01*
X2748Y1760D02*
X2766D01*
X2772Y1766D01*
X2766Y1772D01*
X2754D01*
X2748Y1777D01*
X2754Y1783D01*
X2772D01*
X2789Y1789D02*
Y1783D01*
X2783D01*
X2795D01*
X2789D01*
Y1766D01*
X2795Y1760D01*
X2830D02*
X2818D01*
X2812Y1766D01*
Y1777D01*
X2818Y1783D01*
X2830D01*
X2836Y1777D01*
Y1772D01*
X2812D01*
X2448Y2310D02*
X2425D01*
X2448Y2333D01*
Y2339D01*
X2442Y2345D01*
X2431D01*
X2425Y2339D01*
X2518Y2345D02*
X2507D01*
X2512D01*
Y2316D01*
X2507Y2310D01*
X2501D01*
X2495Y2316D01*
X2530Y2333D02*
Y2316D01*
X2536Y2310D01*
X2553D01*
Y2333D01*
X2565Y2310D02*
X2577D01*
X2571D01*
Y2345D01*
X2565D01*
X2594Y2333D02*
Y2316D01*
X2600Y2310D01*
X2617D01*
Y2304D01*
X2612Y2298D01*
X2606D01*
X2617Y2310D02*
Y2333D01*
X2687Y2310D02*
X2664D01*
X2687Y2333D01*
Y2339D01*
X2682Y2345D01*
X2670D01*
X2664Y2339D01*
X2699D02*
X2705Y2345D01*
X2717D01*
X2722Y2339D01*
Y2316D01*
X2717Y2310D01*
X2705D01*
X2699Y2316D01*
Y2339D01*
X2734Y2310D02*
X2746D01*
X2740D01*
Y2345D01*
X2734Y2339D01*
X2763Y2316D02*
X2769Y2310D01*
X2781D01*
X2787Y2316D01*
Y2339D01*
X2781Y2345D01*
X2769D01*
X2763Y2339D01*
Y2333D01*
X2769Y2327D01*
X2787D01*
X2425Y2420D02*
Y2455D01*
X2442D01*
X2448Y2449D01*
Y2437D01*
X2442Y2432D01*
X2425D01*
X2483Y2449D02*
X2477Y2455D01*
X2466D01*
X2460Y2449D01*
Y2426D01*
X2466Y2420D01*
X2477D01*
X2483Y2426D01*
X2495Y2455D02*
Y2420D01*
X2512D01*
X2518Y2426D01*
Y2432D01*
X2512Y2437D01*
X2495D01*
X2512D01*
X2518Y2443D01*
Y2449D01*
X2512Y2455D01*
X2495D01*
X2571Y2420D02*
Y2455D01*
X2582D02*
Y2420D01*
X2565Y2443D02*
X2582D01*
X2588D01*
X2565Y2432D02*
X2588D01*
X2600Y2449D02*
X2606Y2455D01*
X2617D01*
X2623Y2449D01*
Y2426D01*
X2617Y2420D01*
X2606D01*
X2600Y2426D01*
Y2449D01*
X2635D02*
X2641Y2455D01*
X2652D01*
X2658Y2449D01*
Y2426D01*
X2652Y2420D01*
X2641D01*
X2635Y2426D01*
Y2449D01*
X2693Y2420D02*
X2670D01*
X2693Y2443D01*
Y2449D01*
X2687Y2455D01*
X2676D01*
X2670Y2449D01*
X2705Y2437D02*
X2728D01*
X2740Y2449D02*
X2746Y2455D01*
X2757D01*
X2763Y2449D01*
Y2426D01*
X2757Y2420D01*
X2746D01*
X2740Y2426D01*
Y2449D01*
X2775D02*
X2781Y2455D01*
X2792D01*
X2798Y2449D01*
Y2426D01*
X2792Y2420D01*
X2781D01*
X2775Y2426D01*
Y2449D01*
X2810D02*
X2816Y2455D01*
X2827D01*
X2833Y2449D01*
Y2443D01*
X2827Y2437D01*
X2833Y2432D01*
Y2426D01*
X2827Y2420D01*
X2816D01*
X2810Y2426D01*
Y2432D01*
X2816Y2437D01*
X2810Y2443D01*
Y2449D01*
X2816Y2437D02*
X2827D01*
X2845Y2420D02*
X2857D01*
X2851D01*
Y2455D01*
X2845Y2449D01*
X2909Y2420D02*
Y2455D01*
X2927D01*
X2932Y2449D01*
Y2437D01*
X2927Y2432D01*
X2909D01*
X2921D02*
X2932Y2420D01*
X2961D02*
X2950D01*
X2944Y2426D01*
Y2437D01*
X2950Y2443D01*
X2961D01*
X2967Y2437D01*
Y2432D01*
X2944D01*
X2979Y2443D02*
X2991Y2420D01*
X3002Y2443D01*
X3049Y2437D02*
X3072D01*
D18*
X130Y1921D02*
D03*
Y2010D02*
D03*
D22*
X191Y1220D02*
D03*
X124D02*
D03*
X191Y1153D02*
D03*
X124D02*
D03*
D24*
X897Y1530D02*
D03*
Y1710D02*
D03*
X1502Y1270D02*
D03*
Y1450D02*
D03*
X1505Y2260D02*
D03*
Y2440D02*
D03*
X897Y1890D02*
D03*
Y2070D02*
D03*
X1502Y1625D02*
D03*
Y1805D02*
D03*
X1505Y1955D02*
D03*
Y2135D02*
D03*
X345Y2070D02*
D03*
Y1890D02*
D03*
D25*
X1180Y1620D02*
D03*
X1785Y1360D02*
D03*
X1788Y2350D02*
D03*
X1180Y1980D02*
D03*
X1785Y1715D02*
D03*
X1788Y2045D02*
D03*
X628Y1980D02*
D03*
D75*
X345Y1715D02*
D03*
X660D02*
D03*
Y2265D02*
D03*
X345D02*
D03*
D76*
X195Y975D02*
D03*
Y1035D02*
D03*
Y900D02*
D03*
Y840D02*
D03*
D77*
X1351Y805D02*
D03*
Y880D02*
D03*
X1325D02*
D03*
X1299D02*
D03*
Y805D02*
D03*
X1015Y715D02*
D03*
Y790D02*
D03*
X989D02*
D03*
X964D02*
D03*
Y715D02*
D03*
D78*
Y650D02*
D03*
Y583D02*
D03*
X405Y660D02*
D03*
Y593D02*
D03*
X331Y660D02*
D03*
Y593D02*
D03*
X1300Y678D02*
D03*
Y745D02*
D03*
X210Y1943D02*
D03*
Y2010D02*
D03*
D79*
X191Y1295D02*
D03*
Y1429D02*
D03*
D80*
X405Y903D02*
D03*
D81*
X495Y1185D02*
D03*
X315D02*
D03*
M02*
