G04*
G04 #@! TF.GenerationSoftware,Altium Limited,Altium Designer,19.0.10 (269)*
G04*
G04 Layer_Color=32896*
%FSLAX23Y23*%
%MOIN*%
G70*
G01*
G75*
%ADD12C,0.005*%
%ADD13C,0.008*%
%ADD14C,0.007*%
%ADD16C,0.008*%
%ADD17C,0.006*%
D12*
X1047Y1495D02*
Y1745D01*
X1312D01*
Y1495D02*
Y1745D01*
X1047Y1495D02*
X1312D01*
X1652Y1235D02*
Y1485D01*
X1917D01*
Y1235D02*
Y1485D01*
X1652Y1235D02*
X1917D01*
X1655Y2225D02*
Y2475D01*
X1920D01*
Y2225D02*
Y2475D01*
X1655Y2225D02*
X1920D01*
X1367Y785D02*
Y900D01*
X1284Y785D02*
X1367D01*
X1284D02*
Y900D01*
X1367D01*
X1031Y695D02*
Y810D01*
X948Y695D02*
X1031D01*
X948D02*
Y810D01*
X1031D01*
X280Y770D02*
Y1035D01*
Y770D02*
X530D01*
Y1035D01*
X280D02*
X530D01*
X1047Y1855D02*
Y2105D01*
X1312D01*
Y1855D02*
Y2105D01*
X1047Y1855D02*
X1312D01*
X1652Y1590D02*
Y1840D01*
X1917D01*
Y1590D02*
Y1840D01*
X1652Y1590D02*
X1917D01*
X1655Y1920D02*
Y2170D01*
X1920D01*
Y1920D02*
Y2170D01*
X1655Y1920D02*
X1920D01*
X115Y1885D02*
X145D01*
X160Y1900D01*
Y2035D01*
X100Y1900D02*
X115Y1885D01*
X100Y1900D02*
Y2035D01*
X160D01*
X495Y1855D02*
X760D01*
Y2105D01*
X495D02*
X760D01*
X495Y1855D02*
Y2105D01*
D13*
X424Y1652D02*
Y1782D01*
X388Y1597D02*
X621D01*
X388Y1833D02*
X621D01*
X581Y2198D02*
Y2328D01*
X384Y2383D02*
X617D01*
X384Y2147D02*
X617D01*
X209Y997D02*
Y1013D01*
X181Y997D02*
Y1013D01*
Y862D02*
Y878D01*
X209Y862D02*
Y878D01*
X156Y1305D02*
X163D01*
X156Y1419D02*
X163D01*
X219D02*
X226D01*
X219Y1305D02*
X226D01*
X156Y1387D02*
X225D01*
X226Y1305D02*
Y1419D01*
X156Y1305D02*
Y1419D01*
D14*
X974Y617D02*
X979D01*
X949D02*
X954D01*
X415Y627D02*
X420D01*
X390D02*
X395D01*
X341D02*
X346D01*
X316D02*
X321D01*
X1285Y712D02*
X1290D01*
X1310D02*
X1315D01*
X158Y1205D02*
Y1210D01*
Y1230D02*
Y1235D01*
Y1138D02*
Y1143D01*
Y1163D02*
Y1168D01*
X195Y1976D02*
X200D01*
X220D02*
X225D01*
D16*
X2448Y2310D02*
X2425D01*
X2448Y2333D01*
Y2339D01*
X2442Y2345D01*
X2431D01*
X2425Y2339D01*
X2518Y2345D02*
X2507D01*
X2512D01*
Y2316D01*
X2507Y2310D01*
X2501D01*
X2495Y2316D01*
X2530Y2333D02*
Y2316D01*
X2536Y2310D01*
X2553D01*
Y2333D01*
X2565Y2310D02*
X2577D01*
X2571D01*
Y2345D01*
X2565D01*
X2594Y2333D02*
Y2316D01*
X2600Y2310D01*
X2617D01*
Y2304D01*
X2612Y2298D01*
X2606D01*
X2617Y2310D02*
Y2333D01*
X2687Y2310D02*
X2664D01*
X2687Y2333D01*
Y2339D01*
X2682Y2345D01*
X2670D01*
X2664Y2339D01*
X2699D02*
X2705Y2345D01*
X2717D01*
X2722Y2339D01*
Y2316D01*
X2717Y2310D01*
X2705D01*
X2699Y2316D01*
Y2339D01*
X2734Y2310D02*
X2746D01*
X2740D01*
Y2345D01*
X2734Y2339D01*
X2763Y2316D02*
X2769Y2310D01*
X2781D01*
X2787Y2316D01*
Y2339D01*
X2781Y2345D01*
X2769D01*
X2763Y2339D01*
Y2333D01*
X2769Y2327D01*
X2787D01*
X2425Y2420D02*
Y2455D01*
X2442D01*
X2448Y2449D01*
Y2437D01*
X2442Y2432D01*
X2425D01*
X2483Y2449D02*
X2477Y2455D01*
X2466D01*
X2460Y2449D01*
Y2426D01*
X2466Y2420D01*
X2477D01*
X2483Y2426D01*
X2495Y2455D02*
Y2420D01*
X2512D01*
X2518Y2426D01*
Y2432D01*
X2512Y2437D01*
X2495D01*
X2512D01*
X2518Y2443D01*
Y2449D01*
X2512Y2455D01*
X2495D01*
X2571Y2420D02*
Y2455D01*
X2582D02*
Y2420D01*
X2565Y2443D02*
X2582D01*
X2588D01*
X2565Y2432D02*
X2588D01*
X2600Y2449D02*
X2606Y2455D01*
X2617D01*
X2623Y2449D01*
Y2426D01*
X2617Y2420D01*
X2606D01*
X2600Y2426D01*
Y2449D01*
X2635D02*
X2641Y2455D01*
X2652D01*
X2658Y2449D01*
Y2426D01*
X2652Y2420D01*
X2641D01*
X2635Y2426D01*
Y2449D01*
X2693Y2420D02*
X2670D01*
X2693Y2443D01*
Y2449D01*
X2687Y2455D01*
X2676D01*
X2670Y2449D01*
X2705Y2437D02*
X2728D01*
X2740Y2449D02*
X2746Y2455D01*
X2757D01*
X2763Y2449D01*
Y2426D01*
X2757Y2420D01*
X2746D01*
X2740Y2426D01*
Y2449D01*
X2775D02*
X2781Y2455D01*
X2792D01*
X2798Y2449D01*
Y2426D01*
X2792Y2420D01*
X2781D01*
X2775Y2426D01*
Y2449D01*
X2810D02*
X2816Y2455D01*
X2827D01*
X2833Y2449D01*
Y2443D01*
X2827Y2437D01*
X2833Y2432D01*
Y2426D01*
X2827Y2420D01*
X2816D01*
X2810Y2426D01*
Y2432D01*
X2816Y2437D01*
X2810Y2443D01*
Y2449D01*
X2816Y2437D02*
X2827D01*
X2845Y2420D02*
X2857D01*
X2851D01*
Y2455D01*
X2845Y2449D01*
X2909Y2420D02*
Y2455D01*
X2927D01*
X2932Y2449D01*
Y2437D01*
X2927Y2432D01*
X2909D01*
X2921D02*
X2932Y2420D01*
X2961D02*
X2950D01*
X2944Y2426D01*
Y2437D01*
X2950Y2443D01*
X2961D01*
X2967Y2437D01*
Y2432D01*
X2944D01*
X2979Y2443D02*
X2991Y2420D01*
X3002Y2443D01*
X3049Y2437D02*
X3072D01*
D17*
X805Y1650D02*
Y1625D01*
X793D01*
X788Y1629D01*
Y1646D01*
X793Y1650D01*
X805D01*
X780Y1625D02*
X772D01*
X776D01*
Y1650D01*
X780Y1646D01*
X759D02*
X755Y1650D01*
X747D01*
X743Y1646D01*
Y1629D01*
X747Y1625D01*
X755D01*
X759Y1629D01*
Y1646D01*
X200Y1070D02*
Y1095D01*
X188D01*
X183Y1091D01*
Y1082D01*
X188Y1078D01*
X200D01*
X192D02*
X183Y1070D01*
X175Y1074D02*
X171Y1070D01*
X163D01*
X158Y1074D01*
Y1091D01*
X163Y1095D01*
X171D01*
X175Y1091D01*
Y1087D01*
X171Y1082D01*
X158D01*
X250Y2223D02*
Y2198D01*
X238D01*
X233Y2202D01*
Y2219D01*
X238Y2223D01*
X250D01*
X225Y2202D02*
X221Y2198D01*
X213D01*
X208Y2202D01*
Y2219D01*
X213Y2223D01*
X221D01*
X225Y2219D01*
Y2215D01*
X221Y2211D01*
X208D01*
X1395Y1730D02*
Y1705D01*
X1383D01*
X1378Y1709D01*
Y1726D01*
X1383Y1730D01*
X1395D01*
X1370Y1705D02*
X1362D01*
X1366D01*
Y1730D01*
X1370Y1726D01*
X1337Y1705D02*
Y1730D01*
X1349Y1717D01*
X1333D01*
X1980Y1485D02*
Y1460D01*
X1968D01*
X1963Y1464D01*
Y1481D01*
X1968Y1485D01*
X1980D01*
X1955Y1460D02*
X1947D01*
X1951D01*
Y1485D01*
X1955Y1481D01*
X1934D02*
X1930Y1485D01*
X1922D01*
X1918Y1481D01*
Y1477D01*
X1922Y1472D01*
X1926D01*
X1922D01*
X1918Y1468D01*
Y1464D01*
X1922Y1460D01*
X1930D01*
X1934Y1464D01*
X1995Y2470D02*
Y2445D01*
X1983D01*
X1978Y2449D01*
Y2466D01*
X1983Y2470D01*
X1995D01*
X1970Y2445D02*
X1962D01*
X1966D01*
Y2470D01*
X1970Y2466D01*
X1933Y2445D02*
X1949D01*
X1933Y2462D01*
Y2466D01*
X1937Y2470D01*
X1945D01*
X1949Y2466D01*
X185Y1515D02*
Y1490D01*
X173D01*
X168Y1494D01*
Y1511D01*
X173Y1515D01*
X185D01*
X160Y1490D02*
X152D01*
X156D01*
Y1515D01*
X160Y1511D01*
X1325Y950D02*
Y929D01*
X1321Y925D01*
X1313D01*
X1308Y929D01*
Y950D01*
X1283D02*
X1300D01*
Y937D01*
X1292Y941D01*
X1288D01*
X1283Y937D01*
Y929D01*
X1288Y925D01*
X1296D01*
X1300Y929D01*
X1050Y850D02*
Y829D01*
X1046Y825D01*
X1038D01*
X1033Y829D01*
Y850D01*
X1013Y825D02*
Y850D01*
X1025Y837D01*
X1008D01*
X305Y755D02*
Y734D01*
X301Y730D01*
X293D01*
X288Y734D01*
Y755D01*
X263Y730D02*
X280D01*
X263Y747D01*
Y751D01*
X268Y755D01*
X276D01*
X280Y751D01*
X190Y785D02*
Y810D01*
X178D01*
X173Y806D01*
Y797D01*
X178Y793D01*
X190D01*
X182D02*
X173Y785D01*
X165D02*
X157D01*
X161D01*
Y810D01*
X165Y806D01*
X144D02*
X140Y810D01*
X132D01*
X128Y806D01*
Y789D01*
X132Y785D01*
X140D01*
X144Y789D01*
Y806D01*
X1368Y2084D02*
Y2101D01*
X1373Y2105D01*
X1381D01*
X1385Y2101D01*
Y2084D01*
X1381Y2080D01*
X1373D01*
X1377Y2088D02*
X1368Y2080D01*
X1373D02*
X1368Y2084D01*
X1360Y2101D02*
X1356Y2105D01*
X1348D01*
X1343Y2101D01*
Y2097D01*
X1348Y2092D01*
X1343Y2088D01*
Y2084D01*
X1348Y2080D01*
X1356D01*
X1360Y2084D01*
Y2088D01*
X1356Y2092D01*
X1360Y2097D01*
Y2101D01*
X1356Y2092D02*
X1348D01*
X1963Y1819D02*
Y1836D01*
X1968Y1840D01*
X1976D01*
X1980Y1836D01*
Y1819D01*
X1976Y1815D01*
X1968D01*
X1972Y1823D02*
X1963Y1815D01*
X1968D02*
X1963Y1819D01*
X1955Y1840D02*
X1938D01*
Y1836D01*
X1955Y1819D01*
Y1815D01*
X1968Y2149D02*
Y2166D01*
X1973Y2170D01*
X1981D01*
X1985Y2166D01*
Y2149D01*
X1981Y2145D01*
X1973D01*
X1977Y2153D02*
X1968Y2145D01*
X1973D02*
X1968Y2149D01*
X1943Y2170D02*
X1952Y2166D01*
X1960Y2157D01*
Y2149D01*
X1956Y2145D01*
X1948D01*
X1943Y2149D01*
Y2153D01*
X1948Y2157D01*
X1960D01*
X803Y2074D02*
Y2091D01*
X808Y2095D01*
X816D01*
X820Y2091D01*
Y2074D01*
X816Y2070D01*
X808D01*
X812Y2078D02*
X803Y2070D01*
X808D02*
X803Y2074D01*
X795Y2091D02*
X791Y2095D01*
X783D01*
X778Y2091D01*
Y2087D01*
X783Y2082D01*
X787D01*
X783D01*
X778Y2078D01*
Y2074D01*
X783Y2070D01*
X791D01*
X795Y2074D01*
X85Y1930D02*
Y1905D01*
X73D01*
X68Y1909D01*
Y1926D01*
X73Y1930D01*
X85D01*
X60Y1905D02*
X52D01*
X56D01*
Y1930D01*
X60Y1926D01*
X39Y1905D02*
X31D01*
X35D01*
Y1930D01*
X39Y1926D01*
X73Y1266D02*
X78Y1270D01*
X86D01*
X90Y1266D01*
Y1249D01*
X86Y1245D01*
X78D01*
X73Y1249D01*
X48Y1270D02*
X57Y1266D01*
X65Y1257D01*
Y1249D01*
X61Y1245D01*
X53D01*
X48Y1249D01*
Y1253D01*
X53Y1257D01*
X65D01*
X1248Y666D02*
X1253Y670D01*
X1261D01*
X1265Y666D01*
Y649D01*
X1261Y645D01*
X1253D01*
X1248Y649D01*
X1240Y645D02*
X1232D01*
X1236D01*
Y670D01*
X1240Y666D01*
X1219D02*
X1215Y670D01*
X1207D01*
X1203Y666D01*
Y662D01*
X1207Y657D01*
X1211D01*
X1207D01*
X1203Y653D01*
Y649D01*
X1207Y645D01*
X1215D01*
X1219Y649D01*
X908Y576D02*
X913Y580D01*
X921D01*
X925Y576D01*
Y559D01*
X921Y555D01*
X913D01*
X908Y559D01*
X900Y576D02*
X896Y580D01*
X888D01*
X883Y576D01*
Y572D01*
X888Y567D01*
X883Y563D01*
Y559D01*
X888Y555D01*
X896D01*
X900Y559D01*
Y563D01*
X896Y567D01*
X900Y572D01*
Y576D01*
X896Y567D02*
X888D01*
X63Y1126D02*
X68Y1130D01*
X76D01*
X80Y1126D01*
Y1109D01*
X76Y1105D01*
X68D01*
X63Y1109D01*
X55Y1130D02*
X38D01*
Y1126D01*
X55Y1109D01*
Y1105D01*
X313Y546D02*
X318Y550D01*
X326D01*
X330Y546D01*
Y529D01*
X326Y525D01*
X318D01*
X313Y529D01*
X288Y550D02*
X305D01*
Y537D01*
X297Y542D01*
X293D01*
X288Y537D01*
Y529D01*
X293Y525D01*
X301D01*
X305Y529D01*
X403Y546D02*
X408Y550D01*
X416D01*
X420Y546D01*
Y529D01*
X416Y525D01*
X408D01*
X403Y529D01*
X383Y525D02*
Y550D01*
X395Y537D01*
X378D01*
X198Y2076D02*
X203Y2080D01*
X211D01*
X215Y2076D01*
Y2059D01*
X211Y2055D01*
X203D01*
X198Y2059D01*
X190Y2076D02*
X186Y2080D01*
X178D01*
X173Y2076D01*
Y2072D01*
X178Y2067D01*
X182D01*
X178D01*
X173Y2063D01*
Y2059D01*
X178Y2055D01*
X186D01*
X190Y2059D01*
M02*
