G04*
G04 #@! TF.GenerationSoftware,Altium Limited,Altium Designer,19.0.10 (269)*
G04*
G04 Layer_Physical_Order=4*
G04 Layer_Color=16711680*
%FSLAX23Y23*%
%MOIN*%
G70*
G01*
G75*
%ADD16C,0.008*%
%ADD18R,0.031X0.031*%
%ADD22R,0.043X0.039*%
%ADD24R,0.118X0.063*%
%ADD25R,0.244X0.228*%
%ADD63C,0.010*%
%ADD64C,0.100*%
%ADD66C,0.025*%
%ADD67C,0.050*%
%ADD68C,0.120*%
%ADD69C,0.062*%
%ADD70R,0.062X0.062*%
%ADD71R,0.035X0.035*%
%ADD72C,0.035*%
%ADD73C,0.022*%
%ADD74C,0.050*%
%ADD75R,0.110X0.150*%
%ADD76R,0.035X0.028*%
%ADD77R,0.017X0.024*%
%ADD78R,0.039X0.043*%
%ADD79R,0.033X0.063*%
%ADD80R,0.228X0.244*%
%ADD81R,0.063X0.118*%
%ADD82C,0.120*%
G36*
X825Y2518D02*
Y2065D01*
X760D01*
Y2104D01*
X496D01*
Y1856D01*
X760D01*
Y1925D01*
X825D01*
Y1220D01*
X825Y1218D01*
Y1208D01*
X631D01*
X625Y1209D01*
X619Y1208D01*
X536D01*
Y1254D01*
X454D01*
Y1208D01*
X426D01*
X328Y1306D01*
X323Y1309D01*
X317Y1310D01*
X218D01*
Y1336D01*
X164D01*
Y1254D01*
X163Y1252D01*
X159Y1250D01*
X156D01*
Y1250D01*
X92D01*
Y1233D01*
X80D01*
X74Y1238D01*
X65Y1239D01*
X57Y1238D01*
X50Y1233D01*
X46Y1226D01*
X44Y1218D01*
X45Y1213D01*
X42Y1208D01*
X-10D01*
Y1385D01*
X70D01*
X72Y1385D01*
X74Y1385D01*
X74Y1386D01*
X74Y1386D01*
X76Y1387D01*
X77Y1387D01*
X77Y1388D01*
X77Y1388D01*
X78Y1389D01*
X79Y1391D01*
X80Y1393D01*
X81Y1394D01*
X81Y1396D01*
X90Y1395D01*
X99Y1396D01*
X108Y1399D01*
X115Y1405D01*
X121Y1412D01*
X122Y1415D01*
X164D01*
Y1387D01*
X211D01*
X214Y1386D01*
X218Y1385D01*
X319D01*
X322Y1380D01*
X320Y1378D01*
X319Y1370D01*
X361D01*
X360Y1378D01*
X358Y1380D01*
X361Y1385D01*
X480D01*
X484Y1386D01*
X487Y1388D01*
X489Y1391D01*
X490Y1395D01*
Y1835D01*
X489Y1839D01*
X487Y1842D01*
X484Y1844D01*
X480Y1845D01*
X418D01*
X414Y1849D01*
X414Y1850D01*
Y1931D01*
X276D01*
Y1910D01*
X250D01*
X243Y1915D01*
X240Y1915D01*
Y1973D01*
X240Y1975D01*
Y1978D01*
X210D01*
X180D01*
Y1975D01*
X180Y1973D01*
Y1960D01*
X180D01*
X174Y1959D01*
X169Y1956D01*
X159Y1946D01*
X156Y1947D01*
Y1947D01*
X104D01*
Y1896D01*
X156D01*
Y1910D01*
X160D01*
X166Y1911D01*
X171Y1914D01*
X176Y1919D01*
X180Y1917D01*
Y1911D01*
X201D01*
Y1910D01*
X203Y1904D01*
X206Y1899D01*
X214Y1891D01*
X215Y1887D01*
X220Y1880D01*
X227Y1875D01*
X235Y1874D01*
X243Y1875D01*
X250Y1880D01*
X276D01*
Y1850D01*
X276Y1849D01*
X272Y1845D01*
X-10D01*
Y2102D01*
X-5Y2103D01*
X-5Y2103D01*
X2Y2091D01*
X10Y2080D01*
X21Y2072D01*
X33Y2065D01*
X46Y2061D01*
X60Y2060D01*
X74Y2061D01*
X87Y2065D01*
X99Y2072D01*
X110Y2080D01*
X118Y2091D01*
X125Y2103D01*
X129Y2116D01*
X130Y2130D01*
X129Y2144D01*
X125Y2157D01*
X118Y2169D01*
X110Y2180D01*
X99Y2188D01*
X87Y2195D01*
X74Y2199D01*
X60Y2200D01*
X46Y2199D01*
X33Y2195D01*
X21Y2188D01*
X10Y2180D01*
X2Y2169D01*
X-5Y2157D01*
X-5Y2157D01*
X-10Y2158D01*
Y2515D01*
X821Y2521D01*
X825Y2518D01*
D02*
G37*
G36*
X1030Y1205D02*
X837D01*
X835Y1208D01*
Y1217D01*
X835Y1219D01*
X835Y1220D01*
X835Y1220D01*
Y1489D01*
X857D01*
Y1530D01*
Y1571D01*
X835D01*
Y1669D01*
X857D01*
Y1710D01*
X937D01*
Y1669D01*
X966D01*
Y1751D01*
X952D01*
X949Y1756D01*
X950Y1757D01*
X951Y1765D01*
X950Y1773D01*
X945Y1780D01*
X938Y1785D01*
X930Y1786D01*
X925Y1791D01*
Y1849D01*
X966D01*
Y1931D01*
X832D01*
X832Y1932D01*
X829Y1934D01*
X825Y1935D01*
X815D01*
Y2055D01*
X825D01*
X828Y2052D01*
Y2029D01*
X857D01*
Y2070D01*
Y2111D01*
X835D01*
Y2518D01*
X835Y2518D01*
X835Y2518D01*
X835Y2520D01*
X834Y2522D01*
X834Y2522D01*
X834Y2522D01*
X833Y2523D01*
X832Y2525D01*
X832Y2526D01*
X834Y2530D01*
X1030D01*
X1030Y1205D01*
D02*
G37*
G36*
X1601Y2530D02*
X1601Y2530D01*
X1601Y1967D01*
X1596Y1965D01*
X1595Y1966D01*
X1590Y1969D01*
X1584Y1970D01*
X1574D01*
Y1996D01*
X1436D01*
Y1914D01*
X1574D01*
X1575Y1909D01*
Y1850D01*
X1571Y1846D01*
X1542D01*
Y1805D01*
Y1764D01*
X1555D01*
X1557Y1759D01*
X1520Y1721D01*
X1512Y1720D01*
X1505Y1715D01*
X1500Y1708D01*
X1499Y1700D01*
X1500Y1692D01*
X1505Y1685D01*
X1512Y1680D01*
X1520Y1679D01*
X1528Y1680D01*
X1535Y1685D01*
X1540Y1692D01*
X1541Y1700D01*
X1590Y1749D01*
X1595Y1747D01*
Y1205D01*
X1210D01*
X1210Y1205D01*
X1203Y1210D01*
X1195Y1211D01*
X1187Y1210D01*
X1180Y1205D01*
X1180Y1205D01*
X1040D01*
X1040Y2530D01*
X1601Y2530D01*
D02*
G37*
G36*
X2175Y2530D02*
X2175Y1900D01*
X2175Y1895D01*
X1611Y1895D01*
X1611Y2530D01*
X2175Y2530D01*
D02*
G37*
G36*
X480Y1395D02*
X218D01*
Y1470D01*
X164D01*
Y1445D01*
X122D01*
X121Y1448D01*
X115Y1455D01*
X108Y1461D01*
X99Y1464D01*
X90Y1465D01*
X81Y1464D01*
X72Y1461D01*
X65Y1455D01*
X59Y1448D01*
X56Y1439D01*
X55Y1430D01*
X56Y1421D01*
X59Y1412D01*
X65Y1405D01*
X72Y1400D01*
X71Y1397D01*
X70Y1395D01*
X-10D01*
Y1557D01*
X-5Y1558D01*
X-5Y1558D01*
X2Y1546D01*
X10Y1535D01*
X20Y1527D01*
Y1585D01*
Y1643D01*
X10Y1635D01*
X2Y1624D01*
X-5Y1612D01*
X-5Y1612D01*
X-10Y1613D01*
Y1835D01*
X480D01*
Y1395D01*
D02*
G37*
G36*
X2175Y1885D02*
Y1205D01*
X1605Y1205D01*
Y1769D01*
X1605Y1770D01*
Y1885D01*
X2175Y1885D01*
D02*
G37*
%LPC*%
G36*
X305Y2350D02*
X280D01*
Y2305D01*
X305D01*
Y2350D01*
D02*
G37*
G36*
Y2225D02*
X280D01*
Y2180D01*
X305D01*
Y2225D01*
D02*
G37*
G36*
X745Y2435D02*
X400D01*
X396Y2434D01*
X393Y2432D01*
X391Y2429D01*
X390Y2425D01*
Y2350D01*
X385D01*
Y2265D01*
Y2180D01*
X400D01*
X400Y2178D01*
X401Y2177D01*
X401Y2176D01*
X401Y2176D01*
X402Y2175D01*
X403Y2173D01*
X403Y2173D01*
X403Y2173D01*
X404Y2172D01*
X406Y2171D01*
X406Y2171D01*
X406Y2171D01*
X408Y2170D01*
X410Y2170D01*
X415Y2170D01*
X415Y2170D01*
X415Y2170D01*
X590D01*
X590Y2170D01*
X590Y2170D01*
X595Y2170D01*
X597Y2170D01*
X599Y2171D01*
X599Y2171D01*
X599Y2171D01*
X601Y2172D01*
X602Y2173D01*
X602Y2173D01*
X602Y2173D01*
X603Y2175D01*
X604Y2176D01*
X604Y2176D01*
X604Y2177D01*
X605Y2178D01*
X605Y2180D01*
X715D01*
X715Y2178D01*
X716Y2177D01*
X716Y2176D01*
X716Y2176D01*
X717Y2175D01*
X718Y2173D01*
X718Y2173D01*
X718Y2173D01*
X719Y2172D01*
X721Y2171D01*
X721Y2171D01*
X721Y2171D01*
X723Y2170D01*
X725Y2170D01*
X730Y2170D01*
X730Y2170D01*
X730Y2170D01*
X745D01*
X749Y2171D01*
X752Y2173D01*
X754Y2176D01*
X755Y2180D01*
Y2425D01*
X754Y2429D01*
X752Y2432D01*
X749Y2434D01*
X745Y2435D01*
D02*
G37*
G36*
X414Y2111D02*
X385D01*
Y2110D01*
X414D01*
Y2111D01*
D02*
G37*
G36*
X305D02*
X276D01*
Y2110D01*
X305D01*
Y2111D01*
D02*
G37*
G36*
X414Y2030D02*
X385D01*
Y2029D01*
X414D01*
Y2030D01*
D02*
G37*
G36*
X305D02*
X276D01*
Y2029D01*
X305D01*
Y2030D01*
D02*
G37*
G36*
X725Y1800D02*
X700D01*
Y1755D01*
X725D01*
Y1800D01*
D02*
G37*
G36*
X620D02*
X595D01*
Y1755D01*
X620D01*
Y1800D01*
D02*
G37*
G36*
X725Y1675D02*
X700D01*
Y1630D01*
X725D01*
Y1675D01*
D02*
G37*
G36*
X620D02*
X595D01*
Y1630D01*
X620D01*
Y1675D01*
D02*
G37*
%LPD*%
G36*
X745Y2180D02*
X730D01*
X725Y2180D01*
X725Y2185D01*
Y2225D01*
X595D01*
Y2185D01*
X595Y2180D01*
X590Y2180D01*
X415D01*
X410Y2180D01*
Y2350D01*
X400D01*
Y2425D01*
X745D01*
Y2180D01*
D02*
G37*
%LPC*%
G36*
X725Y2350D02*
X700D01*
Y2305D01*
X725D01*
Y2350D01*
D02*
G37*
G36*
X620D02*
X595D01*
Y2305D01*
X620D01*
Y2350D01*
D02*
G37*
G36*
X876Y2161D02*
X868Y2160D01*
X861Y2155D01*
X856Y2148D01*
X855Y2140D01*
X856Y2132D01*
X861Y2125D01*
X868Y2120D01*
X876Y2119D01*
X884Y2120D01*
X891Y2125D01*
X896Y2132D01*
X898Y2140D01*
X896Y2148D01*
X891Y2155D01*
X884Y2160D01*
X876Y2161D01*
D02*
G37*
G36*
X960Y2156D02*
X952Y2155D01*
X945Y2150D01*
X940Y2143D01*
X939Y2135D01*
X940Y2127D01*
X945Y2120D01*
X950Y2116D01*
X948Y2111D01*
X937D01*
Y2110D01*
X966D01*
Y2111D01*
X967Y2113D01*
X969Y2116D01*
X975Y2120D01*
X980Y2127D01*
X981Y2135D01*
X980Y2143D01*
X975Y2150D01*
X968Y2155D01*
X960Y2156D01*
D02*
G37*
G36*
X966Y2030D02*
X937D01*
Y2029D01*
X966D01*
Y2030D01*
D02*
G37*
G36*
Y1571D02*
X937D01*
Y1570D01*
X966D01*
Y1571D01*
D02*
G37*
G36*
Y1490D02*
X937D01*
Y1489D01*
X966D01*
Y1490D01*
D02*
G37*
G36*
X1574Y2481D02*
X1545D01*
Y2480D01*
X1574D01*
Y2481D01*
D02*
G37*
G36*
X1465D02*
X1436D01*
Y2480D01*
X1465D01*
Y2481D01*
D02*
G37*
G36*
X1574Y2400D02*
X1545D01*
Y2399D01*
X1574D01*
Y2400D01*
D02*
G37*
G36*
X1465D02*
X1436D01*
Y2399D01*
X1465D01*
Y2400D01*
D02*
G37*
G36*
X1574Y2301D02*
X1545D01*
Y2300D01*
X1574D01*
Y2301D01*
D02*
G37*
G36*
X1465D02*
X1436D01*
Y2300D01*
X1465D01*
Y2301D01*
D02*
G37*
G36*
X1574Y2220D02*
X1545D01*
Y2219D01*
X1574D01*
Y2220D01*
D02*
G37*
G36*
X1465D02*
X1436D01*
Y2219D01*
X1465D01*
Y2220D01*
D02*
G37*
G36*
X1574Y2176D02*
X1545D01*
Y2175D01*
X1574D01*
Y2176D01*
D02*
G37*
G36*
X1465D02*
X1436D01*
Y2175D01*
X1465D01*
Y2176D01*
D02*
G37*
G36*
X1574Y2095D02*
X1545D01*
Y2094D01*
X1574D01*
Y2095D01*
D02*
G37*
G36*
X1465D02*
X1436D01*
Y2094D01*
X1465D01*
Y2095D01*
D02*
G37*
G36*
X1312Y2104D02*
X1220D01*
Y2020D01*
X1312D01*
Y2104D01*
D02*
G37*
G36*
X1140D02*
X1048D01*
Y2020D01*
X1140D01*
Y2104D01*
D02*
G37*
G36*
X1312Y1940D02*
X1220D01*
Y1856D01*
X1312D01*
Y1940D01*
D02*
G37*
G36*
X1140D02*
X1048D01*
Y1856D01*
X1140D01*
Y1940D01*
D02*
G37*
G36*
X1462Y1846D02*
X1433D01*
Y1845D01*
X1462D01*
Y1846D01*
D02*
G37*
G36*
Y1765D02*
X1433D01*
Y1764D01*
X1462D01*
Y1765D01*
D02*
G37*
G36*
X1312Y1744D02*
X1220D01*
Y1660D01*
X1312D01*
Y1744D01*
D02*
G37*
G36*
X1140D02*
X1048D01*
Y1660D01*
X1140D01*
Y1744D01*
D02*
G37*
G36*
X1571Y1666D02*
X1433D01*
Y1584D01*
X1485D01*
Y1555D01*
X1480Y1548D01*
X1479Y1540D01*
X1480Y1532D01*
X1485Y1525D01*
X1492Y1520D01*
X1500Y1519D01*
X1508Y1520D01*
X1515Y1525D01*
X1520Y1532D01*
X1521Y1540D01*
X1520Y1548D01*
X1515Y1555D01*
Y1584D01*
X1571D01*
Y1666D01*
D02*
G37*
G36*
X1312Y1580D02*
X1220D01*
Y1496D01*
X1312D01*
Y1580D01*
D02*
G37*
G36*
X1140D02*
X1048D01*
Y1496D01*
X1140D01*
Y1580D01*
D02*
G37*
G36*
X1571Y1491D02*
X1542D01*
Y1490D01*
X1571D01*
Y1491D01*
D02*
G37*
G36*
X1462D02*
X1433D01*
Y1490D01*
X1462D01*
Y1491D01*
D02*
G37*
G36*
X1571Y1410D02*
X1542D01*
Y1409D01*
X1571D01*
Y1410D01*
D02*
G37*
G36*
X1462D02*
X1433D01*
Y1409D01*
X1462D01*
Y1410D01*
D02*
G37*
G36*
X1571Y1311D02*
X1542D01*
Y1310D01*
X1571D01*
Y1311D01*
D02*
G37*
G36*
X1462D02*
X1433D01*
Y1310D01*
X1462D01*
Y1311D01*
D02*
G37*
G36*
X1571Y1230D02*
X1542D01*
Y1229D01*
X1571D01*
Y1230D01*
D02*
G37*
G36*
X1462D02*
X1433D01*
Y1229D01*
X1462D01*
Y1230D01*
D02*
G37*
G36*
X1920Y2474D02*
X1828D01*
Y2390D01*
X1920D01*
Y2474D01*
D02*
G37*
G36*
X1748D02*
X1656D01*
Y2390D01*
X1748D01*
Y2474D01*
D02*
G37*
G36*
X1920Y2310D02*
X1828D01*
Y2226D01*
X1920D01*
Y2310D01*
D02*
G37*
G36*
X1748D02*
X1656D01*
Y2226D01*
X1748D01*
Y2310D01*
D02*
G37*
G36*
X1920Y2169D02*
X1828D01*
Y2085D01*
X1920D01*
Y2169D01*
D02*
G37*
G36*
X2120Y2103D02*
Y2085D01*
X2138D01*
X2130Y2095D01*
X2120Y2103D01*
D02*
G37*
G36*
X2040D02*
X2030Y2095D01*
X2022Y2085D01*
X2040D01*
Y2103D01*
D02*
G37*
G36*
X1748Y2169D02*
X1656D01*
Y2085D01*
X1748D01*
Y2169D01*
D02*
G37*
G36*
X2138Y2005D02*
X2120D01*
Y1987D01*
X2130Y1995D01*
X2138Y2005D01*
D02*
G37*
G36*
X2040D02*
X2022D01*
X2030Y1995D01*
X2040Y1987D01*
Y2005D01*
D02*
G37*
G36*
X1920D02*
X1828D01*
Y1921D01*
X1920D01*
Y2005D01*
D02*
G37*
G36*
X1748D02*
X1656D01*
Y1921D01*
X1748D01*
Y2005D01*
D02*
G37*
G36*
X410Y1800D02*
X385D01*
Y1755D01*
X410D01*
Y1800D01*
D02*
G37*
G36*
X305D02*
X280D01*
Y1755D01*
X305D01*
Y1800D01*
D02*
G37*
G36*
X410Y1675D02*
X385D01*
Y1630D01*
X410D01*
Y1675D01*
D02*
G37*
G36*
X305D02*
X280D01*
Y1630D01*
X305D01*
Y1675D01*
D02*
G37*
G36*
X100Y1643D02*
Y1625D01*
X118D01*
X110Y1635D01*
X100Y1643D01*
D02*
G37*
G36*
X118Y1545D02*
X100D01*
Y1527D01*
X110Y1535D01*
X118Y1545D01*
D02*
G37*
G36*
X1917Y1839D02*
X1825D01*
Y1755D01*
X1917D01*
Y1839D01*
D02*
G37*
G36*
X2120Y1773D02*
Y1755D01*
X2138D01*
X2130Y1765D01*
X2120Y1773D01*
D02*
G37*
G36*
X2040D02*
X2030Y1765D01*
X2022Y1755D01*
X2040D01*
Y1773D01*
D02*
G37*
G36*
X1745Y1839D02*
X1653D01*
Y1755D01*
X1745D01*
Y1839D01*
D02*
G37*
G36*
X2138Y1675D02*
X2120D01*
Y1657D01*
X2130Y1665D01*
X2138Y1675D01*
D02*
G37*
G36*
X2040D02*
X2022D01*
X2030Y1665D01*
X2040Y1657D01*
Y1675D01*
D02*
G37*
G36*
X1917D02*
X1825D01*
Y1591D01*
X1917D01*
Y1675D01*
D02*
G37*
G36*
X1745D02*
X1653D01*
Y1591D01*
X1745D01*
Y1675D01*
D02*
G37*
G36*
X1917Y1484D02*
X1825D01*
Y1400D01*
X1917D01*
Y1484D01*
D02*
G37*
G36*
X1745D02*
X1653D01*
Y1400D01*
X1745D01*
Y1484D01*
D02*
G37*
G36*
X1917Y1320D02*
X1825D01*
Y1236D01*
X1917D01*
Y1320D01*
D02*
G37*
G36*
X1745D02*
X1653D01*
Y1236D01*
X1745D01*
Y1320D01*
D02*
G37*
%LPD*%
D16*
X2465Y1070D02*
Y1035D01*
X2482D01*
X2488Y1040D01*
Y1046D01*
X2482Y1052D01*
X2465D01*
X2482D01*
X2488Y1058D01*
Y1064D01*
X2482Y1070D01*
X2465D01*
X2506Y1035D02*
X2517D01*
X2523Y1040D01*
Y1052D01*
X2517Y1058D01*
X2506D01*
X2500Y1052D01*
Y1040D01*
X2506Y1035D01*
X2541Y1064D02*
Y1058D01*
X2535D01*
X2547D01*
X2541D01*
Y1040D01*
X2547Y1035D01*
X2570Y1064D02*
Y1058D01*
X2564D01*
X2576D01*
X2570D01*
Y1040D01*
X2576Y1035D01*
X2599D02*
X2611D01*
X2617Y1040D01*
Y1052D01*
X2611Y1058D01*
X2599D01*
X2593Y1052D01*
Y1040D01*
X2599Y1035D01*
X2628D02*
Y1058D01*
X2634D01*
X2640Y1052D01*
Y1035D01*
Y1052D01*
X2646Y1058D01*
X2652Y1052D01*
Y1035D01*
X2698Y1070D02*
Y1035D01*
X2722D01*
X2739Y1058D02*
X2751D01*
X2757Y1052D01*
Y1035D01*
X2739D01*
X2733Y1040D01*
X2739Y1046D01*
X2757D01*
X2768Y1058D02*
Y1040D01*
X2774Y1035D01*
X2792D01*
Y1029D01*
X2786Y1023D01*
X2780D01*
X2792Y1035D02*
Y1058D01*
X2821Y1035D02*
X2809D01*
X2803Y1040D01*
Y1052D01*
X2809Y1058D01*
X2821D01*
X2827Y1052D01*
Y1046D01*
X2803D01*
X2838Y1058D02*
Y1035D01*
Y1046D01*
X2844Y1052D01*
X2850Y1058D01*
X2856D01*
X2448Y2310D02*
X2425D01*
X2448Y2333D01*
Y2339D01*
X2442Y2345D01*
X2431D01*
X2425Y2339D01*
X2518Y2345D02*
X2507D01*
X2512D01*
Y2316D01*
X2507Y2310D01*
X2501D01*
X2495Y2316D01*
X2530Y2333D02*
Y2316D01*
X2536Y2310D01*
X2553D01*
Y2333D01*
X2565Y2310D02*
X2577D01*
X2571D01*
Y2345D01*
X2565D01*
X2594Y2333D02*
Y2316D01*
X2600Y2310D01*
X2617D01*
Y2304D01*
X2612Y2298D01*
X2606D01*
X2617Y2310D02*
Y2333D01*
X2687Y2310D02*
X2664D01*
X2687Y2333D01*
Y2339D01*
X2682Y2345D01*
X2670D01*
X2664Y2339D01*
X2699D02*
X2705Y2345D01*
X2717D01*
X2722Y2339D01*
Y2316D01*
X2717Y2310D01*
X2705D01*
X2699Y2316D01*
Y2339D01*
X2734Y2310D02*
X2746D01*
X2740D01*
Y2345D01*
X2734Y2339D01*
X2763Y2316D02*
X2769Y2310D01*
X2781D01*
X2787Y2316D01*
Y2339D01*
X2781Y2345D01*
X2769D01*
X2763Y2339D01*
Y2333D01*
X2769Y2327D01*
X2787D01*
X2425Y2420D02*
Y2455D01*
X2442D01*
X2448Y2449D01*
Y2437D01*
X2442Y2432D01*
X2425D01*
X2483Y2449D02*
X2477Y2455D01*
X2466D01*
X2460Y2449D01*
Y2426D01*
X2466Y2420D01*
X2477D01*
X2483Y2426D01*
X2495Y2455D02*
Y2420D01*
X2512D01*
X2518Y2426D01*
Y2432D01*
X2512Y2437D01*
X2495D01*
X2512D01*
X2518Y2443D01*
Y2449D01*
X2512Y2455D01*
X2495D01*
X2571Y2420D02*
Y2455D01*
X2582D02*
Y2420D01*
X2565Y2443D02*
X2582D01*
X2588D01*
X2565Y2432D02*
X2588D01*
X2600Y2449D02*
X2606Y2455D01*
X2617D01*
X2623Y2449D01*
Y2426D01*
X2617Y2420D01*
X2606D01*
X2600Y2426D01*
Y2449D01*
X2635D02*
X2641Y2455D01*
X2652D01*
X2658Y2449D01*
Y2426D01*
X2652Y2420D01*
X2641D01*
X2635Y2426D01*
Y2449D01*
X2693Y2420D02*
X2670D01*
X2693Y2443D01*
Y2449D01*
X2687Y2455D01*
X2676D01*
X2670Y2449D01*
X2705Y2437D02*
X2728D01*
X2740Y2449D02*
X2746Y2455D01*
X2757D01*
X2763Y2449D01*
Y2426D01*
X2757Y2420D01*
X2746D01*
X2740Y2426D01*
Y2449D01*
X2775D02*
X2781Y2455D01*
X2792D01*
X2798Y2449D01*
Y2426D01*
X2792Y2420D01*
X2781D01*
X2775Y2426D01*
Y2449D01*
X2810D02*
X2816Y2455D01*
X2827D01*
X2833Y2449D01*
Y2443D01*
X2827Y2437D01*
X2833Y2432D01*
Y2426D01*
X2827Y2420D01*
X2816D01*
X2810Y2426D01*
Y2432D01*
X2816Y2437D01*
X2810Y2443D01*
Y2449D01*
X2816Y2437D02*
X2827D01*
X2845Y2420D02*
X2857D01*
X2851D01*
Y2455D01*
X2845Y2449D01*
X2909Y2420D02*
Y2455D01*
X2927D01*
X2932Y2449D01*
Y2437D01*
X2927Y2432D01*
X2909D01*
X2921D02*
X2932Y2420D01*
X2961D02*
X2950D01*
X2944Y2426D01*
Y2437D01*
X2950Y2443D01*
X2961D01*
X2967Y2437D01*
Y2432D01*
X2944D01*
X2979Y2443D02*
X2991Y2420D01*
X3002Y2443D01*
X3049Y2437D02*
X3072D01*
D18*
X130Y1921D02*
D03*
Y2010D02*
D03*
D22*
X191Y1220D02*
D03*
X124D02*
D03*
X191Y1153D02*
D03*
X124D02*
D03*
D24*
X897Y1530D02*
D03*
Y1710D02*
D03*
X1502Y1270D02*
D03*
Y1450D02*
D03*
X1505Y2260D02*
D03*
Y2440D02*
D03*
X897Y1890D02*
D03*
Y2070D02*
D03*
X1502Y1625D02*
D03*
Y1805D02*
D03*
X1505Y1955D02*
D03*
Y2135D02*
D03*
X345Y2070D02*
D03*
Y1890D02*
D03*
D25*
X1180Y1620D02*
D03*
X1785Y1360D02*
D03*
X1788Y2350D02*
D03*
X1180Y1980D02*
D03*
X1785Y1715D02*
D03*
X1788Y2045D02*
D03*
X628Y1980D02*
D03*
D63*
X607Y675D02*
X760D01*
X964Y530D02*
Y583D01*
X1300Y625D02*
Y678D01*
X1195Y1188D02*
X1383D01*
X897Y1890D02*
X910Y1877D01*
Y1785D02*
Y1877D01*
Y1785D02*
X930Y1765D01*
X895Y1888D02*
X897Y1890D01*
X90Y1430D02*
X190D01*
X191Y1429D01*
X317Y1295D02*
X427Y1185D01*
X191Y1295D02*
X317D01*
X65Y1218D02*
X122D01*
X124Y1220D01*
X65Y1153D02*
X124D01*
X191D02*
Y1220D01*
Y1295D01*
X935Y822D02*
Y1005D01*
Y822D02*
X964Y793D01*
Y790D02*
Y793D01*
X989Y1044D02*
X1050Y1105D01*
X989Y790D02*
Y1044D01*
X134Y1925D02*
X160D01*
X130Y1921D02*
X134Y1925D01*
X160D02*
X180Y1945D01*
X208D01*
X210Y1943D01*
X217Y1910D02*
Y1936D01*
X210Y1943D02*
X217Y1936D01*
Y1910D02*
X232Y1895D01*
X235D01*
X278Y595D02*
X331D01*
X235Y1895D02*
X330D01*
X340Y1885D01*
X427Y1185D02*
X495D01*
X340Y1885D02*
X345Y1890D01*
X330Y1905D02*
X345Y1890D01*
X728Y711D02*
X769D01*
X774Y715D01*
X569Y870D02*
X728Y711D01*
X438Y870D02*
X569D01*
X362Y895D02*
X379Y877D01*
X487Y555D02*
X607Y675D01*
X180Y555D02*
X487D01*
X248Y625D02*
X278Y595D01*
X140Y1035D02*
X195D01*
X245Y625D02*
X248D01*
X331Y593D02*
Y595D01*
X280Y660D02*
X290D01*
X1383Y1188D02*
X1415Y1155D01*
Y840D02*
Y1155D01*
X1380Y805D02*
X1415Y840D01*
X1351Y805D02*
X1380D01*
X1015Y790D02*
Y885D01*
X989Y790D02*
X989Y790D01*
X1360Y745D02*
X1380Y725D01*
X290Y660D02*
X290Y660D01*
X1353Y923D02*
X1355Y925D01*
X1353Y882D02*
Y923D01*
X1351Y880D02*
X1353Y882D01*
X290Y660D02*
X331D01*
X150Y840D02*
X195D01*
X140Y850D02*
X150Y840D01*
X140Y850D02*
Y915D01*
X120Y935D02*
X140Y915D01*
X85Y935D02*
X120D01*
X405Y660D02*
Y903D01*
X379Y877D02*
Y877D01*
X331Y660D02*
X405D01*
X331Y593D02*
X405D01*
X85Y835D02*
X85Y835D01*
X47Y688D02*
Y879D01*
X52Y885D01*
X85D01*
X1584Y1955D02*
X1590Y1949D01*
Y1770D02*
Y1949D01*
X1505Y1955D02*
X1584D01*
X1520Y1700D02*
X1590Y1770D01*
X964Y650D02*
Y715D01*
X1500Y1540D02*
Y1623D01*
X1502Y1625D01*
X47Y688D02*
X180Y555D01*
X405Y903D02*
X438Y870D01*
X235Y840D02*
X270Y876D01*
Y897D01*
X276Y903D01*
X405D01*
X195Y840D02*
X235D01*
X379Y877D02*
X379D01*
X1380Y725D02*
X1410D01*
X1300Y745D02*
X1360D01*
X774Y715D02*
X964D01*
X1299Y746D02*
X1300Y745D01*
X1299Y746D02*
Y805D01*
X1045Y715D02*
X1210Y880D01*
X1299D01*
X1015Y715D02*
X1045D01*
X1345Y1025D02*
X1375D01*
X1325Y1005D02*
X1345Y1025D01*
X1325Y880D02*
Y1005D01*
X379Y877D02*
X405Y903D01*
X328Y895D02*
X362D01*
X305Y872D02*
X328Y895D01*
X305Y840D02*
Y872D01*
X228Y978D02*
X245Y995D01*
Y1170D02*
X260Y1185D01*
X245Y995D02*
Y1170D01*
X260Y1185D02*
X315D01*
X197Y978D02*
X228D01*
X195Y975D02*
X197Y978D01*
X195Y900D02*
Y975D01*
Y900D02*
X195Y900D01*
D64*
X350Y1545D02*
X375Y1520D01*
X350Y1545D02*
Y1710D01*
X345Y1715D02*
X350Y1710D01*
X535Y2250D02*
X655D01*
X660Y2255D01*
Y2265D01*
D66*
X208Y2012D02*
X210Y2010D01*
X130D02*
X132Y2008D01*
D67*
X1215Y2135D02*
X1505D01*
X1210Y2130D02*
X1215Y2135D01*
X1184Y1961D02*
X1191Y1974D01*
X1210Y2010D01*
X1000Y1739D02*
Y2040D01*
X1180Y1620D02*
Y1805D01*
X897Y2002D02*
Y2070D01*
X890Y1995D02*
X897Y2002D01*
X975Y2065D02*
X1000Y2040D01*
X903Y2065D02*
X975D01*
X971Y1710D02*
X1000Y1739D01*
X860Y1095D02*
X865Y1090D01*
X860Y1095D02*
Y1160D01*
X945Y1090D02*
Y1160D01*
X897Y1255D02*
X945Y1208D01*
Y1160D02*
Y1208D01*
X860Y1160D02*
Y1218D01*
X639Y1997D02*
X643Y1995D01*
X897Y2070D02*
X903Y2065D01*
X897Y1710D02*
X971D01*
X860Y1218D02*
X897Y1255D01*
Y1530D02*
Y1710D01*
X1180Y1300D02*
Y1620D01*
Y1300D02*
X1210Y1270D01*
X1502D02*
Y1450D01*
X1505Y2260D02*
Y2440D01*
X897Y1255D02*
Y1530D01*
X639Y1997D02*
X639D01*
X628Y2005D02*
X639Y1997D01*
X639D02*
X639Y1997D01*
X628Y1980D02*
Y2005D01*
X1180Y1805D02*
Y1957D01*
Y1805D02*
X1502D01*
X1180Y1957D02*
X1184Y1961D01*
X1210Y1270D02*
X1502D01*
X1210Y2010D02*
Y2130D01*
X1505Y2135D02*
Y2260D01*
X1788Y2045D02*
X2080D01*
X1785Y1715D02*
X2080D01*
X1785Y1360D02*
Y1715D01*
X1788Y2045D02*
Y2350D01*
D68*
X60Y2130D02*
D03*
Y1585D02*
D03*
X2080Y1715D02*
D03*
Y2045D02*
D03*
D69*
X700Y160D02*
D03*
X600D02*
D03*
D70*
X500D02*
D03*
D71*
X85Y935D02*
D03*
D72*
Y885D02*
D03*
Y835D02*
D03*
Y785D02*
D03*
D73*
X572Y695D02*
D03*
X760Y675D02*
D03*
X964Y530D02*
D03*
X1300Y625D02*
D03*
X876Y1825D02*
D03*
X930Y1765D02*
D03*
X876Y2140D02*
D03*
X65Y1218D02*
D03*
X795Y1080D02*
D03*
X935Y1005D02*
D03*
X1050Y1105D02*
D03*
X275Y1085D02*
D03*
X340Y1370D02*
D03*
X235Y1895D02*
D03*
X625Y1188D02*
D03*
X65Y1153D02*
D03*
X245Y625D02*
D03*
X544Y739D02*
D03*
X739Y737D02*
D03*
X485Y470D02*
D03*
X675Y380D02*
D03*
X1185Y1000D02*
D03*
X500Y738D02*
D03*
X565Y995D02*
D03*
X565Y940D02*
D03*
X140Y1035D02*
D03*
X280Y660D02*
D03*
X1195Y1190D02*
D03*
X960Y2135D02*
D03*
X1569Y600D02*
D03*
X1015Y885D02*
D03*
X245Y940D02*
D03*
X340Y425D02*
D03*
X1355Y925D02*
D03*
X876Y525D02*
D03*
X1185Y535D02*
D03*
X1569Y945D02*
D03*
X1520Y1700D02*
D03*
X1500Y1540D02*
D03*
X1410Y725D02*
D03*
X1375Y1025D02*
D03*
X774Y715D02*
D03*
D74*
X90Y1430D02*
D03*
X865Y1090D02*
D03*
X860Y1160D02*
D03*
X945Y1090D02*
D03*
Y1160D02*
D03*
X535Y2335D02*
D03*
X455D02*
D03*
X535Y2250D02*
D03*
X455D02*
D03*
D75*
X345Y1715D02*
D03*
X660D02*
D03*
Y2265D02*
D03*
X345D02*
D03*
D76*
X195Y975D02*
D03*
Y1035D02*
D03*
Y900D02*
D03*
Y840D02*
D03*
D77*
X1351Y805D02*
D03*
Y880D02*
D03*
X1325D02*
D03*
X1299D02*
D03*
Y805D02*
D03*
X1015Y715D02*
D03*
Y790D02*
D03*
X989D02*
D03*
X964D02*
D03*
Y715D02*
D03*
D78*
Y650D02*
D03*
Y583D02*
D03*
X405Y660D02*
D03*
Y593D02*
D03*
X331Y660D02*
D03*
Y593D02*
D03*
X1300Y678D02*
D03*
Y745D02*
D03*
X210Y1943D02*
D03*
Y2010D02*
D03*
D79*
X191Y1295D02*
D03*
Y1429D02*
D03*
D80*
X405Y903D02*
D03*
D81*
X495Y1185D02*
D03*
X315D02*
D03*
D82*
X643Y1995D02*
X890D01*
M02*
