G04*
G04 #@! TF.GenerationSoftware,Altium Limited,Altium Designer,19.0.10 (269)*
G04*
G04 Layer_Physical_Order=1*
G04 Layer_Color=255*
%FSLAX23Y23*%
%MOIN*%
G70*
G01*
G75*
%ADD14C,0.007*%
%ADD16C,0.008*%
%ADD18R,0.031X0.031*%
%ADD19R,0.055X0.041*%
%ADD20R,0.031X0.035*%
%ADD21R,0.091X0.091*%
%ADD22R,0.043X0.039*%
%ADD23R,0.150X0.110*%
%ADD24R,0.118X0.063*%
%ADD25R,0.244X0.228*%
%ADD26R,0.043X0.043*%
%ADD27R,0.026X0.022*%
%ADD28R,0.028X0.024*%
%ADD29R,0.043X0.043*%
%ADD30R,0.028X0.028*%
%ADD31R,0.028X0.028*%
%ADD32R,0.012X0.012*%
%ADD33R,0.028X0.012*%
%ADD34R,0.012X0.012*%
%ADD35R,0.012X0.028*%
%ADD36R,0.022X0.057*%
%ADD37R,0.022X0.057*%
%ADD63C,0.010*%
%ADD64C,0.100*%
%ADD65C,0.015*%
%ADD66C,0.025*%
%ADD67C,0.050*%
%ADD68C,0.120*%
%ADD69C,0.062*%
%ADD70R,0.062X0.062*%
%ADD71R,0.035X0.035*%
%ADD72C,0.035*%
%ADD73C,0.022*%
%ADD74C,0.050*%
G36*
X1197Y2511D02*
Y2484D01*
X1115D01*
Y2360D01*
Y2236D01*
X1197D01*
Y1891D01*
X1198Y1888D01*
X1200Y1884D01*
X1203Y1882D01*
X1205Y1882D01*
X1205Y1882D01*
X1205Y1880D01*
X1205Y1879D01*
Y1564D01*
X1204Y1559D01*
X1200Y1559D01*
X1112D01*
Y1435D01*
Y1311D01*
X1200D01*
X1204Y1311D01*
X1205Y1306D01*
Y1216D01*
X850D01*
Y1385D01*
X854Y1386D01*
X857Y1388D01*
X859Y1391D01*
X860Y1395D01*
Y1804D01*
X865Y1807D01*
X868Y1805D01*
X876Y1804D01*
X884Y1805D01*
X891Y1810D01*
X896Y1817D01*
X898Y1825D01*
X908Y1835D01*
X1003D01*
Y1809D01*
X1141D01*
Y1891D01*
X1003D01*
Y1865D01*
X901D01*
X895Y1864D01*
X890Y1861D01*
X876Y1846D01*
X868Y1845D01*
X865Y1843D01*
X860Y1846D01*
Y2119D01*
X865Y2122D01*
X868Y2120D01*
X876Y2119D01*
X884Y2120D01*
X891Y2125D01*
X896Y2132D01*
X898Y2140D01*
X896Y2148D01*
X891Y2155D01*
X884Y2160D01*
X876Y2161D01*
X868Y2160D01*
X865Y2158D01*
X860Y2161D01*
Y2355D01*
X859Y2359D01*
X857Y2362D01*
X854Y2364D01*
X850Y2365D01*
Y2366D01*
X685D01*
X684Y2369D01*
X682Y2373D01*
X679Y2375D01*
X675Y2376D01*
X560D01*
X560Y2376D01*
X560Y2376D01*
X558Y2375D01*
X557Y2375D01*
X556Y2375D01*
X556Y2375D01*
X555Y2374D01*
X553Y2373D01*
X553Y2373D01*
X553Y2372D01*
X552Y2371D01*
X551Y2369D01*
X546Y2368D01*
X544Y2369D01*
X535Y2370D01*
X526Y2369D01*
X524Y2368D01*
X519Y2369D01*
X518Y2371D01*
X517Y2372D01*
X517Y2373D01*
X517Y2373D01*
X515Y2374D01*
X514Y2375D01*
X514Y2375D01*
X513Y2375D01*
X512Y2375D01*
X510Y2376D01*
X510Y2376D01*
X510Y2376D01*
X480D01*
X480Y2376D01*
X480Y2376D01*
X478Y2375D01*
X477Y2375D01*
X476Y2375D01*
X476Y2375D01*
X475Y2374D01*
X473Y2373D01*
X473Y2373D01*
X473Y2372D01*
X472Y2371D01*
X471Y2369D01*
X466Y2368D01*
X464Y2369D01*
X455Y2370D01*
X446Y2369D01*
X444Y2368D01*
X439Y2369D01*
X438Y2371D01*
X437Y2372D01*
X437Y2373D01*
X437Y2373D01*
X435Y2374D01*
X434Y2375D01*
X434Y2375D01*
X433Y2375D01*
X432Y2375D01*
X430Y2376D01*
X430Y2376D01*
X430Y2376D01*
X-5D01*
Y2510D01*
X172Y2511D01*
X175Y2507D01*
Y2490D01*
X260D01*
X345D01*
Y2511D01*
X662Y2513D01*
X665Y2509D01*
Y2490D01*
X750D01*
X835D01*
Y2513D01*
X1193Y2515D01*
X1197Y2511D01*
D02*
G37*
G36*
X675Y2200D02*
X665D01*
Y2070D01*
X675D01*
Y2060D01*
X395D01*
Y2055D01*
X391D01*
Y1945D01*
X395D01*
Y1758D01*
X-10D01*
Y2100D01*
X-9Y2100D01*
X-3Y2099D01*
X2Y2091D01*
X10Y2080D01*
X20Y2072D01*
Y2130D01*
Y2188D01*
X10Y2180D01*
X2Y2169D01*
X-3Y2161D01*
X-9Y2160D01*
X-10Y2160D01*
Y2366D01*
X430D01*
X431Y2361D01*
X430Y2360D01*
X424Y2353D01*
X421Y2344D01*
X420Y2335D01*
X490D01*
X489Y2344D01*
X486Y2353D01*
X480Y2360D01*
X479Y2361D01*
X480Y2366D01*
X510D01*
X511Y2361D01*
X510Y2360D01*
X504Y2353D01*
X501Y2344D01*
X500Y2335D01*
X570D01*
X569Y2344D01*
X566Y2353D01*
X560Y2360D01*
X559Y2361D01*
X560Y2366D01*
X675D01*
Y2200D01*
D02*
G37*
G36*
X2160Y1891D02*
X1623D01*
Y1922D01*
X1638D01*
Y1983D01*
X1562D01*
Y1922D01*
X1577D01*
Y1891D01*
X1207D01*
Y2236D01*
Y2484D01*
Y2515D01*
X2160D01*
Y1891D01*
D02*
G37*
G36*
X850Y1395D02*
X110Y1395D01*
X109Y1397D01*
X108Y1400D01*
X115Y1405D01*
X121Y1412D01*
X124Y1421D01*
X125Y1430D01*
X124Y1439D01*
X121Y1448D01*
X115Y1455D01*
X108Y1461D01*
X99Y1464D01*
X90Y1465D01*
X81Y1464D01*
X72Y1461D01*
X65Y1455D01*
X59Y1448D01*
X56Y1439D01*
X55Y1430D01*
X56Y1421D01*
X59Y1412D01*
X65Y1405D01*
X72Y1400D01*
X71Y1397D01*
X70Y1395D01*
X-10D01*
Y1555D01*
X-9Y1555D01*
X-3Y1554D01*
X2Y1546D01*
X10Y1535D01*
X20Y1527D01*
Y1585D01*
Y1643D01*
X10Y1635D01*
X2Y1624D01*
X-3Y1616D01*
X-9Y1615D01*
X-10Y1615D01*
Y1747D01*
X395D01*
X399Y1748D01*
X402Y1750D01*
X404Y1754D01*
X405Y1758D01*
Y1874D01*
X473D01*
Y1870D01*
X537D01*
Y1870D01*
X540D01*
Y1870D01*
X604D01*
Y1874D01*
X675D01*
Y1945D01*
X679D01*
Y2051D01*
X682Y2053D01*
X684Y2056D01*
X685Y2060D01*
Y2070D01*
X710D01*
Y2135D01*
Y2200D01*
X685D01*
Y2355D01*
X850D01*
Y1395D01*
D02*
G37*
G36*
X2160Y1205D02*
X1215D01*
Y1879D01*
X1219Y1880D01*
X1223Y1876D01*
Y1800D01*
X1355D01*
X1487D01*
Y1881D01*
X1577D01*
Y1863D01*
X1562D01*
Y1802D01*
X1638D01*
Y1863D01*
X1623D01*
Y1881D01*
X2160D01*
Y1205D01*
D02*
G37*
G36*
X707Y561D02*
X703D01*
Y568D01*
X715D01*
X707Y561D01*
D02*
G37*
G36*
X637D02*
X633D01*
X625Y568D01*
X637D01*
Y561D01*
D02*
G37*
G36*
X723Y549D02*
X715D01*
Y553D01*
X723Y561D01*
Y549D01*
D02*
G37*
G36*
X625Y553D02*
Y549D01*
X617D01*
Y561D01*
X625Y553D01*
D02*
G37*
G36*
X723Y470D02*
X715Y478D01*
Y482D01*
X723D01*
Y470D01*
D02*
G37*
G36*
X625Y478D02*
X617Y470D01*
Y482D01*
X625D01*
Y478D01*
D02*
G37*
G36*
X715Y462D02*
X703D01*
Y470D01*
X707D01*
X715Y462D01*
D02*
G37*
G36*
X637D02*
X625D01*
X633Y470D01*
X637D01*
Y462D01*
D02*
G37*
%LPC*%
G36*
X1035Y2484D02*
X943D01*
Y2400D01*
X1035D01*
Y2484D01*
D02*
G37*
G36*
X835Y2410D02*
X790D01*
Y2385D01*
X835D01*
Y2410D01*
D02*
G37*
G36*
X710D02*
X665D01*
Y2385D01*
X710D01*
Y2410D01*
D02*
G37*
G36*
X345D02*
X300D01*
Y2385D01*
X345D01*
Y2410D01*
D02*
G37*
G36*
X220D02*
X175D01*
Y2385D01*
X220D01*
Y2410D01*
D02*
G37*
G36*
X1035Y2320D02*
X943D01*
Y2236D01*
X1035D01*
Y2320D01*
D02*
G37*
G36*
X1141Y2181D02*
X1003D01*
Y2150D01*
X975D01*
X968Y2155D01*
X960Y2156D01*
X952Y2155D01*
X945Y2150D01*
X940Y2143D01*
X939Y2135D01*
X940Y2127D01*
X945Y2120D01*
X952Y2115D01*
X960Y2114D01*
X968Y2115D01*
X975Y2120D01*
X1003D01*
Y2099D01*
X1141D01*
Y2181D01*
D02*
G37*
G36*
Y2001D02*
X1112D01*
Y2000D01*
X1141D01*
Y2001D01*
D02*
G37*
G36*
X1032D02*
X1003D01*
Y2000D01*
X1032D01*
Y2001D01*
D02*
G37*
G36*
X1141Y1920D02*
X1112D01*
Y1919D01*
X1141D01*
Y1920D01*
D02*
G37*
G36*
X1032D02*
X1003D01*
Y1919D01*
X1032D01*
Y1920D01*
D02*
G37*
G36*
X930Y1786D02*
X922Y1785D01*
X915Y1780D01*
X910Y1773D01*
X909Y1765D01*
X910Y1757D01*
X915Y1750D01*
X922Y1745D01*
X930Y1744D01*
X938Y1745D01*
X945Y1750D01*
X950Y1757D01*
X951Y1765D01*
X950Y1773D01*
X945Y1780D01*
X938Y1785D01*
X930Y1786D01*
D02*
G37*
G36*
X1141Y1711D02*
X1112D01*
Y1710D01*
X1141D01*
Y1711D01*
D02*
G37*
G36*
X1032D02*
X1003D01*
Y1710D01*
X1032D01*
Y1711D01*
D02*
G37*
G36*
X1141Y1630D02*
X1112D01*
Y1629D01*
X1141D01*
Y1630D01*
D02*
G37*
G36*
X1032D02*
X1003D01*
Y1629D01*
X1032D01*
Y1630D01*
D02*
G37*
G36*
Y1559D02*
X940D01*
Y1475D01*
X1032D01*
Y1559D01*
D02*
G37*
G36*
Y1395D02*
X940D01*
Y1311D01*
X1032D01*
Y1395D01*
D02*
G37*
G36*
X345Y2200D02*
X300D01*
Y2175D01*
X345D01*
Y2200D01*
D02*
G37*
G36*
X220D02*
X175D01*
Y2175D01*
X220D01*
Y2200D01*
D02*
G37*
G36*
X100Y2188D02*
Y2170D01*
X118D01*
X110Y2180D01*
X100Y2188D01*
D02*
G37*
G36*
X118Y2090D02*
X100D01*
Y2072D01*
X110Y2080D01*
X118Y2090D01*
D02*
G37*
G36*
X345Y2095D02*
X300D01*
Y2070D01*
X345D01*
Y2095D01*
D02*
G37*
G36*
X220D02*
X175D01*
Y2070D01*
X220D01*
Y2095D01*
D02*
G37*
G36*
X235Y1916D02*
X227Y1915D01*
X220Y1910D01*
X215Y1903D01*
X214Y1895D01*
X215Y1887D01*
X220Y1880D01*
X227Y1875D01*
X235Y1874D01*
X243Y1875D01*
X250Y1880D01*
X255Y1887D01*
X256Y1895D01*
X255Y1903D01*
X250Y1910D01*
X243Y1915D01*
X235Y1916D01*
D02*
G37*
G36*
X1427Y2491D02*
X1398D01*
Y2490D01*
X1427D01*
Y2491D01*
D02*
G37*
G36*
X1318D02*
X1289D01*
Y2490D01*
X1318D01*
Y2491D01*
D02*
G37*
G36*
X1427Y2410D02*
X1398D01*
Y2409D01*
X1427D01*
Y2410D01*
D02*
G37*
G36*
X1318D02*
X1289D01*
Y2409D01*
X1318D01*
Y2410D01*
D02*
G37*
G36*
X1427Y2311D02*
X1398D01*
Y2310D01*
X1427D01*
Y2311D01*
D02*
G37*
G36*
X1318D02*
X1289D01*
Y2310D01*
X1318D01*
Y2311D01*
D02*
G37*
G36*
X1427Y2230D02*
X1398D01*
Y2229D01*
X1427D01*
Y2230D01*
D02*
G37*
G36*
X1318D02*
X1289D01*
Y2229D01*
X1318D01*
Y2230D01*
D02*
G37*
G36*
X1487Y2174D02*
X1395D01*
Y2090D01*
X1487D01*
Y2174D01*
D02*
G37*
G36*
X1315D02*
X1223D01*
Y2090D01*
X1315D01*
Y2174D01*
D02*
G37*
G36*
X2120Y2103D02*
Y2085D01*
X2138D01*
X2130Y2095D01*
X2120Y2103D01*
D02*
G37*
G36*
X2040D02*
X2030Y2095D01*
X2022Y2085D01*
X2040D01*
Y2103D01*
D02*
G37*
G36*
X2138Y2005D02*
X2120D01*
Y1987D01*
X2130Y1995D01*
X2138Y2005D01*
D02*
G37*
G36*
X2040D02*
X2022D01*
X2030Y1995D01*
X2040Y1987D01*
Y2005D01*
D02*
G37*
G36*
X1487Y2010D02*
X1395D01*
Y1926D01*
X1487D01*
Y2010D01*
D02*
G37*
G36*
X1315D02*
X1223D01*
Y1926D01*
X1315D01*
Y2010D01*
D02*
G37*
G36*
X835Y2200D02*
X790D01*
Y2175D01*
X835D01*
Y2200D01*
D02*
G37*
G36*
Y2095D02*
X790D01*
Y2070D01*
X835D01*
Y2095D01*
D02*
G37*
G36*
X100Y1643D02*
Y1625D01*
X118D01*
X110Y1635D01*
X100Y1643D01*
D02*
G37*
G36*
X118Y1545D02*
X100D01*
Y1527D01*
X110Y1535D01*
X118Y1545D01*
D02*
G37*
G36*
X2120Y1773D02*
Y1755D01*
X2138D01*
X2130Y1765D01*
X2120Y1773D01*
D02*
G37*
G36*
X2040D02*
X2030Y1765D01*
X2022Y1755D01*
X2040D01*
Y1773D01*
D02*
G37*
G36*
X1520Y1721D02*
X1512Y1720D01*
X1505Y1715D01*
X1500Y1708D01*
X1499Y1700D01*
X1500Y1692D01*
X1505Y1685D01*
X1512Y1680D01*
X1520Y1679D01*
X1528Y1680D01*
X1535Y1685D01*
X1540Y1692D01*
X1541Y1700D01*
X1540Y1708D01*
X1535Y1715D01*
X1528Y1720D01*
X1520Y1721D01*
D02*
G37*
G36*
X2138Y1675D02*
X2120D01*
Y1657D01*
X2130Y1665D01*
X2138Y1675D01*
D02*
G37*
G36*
X2040D02*
X2022D01*
X2030Y1665D01*
X2040Y1657D01*
Y1675D01*
D02*
G37*
G36*
X1487Y1720D02*
X1395D01*
Y1636D01*
X1487D01*
Y1720D01*
D02*
G37*
G36*
X1315D02*
X1223D01*
Y1636D01*
X1315D01*
Y1720D01*
D02*
G37*
G36*
X1424Y1566D02*
X1395D01*
Y1565D01*
X1424D01*
Y1566D01*
D02*
G37*
G36*
X1315D02*
X1286D01*
Y1565D01*
X1315D01*
Y1566D01*
D02*
G37*
G36*
X1500Y1561D02*
X1492Y1560D01*
X1485Y1555D01*
X1480Y1548D01*
X1479Y1540D01*
X1480Y1532D01*
X1485Y1525D01*
X1492Y1520D01*
X1500Y1519D01*
X1508Y1520D01*
X1515Y1525D01*
X1520Y1532D01*
X1521Y1540D01*
X1520Y1548D01*
X1515Y1555D01*
X1508Y1560D01*
X1500Y1561D01*
D02*
G37*
G36*
X1424Y1485D02*
X1395D01*
Y1484D01*
X1424D01*
Y1485D01*
D02*
G37*
G36*
X1315D02*
X1286D01*
Y1484D01*
X1315D01*
Y1485D01*
D02*
G37*
G36*
X1424Y1386D02*
X1395D01*
Y1385D01*
X1424D01*
Y1386D01*
D02*
G37*
G36*
X1315D02*
X1286D01*
Y1385D01*
X1315D01*
Y1386D01*
D02*
G37*
G36*
X1424Y1305D02*
X1395D01*
Y1304D01*
X1424D01*
Y1305D01*
D02*
G37*
G36*
X1315D02*
X1286D01*
Y1304D01*
X1315D01*
Y1305D01*
D02*
G37*
%LPD*%
D14*
X535Y468D02*
Y496D01*
X526Y1312D02*
Y1325D01*
X765Y495D02*
X805Y455D01*
X722Y495D02*
X765D01*
X535Y496D02*
X619D01*
X721D02*
X722Y495D01*
X455Y1270D02*
X462Y1278D01*
X512Y1298D02*
X526Y1312D01*
X462Y1278D02*
Y1290D01*
X470Y1298D02*
X512D01*
X462Y1290D02*
X470Y1298D01*
X410Y1270D02*
X455D01*
X526Y1325D02*
X542Y1340D01*
X567D01*
D16*
X2460Y1180D02*
X2483D01*
X2472D01*
Y1145D01*
X2501D02*
X2512D01*
X2518Y1151D01*
Y1162D01*
X2512Y1168D01*
X2501D01*
X2495Y1162D01*
Y1151D01*
X2501Y1145D01*
X2530Y1133D02*
Y1168D01*
X2547D01*
X2553Y1162D01*
Y1151D01*
X2547Y1145D01*
X2530D01*
X2600Y1180D02*
Y1145D01*
X2623D01*
X2641Y1168D02*
X2652D01*
X2658Y1162D01*
Y1145D01*
X2641D01*
X2635Y1151D01*
X2641Y1157D01*
X2658D01*
X2670Y1168D02*
Y1151D01*
X2676Y1145D01*
X2693D01*
Y1139D01*
X2687Y1133D01*
X2682D01*
X2693Y1145D02*
Y1168D01*
X2722Y1145D02*
X2711D01*
X2705Y1151D01*
Y1162D01*
X2711Y1168D01*
X2722D01*
X2728Y1162D01*
Y1157D01*
X2705D01*
X2740Y1168D02*
Y1145D01*
Y1157D01*
X2746Y1162D01*
X2752Y1168D01*
X2757D01*
X2448Y2310D02*
X2425D01*
X2448Y2333D01*
Y2339D01*
X2442Y2345D01*
X2431D01*
X2425Y2339D01*
X2518Y2345D02*
X2507D01*
X2512D01*
Y2316D01*
X2507Y2310D01*
X2501D01*
X2495Y2316D01*
X2530Y2333D02*
Y2316D01*
X2536Y2310D01*
X2553D01*
Y2333D01*
X2565Y2310D02*
X2577D01*
X2571D01*
Y2345D01*
X2565D01*
X2594Y2333D02*
Y2316D01*
X2600Y2310D01*
X2617D01*
Y2304D01*
X2612Y2298D01*
X2606D01*
X2617Y2310D02*
Y2333D01*
X2687Y2310D02*
X2664D01*
X2687Y2333D01*
Y2339D01*
X2682Y2345D01*
X2670D01*
X2664Y2339D01*
X2699D02*
X2705Y2345D01*
X2717D01*
X2722Y2339D01*
Y2316D01*
X2717Y2310D01*
X2705D01*
X2699Y2316D01*
Y2339D01*
X2734Y2310D02*
X2746D01*
X2740D01*
Y2345D01*
X2734Y2339D01*
X2763Y2316D02*
X2769Y2310D01*
X2781D01*
X2787Y2316D01*
Y2339D01*
X2781Y2345D01*
X2769D01*
X2763Y2339D01*
Y2333D01*
X2769Y2327D01*
X2787D01*
X2425Y2420D02*
Y2455D01*
X2442D01*
X2448Y2449D01*
Y2437D01*
X2442Y2432D01*
X2425D01*
X2483Y2449D02*
X2477Y2455D01*
X2466D01*
X2460Y2449D01*
Y2426D01*
X2466Y2420D01*
X2477D01*
X2483Y2426D01*
X2495Y2455D02*
Y2420D01*
X2512D01*
X2518Y2426D01*
Y2432D01*
X2512Y2437D01*
X2495D01*
X2512D01*
X2518Y2443D01*
Y2449D01*
X2512Y2455D01*
X2495D01*
X2571Y2420D02*
Y2455D01*
X2582D02*
Y2420D01*
X2565Y2443D02*
X2582D01*
X2588D01*
X2565Y2432D02*
X2588D01*
X2600Y2449D02*
X2606Y2455D01*
X2617D01*
X2623Y2449D01*
Y2426D01*
X2617Y2420D01*
X2606D01*
X2600Y2426D01*
Y2449D01*
X2635D02*
X2641Y2455D01*
X2652D01*
X2658Y2449D01*
Y2426D01*
X2652Y2420D01*
X2641D01*
X2635Y2426D01*
Y2449D01*
X2693Y2420D02*
X2670D01*
X2693Y2443D01*
Y2449D01*
X2687Y2455D01*
X2676D01*
X2670Y2449D01*
X2705Y2437D02*
X2728D01*
X2740Y2449D02*
X2746Y2455D01*
X2757D01*
X2763Y2449D01*
Y2426D01*
X2757Y2420D01*
X2746D01*
X2740Y2426D01*
Y2449D01*
X2775D02*
X2781Y2455D01*
X2792D01*
X2798Y2449D01*
Y2426D01*
X2792Y2420D01*
X2781D01*
X2775Y2426D01*
Y2449D01*
X2810D02*
X2816Y2455D01*
X2827D01*
X2833Y2449D01*
Y2443D01*
X2827Y2437D01*
X2833Y2432D01*
Y2426D01*
X2827Y2420D01*
X2816D01*
X2810Y2426D01*
Y2432D01*
X2816Y2437D01*
X2810Y2443D01*
Y2449D01*
X2816Y2437D02*
X2827D01*
X2845Y2420D02*
X2857D01*
X2851D01*
Y2455D01*
X2845Y2449D01*
X2909Y2420D02*
Y2455D01*
X2927D01*
X2932Y2449D01*
Y2437D01*
X2927Y2432D01*
X2909D01*
X2921D02*
X2932Y2420D01*
X2961D02*
X2950D01*
X2944Y2426D01*
Y2437D01*
X2950Y2443D01*
X2961D01*
X2967Y2437D01*
Y2432D01*
X2944D01*
X2979Y2443D02*
X2991Y2420D01*
X3002Y2443D01*
X3049Y2437D02*
X3072D01*
D18*
X390Y907D02*
D03*
Y995D02*
D03*
X635Y951D02*
D03*
Y1040D02*
D03*
D19*
X1600Y1832D02*
D03*
Y1758D02*
D03*
Y2027D02*
D03*
Y1953D02*
D03*
D20*
X634Y835D02*
D03*
X560D02*
D03*
X597Y756D02*
D03*
X484Y835D02*
D03*
X410D02*
D03*
X447Y756D02*
D03*
D21*
X447Y2000D02*
D03*
X624D02*
D03*
D22*
X505Y1900D02*
D03*
X572D02*
D03*
D23*
X750Y2450D02*
D03*
Y2135D02*
D03*
X260Y2450D02*
D03*
Y2135D02*
D03*
D24*
X1358Y2270D02*
D03*
Y2450D02*
D03*
X1355Y1345D02*
D03*
Y1525D02*
D03*
X1072Y2140D02*
D03*
Y1960D02*
D03*
Y1850D02*
D03*
Y1670D02*
D03*
D25*
X1075Y2360D02*
D03*
X1072Y1435D02*
D03*
X1355Y2050D02*
D03*
Y1760D02*
D03*
D26*
X495Y1130D02*
D03*
X565D02*
D03*
D27*
X670Y650D02*
D03*
Y610D02*
D03*
X624Y650D02*
D03*
Y610D02*
D03*
X445Y555D02*
D03*
Y595D02*
D03*
X494Y555D02*
D03*
Y595D02*
D03*
X780Y555D02*
D03*
Y594D02*
D03*
D28*
X876Y738D02*
D03*
Y813D02*
D03*
X774Y775D02*
D03*
X1409Y782D02*
D03*
X1511Y820D02*
D03*
Y745D02*
D03*
X1084Y780D02*
D03*
X1186Y817D02*
D03*
Y743D02*
D03*
D29*
X705Y790D02*
D03*
Y860D02*
D03*
X720Y1040D02*
D03*
Y969D02*
D03*
X1511Y875D02*
D03*
Y945D02*
D03*
X1511Y670D02*
D03*
Y600D02*
D03*
X310Y995D02*
D03*
Y925D02*
D03*
X335Y825D02*
D03*
Y754D02*
D03*
X876Y660D02*
D03*
Y590D02*
D03*
X876Y875D02*
D03*
Y945D02*
D03*
X1185Y665D02*
D03*
Y594D02*
D03*
X1186Y875D02*
D03*
Y945D02*
D03*
X410Y1270D02*
D03*
Y1341D02*
D03*
X410Y1130D02*
D03*
Y1201D02*
D03*
D30*
X544Y594D02*
D03*
Y555D02*
D03*
X575Y380D02*
D03*
Y420D02*
D03*
X630Y380D02*
D03*
Y420D02*
D03*
D31*
X530Y468D02*
D03*
X570D02*
D03*
D32*
X611Y555D02*
D03*
Y476D02*
D03*
X729D02*
D03*
Y555D02*
D03*
D33*
X619Y535D02*
D03*
Y515D02*
D03*
Y496D02*
D03*
X721D02*
D03*
Y515D02*
D03*
Y535D02*
D03*
D34*
X631Y456D02*
D03*
X709D02*
D03*
Y574D02*
D03*
X631D02*
D03*
D35*
X650Y464D02*
D03*
X670D02*
D03*
X690D02*
D03*
Y566D02*
D03*
X670D02*
D03*
X650D02*
D03*
D36*
X567Y1340D02*
D03*
Y1255D02*
D03*
X493Y1340D02*
D03*
X530Y1255D02*
D03*
D37*
X493Y1255D02*
D03*
D63*
X572Y695D02*
X590D01*
X572D02*
X618D01*
X690Y650D02*
X739Y699D01*
X670Y650D02*
X690D01*
X760Y675D02*
X780Y655D01*
X739Y699D02*
Y737D01*
X310Y879D02*
Y925D01*
X1185Y535D02*
Y594D01*
X876Y1825D02*
X901Y1850D01*
X1072D01*
X795Y994D02*
Y1080D01*
X770Y969D02*
X795Y994D01*
X720Y969D02*
X770D01*
X860Y1049D02*
Y1090D01*
X935Y890D02*
Y1005D01*
X1050Y920D02*
Y1105D01*
Y920D02*
X1095Y875D01*
X275Y1085D02*
X310Y1050D01*
Y995D02*
Y1050D01*
X635Y380D02*
X675D01*
X630Y386D02*
X635Y380D01*
X486Y469D02*
X534D01*
X625Y1153D02*
Y1231D01*
X602Y1130D02*
X625Y1153D01*
X245Y940D02*
X260Y925D01*
X310D01*
X600Y1255D02*
X625Y1231D01*
X544Y772D02*
X562Y790D01*
X544Y594D02*
Y739D01*
Y772D01*
X668Y605D02*
X670D01*
X664Y592D02*
X670Y598D01*
X659Y592D02*
X664D01*
X651Y584D02*
X659Y592D01*
X651Y575D02*
Y584D01*
X651Y574D02*
X651Y575D01*
X670Y598D02*
Y610D01*
X670Y610D02*
X670Y610D01*
X623Y606D02*
X624D01*
Y592D02*
Y605D01*
X623Y606D02*
X624Y605D01*
Y592D02*
X631Y585D01*
Y574D02*
Y585D01*
Y574D02*
X631Y574D01*
X618Y695D02*
X624Y689D01*
Y650D02*
Y689D01*
X624Y650D02*
X624Y650D01*
X621Y645D02*
X623D01*
X485Y470D02*
X486Y469D01*
X576Y469D02*
X590D01*
X575Y468D02*
X576Y469D01*
X590D02*
X597Y476D01*
X611D01*
X534Y469D02*
X535Y468D01*
X575D02*
X576Y466D01*
X345Y420D02*
X575D01*
X340Y425D02*
X345Y420D01*
X630Y380D02*
X635D01*
X575D02*
X630D01*
X630Y385D02*
X630Y386D01*
X575Y420D02*
X630D01*
X675Y380D02*
Y380D01*
X463Y660D02*
X495Y628D01*
Y602D02*
Y628D01*
X1185Y947D02*
Y1000D01*
Y947D02*
X1186Y945D01*
X1032Y1201D02*
X1072Y1241D01*
Y1435D01*
X796Y1201D02*
X1032D01*
X720Y1125D02*
X796Y1201D01*
X720Y1040D02*
Y1125D01*
X500Y738D02*
Y765D01*
X454Y811D02*
X500Y765D01*
X454Y811D02*
Y817D01*
X435Y835D02*
X454Y817D01*
X410Y835D02*
X435D01*
X410Y835D02*
X410Y835D01*
X310Y879D02*
X335Y854D01*
Y825D02*
Y854D01*
Y825D02*
X335Y825D01*
X445Y754D02*
X447Y756D01*
X335Y754D02*
X445D01*
X345Y760D02*
X346Y761D01*
X562Y790D02*
Y833D01*
X560Y835D02*
X562Y833D01*
X565Y900D02*
Y940D01*
Y900D02*
X580Y885D01*
X628D01*
X634Y879D01*
Y835D02*
Y879D01*
X484Y954D02*
X525Y995D01*
X565D01*
X484Y835D02*
Y954D01*
X720Y915D02*
Y969D01*
X705Y900D02*
X720Y915D01*
X705Y860D02*
Y900D01*
X680Y966D02*
X683Y969D01*
X680Y966D02*
Y966D01*
X683Y969D02*
X720D01*
X666Y951D02*
X680Y966D01*
X635Y951D02*
X666D01*
X510Y1064D02*
Y1065D01*
Y1064D02*
X534Y1040D01*
X635D01*
X720D01*
X860Y1049D02*
X876Y1032D01*
X729Y476D02*
X739D01*
X280Y660D02*
X463D01*
X494Y1081D02*
X510Y1065D01*
X494Y1081D02*
Y1130D01*
X390Y995D02*
Y1050D01*
X410Y1070D01*
Y1130D01*
X494D01*
X960Y2135D02*
X1067D01*
X1072Y2140D01*
X1511Y600D02*
X1569D01*
X804Y516D02*
X815Y527D01*
X727Y516D02*
X804D01*
X790Y425D02*
X1265D01*
X739Y476D02*
X790Y425D01*
X805Y455D02*
X965D01*
X876Y525D02*
Y590D01*
X1512Y945D02*
X1569D01*
X1511Y945D02*
X1512Y945D01*
X1095Y875D02*
X1186D01*
X1186Y875D01*
X342Y925D02*
X359Y907D01*
X310Y925D02*
X342D01*
X125Y595D02*
X445D01*
Y555D02*
X445Y555D01*
X502D01*
X503Y555D01*
X544D01*
X544Y555D01*
X575D02*
X575Y555D01*
X544Y555D02*
X575D01*
X575Y555D02*
X611D01*
X1375Y1025D02*
X1410D01*
X1470Y965D01*
Y880D02*
Y965D01*
Y880D02*
X1476Y875D01*
X1511D01*
X1507Y870D02*
X1511Y875D01*
X610Y475D02*
X611Y476D01*
X815Y527D02*
Y635D01*
X726Y515D02*
X727Y516D01*
X965Y455D02*
X1020Y510D01*
X1265Y425D02*
X1345Y505D01*
X876Y945D02*
Y1032D01*
X1345Y505D02*
Y630D01*
X1385Y670D01*
X310Y995D02*
X390D01*
X567Y1255D02*
X600D01*
X562Y1316D02*
X567Y1322D01*
Y1340D01*
X565Y1130D02*
X602D01*
X780Y594D02*
Y655D01*
X780Y594D02*
X780Y594D01*
X85Y635D02*
X125Y595D01*
X85Y635D02*
Y785D01*
X1409Y726D02*
X1410Y725D01*
X1409Y726D02*
Y782D01*
X1409Y782D02*
X1409Y782D01*
X1115Y665D02*
X1185D01*
X1020Y570D02*
X1115Y665D01*
X1020Y510D02*
Y570D01*
X1385Y670D02*
X1511D01*
X1185Y665D02*
X1185Y665D01*
X840Y660D02*
X876D01*
X876Y660D01*
X815Y635D02*
X840Y660D01*
X920Y875D02*
X935Y890D01*
X876Y875D02*
X920D01*
X359Y907D02*
X390D01*
X1408Y781D02*
X1409Y782D01*
X1085Y781D02*
X1408D01*
X1084Y780D02*
X1085Y781D01*
X1081Y778D02*
X1084Y780D01*
X776Y778D02*
X1081D01*
X774Y775D02*
X776Y778D01*
X774Y715D02*
Y775D01*
X1511Y670D02*
Y745D01*
X1185Y665D02*
X1186Y666D01*
Y743D01*
X876Y660D02*
Y738D01*
Y813D02*
Y875D01*
X876Y875D02*
X876Y875D01*
X1186Y817D02*
Y863D01*
X1185Y865D02*
X1186Y863D01*
X1511Y820D02*
Y865D01*
X1511Y865D02*
X1511Y865D01*
X630Y425D02*
Y456D01*
X631Y456D01*
X729Y555D02*
X780D01*
X410Y1201D02*
X410Y1201D01*
Y1270D01*
D64*
X60Y1585D02*
X352D01*
X442Y1495D01*
X420Y1530D02*
X710D01*
X750Y1570D01*
Y2020D01*
X442Y1495D02*
X602D01*
X750Y2020D02*
Y2135D01*
X400D02*
X495Y2230D01*
X65Y2135D02*
X260D01*
X60Y2130D02*
X65Y2135D01*
X260D02*
X400D01*
X495Y2230D02*
Y2230D01*
X260Y2450D02*
X750D01*
X1070Y1437D02*
Y1635D01*
Y1437D02*
X1072Y1435D01*
X920Y2380D02*
X1055D01*
X1075Y2360D01*
X855Y2445D02*
X920Y2380D01*
X755Y2445D02*
X855D01*
X750Y2450D02*
X755Y2445D01*
D65*
X340Y1370D02*
X365Y1345D01*
X340Y1370D02*
Y1370D01*
X365Y1345D02*
X406D01*
X410Y1341D01*
X597Y756D02*
X621D01*
X655Y790D01*
X705D01*
X410Y1341D02*
X491D01*
X493Y1340D01*
D66*
X730Y2000D02*
X750Y2020D01*
X260Y2040D02*
Y2135D01*
Y2040D02*
X300Y2000D01*
X624D02*
X730D01*
X300D02*
X447D01*
X610Y1900D02*
X624Y1914D01*
X572Y1900D02*
X610D01*
X624Y1914D02*
Y2000D01*
X465Y1902D02*
X503D01*
X505Y1900D01*
X447Y1920D02*
X465Y1902D01*
X447Y1920D02*
Y2000D01*
X1603Y2030D02*
Y2089D01*
X1600Y1832D02*
Y1953D01*
D67*
X1358Y2270D02*
Y2450D01*
X1355Y1345D02*
Y1525D01*
Y1345D02*
X1520D01*
X1358Y2053D02*
Y2270D01*
X1603Y2089D02*
X2015D01*
X1559D02*
X1603D01*
X1510Y2040D02*
X1559Y2089D01*
X1365Y2040D02*
X1510D01*
X2015Y2089D02*
X2045Y2058D01*
X2048D01*
X2069Y2037D01*
Y2034D02*
Y2037D01*
X1355Y2050D02*
X1365Y2040D01*
X1520Y1345D02*
X1600Y1425D01*
Y1758D01*
X1785Y1715D02*
X2029D01*
X2053Y1691D01*
Y1688D02*
Y1691D01*
X1742Y1758D02*
X1785Y1715D01*
X1600Y1758D02*
X1742D01*
X1598Y1760D02*
X1600Y1758D01*
X1355Y1760D02*
X1598D01*
X1355Y2050D02*
X1358Y2053D01*
D68*
X60Y2130D02*
D03*
Y1585D02*
D03*
X2080Y1715D02*
D03*
Y2045D02*
D03*
D69*
X700Y160D02*
D03*
X600D02*
D03*
D70*
X500D02*
D03*
D71*
X85Y935D02*
D03*
D72*
Y885D02*
D03*
Y835D02*
D03*
Y785D02*
D03*
D73*
X572Y695D02*
D03*
X760Y675D02*
D03*
X964Y530D02*
D03*
X1300Y625D02*
D03*
X876Y1825D02*
D03*
X930Y1765D02*
D03*
X876Y2140D02*
D03*
X65Y1218D02*
D03*
X795Y1080D02*
D03*
X935Y1005D02*
D03*
X1050Y1105D02*
D03*
X275Y1085D02*
D03*
X340Y1370D02*
D03*
X235Y1895D02*
D03*
X625Y1188D02*
D03*
X65Y1153D02*
D03*
X245Y625D02*
D03*
X544Y739D02*
D03*
X739Y737D02*
D03*
X485Y470D02*
D03*
X675Y380D02*
D03*
X1185Y1000D02*
D03*
X500Y738D02*
D03*
X565Y995D02*
D03*
X565Y940D02*
D03*
X140Y1035D02*
D03*
X280Y660D02*
D03*
X1195Y1190D02*
D03*
X960Y2135D02*
D03*
X1569Y600D02*
D03*
X1015Y885D02*
D03*
X245Y940D02*
D03*
X340Y425D02*
D03*
X1355Y925D02*
D03*
X876Y525D02*
D03*
X1185Y535D02*
D03*
X1569Y945D02*
D03*
X1520Y1700D02*
D03*
X1500Y1540D02*
D03*
X1410Y725D02*
D03*
X1375Y1025D02*
D03*
X774Y715D02*
D03*
D74*
X90Y1430D02*
D03*
X865Y1090D02*
D03*
X860Y1160D02*
D03*
X945Y1090D02*
D03*
Y1160D02*
D03*
X535Y2335D02*
D03*
X455D02*
D03*
X535Y2250D02*
D03*
X455D02*
D03*
M02*
