G04*
G04 #@! TF.GenerationSoftware,Altium Limited,Altium Designer,19.0.10 (269)*
G04*
G04 Layer_Color=65535*
%FSLAX23Y23*%
%MOIN*%
G70*
G01*
G75*
%ADD10C,0.010*%
%ADD11C,0.004*%
%ADD12C,0.005*%
%ADD13C,0.008*%
%ADD14C,0.007*%
%ADD15C,0.012*%
%ADD16C,0.008*%
%ADD17C,0.006*%
D10*
X881Y704D02*
G03*
X881Y704I-5J0D01*
G01*
X1516Y712D02*
G03*
X1516Y712I-5J0D01*
G01*
X1191Y709D02*
G03*
X1191Y709I-5J0D01*
G01*
D11*
X589Y582D02*
G03*
X589Y582I-2J0D01*
G01*
X472Y1246D02*
G03*
X472Y1246I-2J0D01*
G01*
D12*
X360Y882D02*
X420D01*
X360D02*
Y1017D01*
X375Y1032D01*
X420Y882D02*
Y1017D01*
X405Y1032D02*
X420Y1017D01*
X375Y1032D02*
X405D01*
X605Y926D02*
X665D01*
X605D02*
Y1061D01*
X620Y1076D01*
X665Y926D02*
Y1061D01*
X650Y1076D02*
X665Y1061D01*
X620Y1076D02*
X650D01*
X659Y780D02*
Y810D01*
X529D02*
X659D01*
X529Y780D02*
Y810D01*
Y780D02*
X659D01*
X509Y780D02*
Y810D01*
X379D02*
X509D01*
X379Y780D02*
Y810D01*
Y780D02*
X509D01*
X385Y2060D02*
X500D01*
X385Y1940D02*
X500D01*
X385D02*
Y2060D01*
X685Y1940D02*
Y2060D01*
X570D02*
X685D01*
X570Y1940D02*
X685D01*
X1208Y2235D02*
Y2485D01*
X943D02*
X1208D01*
X943Y2235D02*
Y2485D01*
Y2235D02*
X1208D01*
X1205Y1310D02*
Y1560D01*
X940D02*
X1205D01*
X940Y1310D02*
Y1560D01*
Y1310D02*
X1205D01*
X1222Y1925D02*
Y2175D01*
Y1925D02*
X1487D01*
Y2175D01*
X1222D02*
X1487D01*
X1222Y1635D02*
Y1885D01*
Y1635D02*
X1487D01*
Y1885D01*
X1222D02*
X1487D01*
D13*
X1624Y1793D02*
Y1797D01*
X1576Y1793D02*
Y1797D01*
X683Y2371D02*
X813D01*
X868Y2174D02*
Y2407D01*
X632Y2174D02*
Y2407D01*
X193Y2371D02*
X323D01*
X378Y2174D02*
Y2407D01*
X142Y2174D02*
Y2407D01*
X528Y1148D02*
X532D01*
X528Y1113D02*
X532D01*
X1624Y1988D02*
Y1992D01*
X1576Y1988D02*
Y1992D01*
X788Y714D02*
X847D01*
X788D02*
Y748D01*
Y836D02*
X847D01*
X788Y803D02*
Y836D01*
X688Y823D02*
Y827D01*
X723Y823D02*
Y827D01*
X738Y1003D02*
Y1007D01*
X702Y1003D02*
Y1007D01*
X1493Y908D02*
Y912D01*
X1529Y908D02*
Y912D01*
X1529Y633D02*
Y637D01*
X1493Y633D02*
Y637D01*
X328Y958D02*
Y962D01*
X292Y958D02*
Y962D01*
X353Y788D02*
Y792D01*
X317Y788D02*
Y792D01*
X894Y623D02*
Y627D01*
X858Y623D02*
Y627D01*
X858Y908D02*
Y912D01*
X894Y908D02*
Y912D01*
X1423Y810D02*
Y843D01*
X1482D01*
X1423Y721D02*
Y755D01*
Y721D02*
X1482D01*
X731Y582D02*
X737D01*
Y576D02*
Y582D01*
X731Y448D02*
X737D01*
Y454D01*
X603Y448D02*
X609D01*
X603D02*
Y454D01*
Y582D02*
X609D01*
X603Y576D02*
Y582D01*
X1203Y628D02*
Y632D01*
X1167Y628D02*
Y632D01*
X1168Y908D02*
Y912D01*
X1204Y908D02*
Y912D01*
X1098Y808D02*
Y841D01*
X1157D01*
X1098Y719D02*
Y752D01*
Y719D02*
X1157D01*
X591Y1262D02*
Y1333D01*
X469Y1262D02*
Y1333D01*
X471D01*
X469Y1262D02*
X471D01*
X589Y1333D02*
X591D01*
X589Y1262D02*
X591D01*
X392Y1304D02*
Y1308D01*
X428Y1304D02*
Y1308D01*
X392Y1163D02*
Y1167D01*
X428Y1163D02*
Y1167D01*
D14*
X539Y1885D02*
Y1890D01*
Y1910D02*
Y1915D01*
D15*
X700Y30D02*
Y80D01*
X800D02*
Y260D01*
X400Y80D02*
Y260D01*
X510Y30D02*
Y80D01*
X700D02*
X800D01*
X510Y30D02*
X700D01*
X400Y80D02*
X510D01*
X400Y260D02*
X550D01*
X656D02*
X800D01*
D16*
X2435Y2170D02*
X2458D01*
X2447D01*
Y2135D01*
X2476D02*
X2487D01*
X2493Y2141D01*
Y2152D01*
X2487Y2158D01*
X2476D01*
X2470Y2152D01*
Y2141D01*
X2476Y2135D01*
X2505Y2123D02*
Y2158D01*
X2522D01*
X2528Y2152D01*
Y2141D01*
X2522Y2135D01*
X2505D01*
X2592Y2170D02*
X2581D01*
X2575Y2164D01*
Y2141D01*
X2581Y2135D01*
X2592D01*
X2598Y2141D01*
Y2164D01*
X2592Y2170D01*
X2610Y2158D02*
X2622Y2135D01*
X2633Y2158D01*
X2662Y2135D02*
X2651D01*
X2645Y2141D01*
Y2152D01*
X2651Y2158D01*
X2662D01*
X2668Y2152D01*
Y2147D01*
X2645D01*
X2680Y2158D02*
Y2135D01*
Y2147D01*
X2686Y2152D01*
X2692Y2158D01*
X2697D01*
X2715Y2135D02*
X2727D01*
X2721D01*
Y2170D01*
X2715D01*
X2750Y2158D02*
X2762D01*
X2767Y2152D01*
Y2135D01*
X2750D01*
X2744Y2141D01*
X2750Y2147D01*
X2767D01*
X2779Y2158D02*
Y2141D01*
X2785Y2135D01*
X2802D01*
Y2129D01*
X2797Y2123D01*
X2791D01*
X2802Y2135D02*
Y2158D01*
X1785Y125D02*
X1765D01*
X1785Y145D01*
Y150D01*
X1780Y155D01*
X1770D01*
X1765Y150D01*
X1845Y155D02*
X1835D01*
X1840D01*
Y130D01*
X1835Y125D01*
X1830D01*
X1825Y130D01*
X1855Y145D02*
Y130D01*
X1860Y125D01*
X1875D01*
Y145D01*
X1885Y125D02*
X1895D01*
X1890D01*
Y155D01*
X1885D01*
X1910Y145D02*
Y130D01*
X1915Y125D01*
X1930D01*
Y120D01*
X1925Y115D01*
X1920D01*
X1930Y125D02*
Y145D01*
X1990Y125D02*
X1970D01*
X1990Y145D01*
Y150D01*
X1985Y155D01*
X1975D01*
X1970Y150D01*
X2000D02*
X2005Y155D01*
X2015D01*
X2020Y150D01*
Y130D01*
X2015Y125D01*
X2005D01*
X2000Y130D01*
Y150D01*
X2030Y125D02*
X2040D01*
X2035D01*
Y155D01*
X2030Y150D01*
X2055Y130D02*
X2060Y125D01*
X2070D01*
X2075Y130D01*
Y150D01*
X2070Y155D01*
X2060D01*
X2055Y150D01*
Y145D01*
X2060Y140D01*
X2075D01*
X1730Y200D02*
X1735Y205D01*
X1745D01*
X1750Y200D01*
Y180D01*
X1745Y175D01*
X1735D01*
X1730Y180D01*
Y200D01*
X1760D02*
X1765Y205D01*
X1775D01*
X1780Y200D01*
Y180D01*
X1775Y175D01*
X1765D01*
X1760Y180D01*
Y200D01*
X1810Y175D02*
X1790D01*
X1810Y195D01*
Y200D01*
X1805Y205D01*
X1795D01*
X1790Y200D01*
X1820Y190D02*
X1840D01*
X1850Y200D02*
X1855Y205D01*
X1865D01*
X1870Y200D01*
Y180D01*
X1865Y175D01*
X1855D01*
X1850Y180D01*
Y200D01*
X1880D02*
X1885Y205D01*
X1895D01*
X1900Y200D01*
Y180D01*
X1895Y175D01*
X1885D01*
X1880Y180D01*
Y200D01*
X1910D02*
X1915Y205D01*
X1925D01*
X1930Y200D01*
Y195D01*
X1925Y190D01*
X1930Y185D01*
Y180D01*
X1925Y175D01*
X1915D01*
X1910Y180D01*
Y185D01*
X1915Y190D01*
X1910Y195D01*
Y200D01*
X1915Y190D02*
X1925D01*
X1940Y175D02*
X1950D01*
X1945D01*
Y205D01*
X1940Y200D01*
X1995Y175D02*
Y205D01*
X2010D01*
X2015Y200D01*
Y190D01*
X2010Y185D01*
X1995D01*
X2005D02*
X2015Y175D01*
X2040D02*
X2030D01*
X2025Y180D01*
Y190D01*
X2030Y195D01*
X2040D01*
X2045Y190D01*
Y185D01*
X2025D01*
X2055Y195D02*
X2065Y175D01*
X2075Y195D01*
X2115Y190D02*
X2135D01*
X1730Y225D02*
Y245D01*
X1740Y255D01*
X1750Y245D01*
Y225D01*
Y240D01*
X1730D01*
X1760Y225D02*
X1775D01*
X1780Y230D01*
X1775Y235D01*
X1765D01*
X1760Y240D01*
X1765Y245D01*
X1780D01*
X1790D02*
Y230D01*
X1795Y225D01*
X1810D01*
Y220D01*
X1805Y215D01*
X1800D01*
X1810Y225D02*
Y245D01*
X1825Y220D02*
X1830Y225D01*
Y230D01*
X1825D01*
Y225D01*
X1830D01*
X1825Y220D01*
X1820Y215D01*
X1880Y255D02*
X1900D01*
Y250D01*
X1880Y230D01*
Y225D01*
X1910Y250D02*
X1915Y255D01*
X1925D01*
X1930Y250D01*
Y230D01*
X1925Y225D01*
X1915D01*
X1910Y230D01*
Y250D01*
X1940D02*
X1945Y255D01*
X1955D01*
X1960Y250D01*
Y230D01*
X1955Y225D01*
X1945D01*
X1940Y230D01*
Y250D01*
X1970Y240D02*
X1990D01*
X2000Y225D02*
X2010D01*
X2005D01*
Y255D01*
X2000Y250D01*
X2025D02*
X2030Y255D01*
X2040D01*
X2045Y250D01*
Y245D01*
X2040Y240D01*
X2035D01*
X2040D01*
X2045Y235D01*
Y230D01*
X2040Y225D01*
X2030D01*
X2025Y230D01*
X2070Y225D02*
Y255D01*
X2055Y240D01*
X2075D01*
X2105Y255D02*
X2085D01*
Y240D01*
X2095Y245D01*
X2100D01*
X2105Y240D01*
Y230D01*
X2100Y225D01*
X2090D01*
X2085Y230D01*
X1865Y280D02*
Y315D01*
X1882D01*
X1888Y309D01*
Y297D01*
X1882Y292D01*
X1865D01*
X1923Y315D02*
X1900D01*
Y280D01*
X1923D01*
X1900Y297D02*
X1912D01*
X1935Y280D02*
Y315D01*
X1947Y303D01*
X1958Y315D01*
Y280D01*
X2448Y2310D02*
X2425D01*
X2448Y2333D01*
Y2339D01*
X2442Y2345D01*
X2431D01*
X2425Y2339D01*
X2518Y2345D02*
X2507D01*
X2512D01*
Y2316D01*
X2507Y2310D01*
X2501D01*
X2495Y2316D01*
X2530Y2333D02*
Y2316D01*
X2536Y2310D01*
X2553D01*
Y2333D01*
X2565Y2310D02*
X2577D01*
X2571D01*
Y2345D01*
X2565D01*
X2594Y2333D02*
Y2316D01*
X2600Y2310D01*
X2617D01*
Y2304D01*
X2612Y2298D01*
X2606D01*
X2617Y2310D02*
Y2333D01*
X2687Y2310D02*
X2664D01*
X2687Y2333D01*
Y2339D01*
X2682Y2345D01*
X2670D01*
X2664Y2339D01*
X2699D02*
X2705Y2345D01*
X2717D01*
X2722Y2339D01*
Y2316D01*
X2717Y2310D01*
X2705D01*
X2699Y2316D01*
Y2339D01*
X2734Y2310D02*
X2746D01*
X2740D01*
Y2345D01*
X2734Y2339D01*
X2763Y2316D02*
X2769Y2310D01*
X2781D01*
X2787Y2316D01*
Y2339D01*
X2781Y2345D01*
X2769D01*
X2763Y2339D01*
Y2333D01*
X2769Y2327D01*
X2787D01*
X2425Y2420D02*
Y2455D01*
X2442D01*
X2448Y2449D01*
Y2437D01*
X2442Y2432D01*
X2425D01*
X2483Y2449D02*
X2477Y2455D01*
X2466D01*
X2460Y2449D01*
Y2426D01*
X2466Y2420D01*
X2477D01*
X2483Y2426D01*
X2495Y2455D02*
Y2420D01*
X2512D01*
X2518Y2426D01*
Y2432D01*
X2512Y2437D01*
X2495D01*
X2512D01*
X2518Y2443D01*
Y2449D01*
X2512Y2455D01*
X2495D01*
X2571Y2420D02*
Y2455D01*
X2582D02*
Y2420D01*
X2565Y2443D02*
X2582D01*
X2588D01*
X2565Y2432D02*
X2588D01*
X2600Y2449D02*
X2606Y2455D01*
X2617D01*
X2623Y2449D01*
Y2426D01*
X2617Y2420D01*
X2606D01*
X2600Y2426D01*
Y2449D01*
X2635D02*
X2641Y2455D01*
X2652D01*
X2658Y2449D01*
Y2426D01*
X2652Y2420D01*
X2641D01*
X2635Y2426D01*
Y2449D01*
X2693Y2420D02*
X2670D01*
X2693Y2443D01*
Y2449D01*
X2687Y2455D01*
X2676D01*
X2670Y2449D01*
X2705Y2437D02*
X2728D01*
X2740Y2449D02*
X2746Y2455D01*
X2757D01*
X2763Y2449D01*
Y2426D01*
X2757Y2420D01*
X2746D01*
X2740Y2426D01*
Y2449D01*
X2775D02*
X2781Y2455D01*
X2792D01*
X2798Y2449D01*
Y2426D01*
X2792Y2420D01*
X2781D01*
X2775Y2426D01*
Y2449D01*
X2810D02*
X2816Y2455D01*
X2827D01*
X2833Y2449D01*
Y2443D01*
X2827Y2437D01*
X2833Y2432D01*
Y2426D01*
X2827Y2420D01*
X2816D01*
X2810Y2426D01*
Y2432D01*
X2816Y2437D01*
X2810Y2443D01*
Y2449D01*
X2816Y2437D02*
X2827D01*
X2845Y2420D02*
X2857D01*
X2851D01*
Y2455D01*
X2845Y2449D01*
X2909Y2420D02*
Y2455D01*
X2927D01*
X2932Y2449D01*
Y2437D01*
X2927Y2432D01*
X2909D01*
X2921D02*
X2932Y2420D01*
X2961D02*
X2950D01*
X2944Y2426D01*
Y2437D01*
X2950Y2443D01*
X2961D01*
X2967Y2437D01*
Y2432D01*
X2944D01*
X2979Y2443D02*
X2991Y2420D01*
X3002Y2443D01*
X3049Y2437D02*
X3072D01*
D17*
X1975Y1790D02*
Y1815D01*
X1983Y1807D01*
X1992Y1815D01*
Y1790D01*
X2017D02*
X2000D01*
X2017Y1807D01*
Y1811D01*
X2012Y1815D01*
X2004D01*
X2000Y1811D01*
X1975Y2110D02*
Y2135D01*
X1983Y2127D01*
X1992Y2135D01*
Y2110D01*
X2000D02*
X2008D01*
X2004D01*
Y2135D01*
X2000Y2131D01*
X69Y1700D02*
Y1683D01*
X77Y1675D01*
X86Y1683D01*
Y1700D01*
X111Y1696D02*
X106Y1700D01*
X98D01*
X94Y1696D01*
Y1679D01*
X98Y1675D01*
X106D01*
X111Y1679D01*
X136Y1696D02*
X131Y1700D01*
X123D01*
X119Y1696D01*
Y1679D01*
X123Y1675D01*
X131D01*
X136Y1679D01*
X144Y1687D02*
X161D01*
X35Y2245D02*
Y2228D01*
X43Y2220D01*
X52Y2228D01*
Y2245D01*
X77Y2241D02*
X72Y2245D01*
X64D01*
X60Y2241D01*
Y2224D01*
X64Y2220D01*
X72D01*
X77Y2224D01*
X102Y2241D02*
X97Y2245D01*
X89D01*
X85Y2241D01*
Y2224D01*
X89Y2220D01*
X97D01*
X102Y2224D01*
X110Y2232D02*
X127D01*
X118Y2241D02*
Y2224D01*
X537Y874D02*
Y891D01*
X532Y895D01*
X524D01*
X520Y891D01*
Y874D01*
X524Y870D01*
X532D01*
X528Y878D02*
X537Y870D01*
X532D02*
X537Y874D01*
X562Y895D02*
X545D01*
Y882D01*
X553Y887D01*
X557D01*
X562Y882D01*
Y874D01*
X557Y870D01*
X549D01*
X545Y874D01*
X310Y2045D02*
Y2020D01*
X322D01*
X327Y2024D01*
Y2041D01*
X322Y2045D01*
X310D01*
X335Y2041D02*
X339Y2045D01*
X347D01*
X352Y2041D01*
Y2037D01*
X347Y2032D01*
X352Y2028D01*
Y2024D01*
X347Y2020D01*
X339D01*
X335Y2024D01*
Y2028D01*
X339Y2032D01*
X335Y2037D01*
Y2041D01*
X339Y2032D02*
X347D01*
X422Y1906D02*
X417Y1910D01*
X409D01*
X405Y1906D01*
Y1889D01*
X409Y1885D01*
X417D01*
X422Y1889D01*
X430Y1885D02*
X438D01*
X434D01*
Y1910D01*
X430Y1906D01*
X462Y874D02*
Y891D01*
X457Y895D01*
X449D01*
X445Y891D01*
Y874D01*
X449Y870D01*
X457D01*
X453Y878D02*
X462Y870D01*
X457D02*
X462Y874D01*
X482Y870D02*
Y895D01*
X470Y882D01*
X487D01*
X540Y2460D02*
Y2435D01*
X552D01*
X557Y2439D01*
Y2456D01*
X552Y2460D01*
X540D01*
X582D02*
X565D01*
Y2447D01*
X573Y2452D01*
X577D01*
X582Y2447D01*
Y2439D01*
X577Y2435D01*
X569D01*
X565Y2439D01*
X50Y2460D02*
Y2435D01*
X62D01*
X67Y2439D01*
Y2456D01*
X62Y2460D01*
X50D01*
X87Y2435D02*
Y2460D01*
X75Y2447D01*
X92D01*
X943Y1613D02*
Y1588D01*
X955D01*
X960Y1592D01*
Y1609D01*
X955Y1613D01*
X943D01*
X968D02*
X985D01*
Y1609D01*
X968Y1592D01*
Y1588D01*
X860Y2465D02*
Y2440D01*
X872D01*
X877Y2444D01*
Y2461D01*
X872Y2465D01*
X860D01*
X902D02*
X893Y2461D01*
X885Y2452D01*
Y2444D01*
X889Y2440D01*
X897D01*
X902Y2444D01*
Y2448D01*
X897Y2452D01*
X885D01*
X605Y1140D02*
Y1165D01*
X617D01*
X622Y1161D01*
Y1152D01*
X617Y1148D01*
X605D01*
X613D02*
X622Y1140D01*
X630D02*
X638D01*
X634D01*
Y1165D01*
X630Y1161D01*
X703Y631D02*
Y610D01*
X708Y606D01*
X716D01*
X720Y610D01*
Y631D01*
X728Y626D02*
X733Y631D01*
X741D01*
X745Y626D01*
Y622D01*
X741Y618D01*
X737D01*
X741D01*
X745Y614D01*
Y610D01*
X741Y606D01*
X733D01*
X728Y610D01*
X525Y1405D02*
Y1384D01*
X529Y1380D01*
X537D01*
X542Y1384D01*
Y1405D01*
X550Y1380D02*
X558D01*
X554D01*
Y1405D01*
X550Y1401D01*
X385Y625D02*
Y650D01*
X397D01*
X402Y646D01*
Y637D01*
X397Y633D01*
X385D01*
X393D02*
X402Y625D01*
X427D02*
X410D01*
X427Y642D01*
Y646D01*
X422Y650D01*
X414D01*
X410Y646D01*
X435Y625D02*
X443D01*
X439D01*
Y650D01*
X435Y646D01*
X1535Y990D02*
Y1015D01*
X1547D01*
X1552Y1011D01*
Y1002D01*
X1547Y998D01*
X1535D01*
X1543D02*
X1552Y990D01*
X1577D02*
X1560D01*
X1577Y1007D01*
Y1011D01*
X1572Y1015D01*
X1564D01*
X1560Y1011D01*
X1585D02*
X1589Y1015D01*
X1597D01*
X1602Y1011D01*
Y994D01*
X1597Y990D01*
X1589D01*
X1585Y994D01*
Y1011D01*
X780Y620D02*
Y645D01*
X792D01*
X797Y641D01*
Y632D01*
X792Y628D01*
X780D01*
X788D02*
X797Y620D01*
X805D02*
X813D01*
X809D01*
Y645D01*
X805Y641D01*
X826Y624D02*
X830Y620D01*
X838D01*
X842Y624D01*
Y641D01*
X838Y645D01*
X830D01*
X826Y641D01*
Y637D01*
X830Y632D01*
X842D01*
X1555Y704D02*
Y729D01*
X1567D01*
X1572Y725D01*
Y717D01*
X1567Y713D01*
X1555D01*
X1563D02*
X1572Y704D01*
X1580D02*
X1588D01*
X1584D01*
Y729D01*
X1580Y725D01*
X1601D02*
X1605Y729D01*
X1613D01*
X1617Y725D01*
Y721D01*
X1613Y717D01*
X1617Y713D01*
Y709D01*
X1613Y704D01*
X1605D01*
X1601Y709D01*
Y713D01*
X1605Y717D01*
X1601Y721D01*
Y725D01*
X1605Y717D02*
X1613D01*
X1222Y990D02*
Y1015D01*
X1235D01*
X1239Y1011D01*
Y1002D01*
X1235Y998D01*
X1222D01*
X1231D02*
X1239Y990D01*
X1247D02*
X1256D01*
X1251D01*
Y1015D01*
X1247Y1011D01*
X1268Y1015D02*
X1285D01*
Y1011D01*
X1268Y994D01*
Y990D01*
X1222Y690D02*
Y715D01*
X1235D01*
X1239Y711D01*
Y702D01*
X1235Y698D01*
X1222D01*
X1231D02*
X1239Y690D01*
X1247D02*
X1256D01*
X1251D01*
Y715D01*
X1247Y711D01*
X1285Y715D02*
X1276Y711D01*
X1268Y702D01*
Y694D01*
X1272Y690D01*
X1281D01*
X1285Y694D01*
Y698D01*
X1281Y702D01*
X1268D01*
X915Y955D02*
Y980D01*
X927D01*
X932Y976D01*
Y967D01*
X927Y963D01*
X915D01*
X923D02*
X932Y955D01*
X940D02*
X948D01*
X944D01*
Y980D01*
X940Y976D01*
X977Y980D02*
X961D01*
Y967D01*
X969Y972D01*
X973D01*
X977Y967D01*
Y959D01*
X973Y955D01*
X965D01*
X961Y959D01*
X675Y675D02*
Y700D01*
X687D01*
X692Y696D01*
Y687D01*
X687Y683D01*
X675D01*
X683D02*
X692Y675D01*
X700D02*
X708D01*
X704D01*
Y700D01*
X700Y696D01*
X733Y675D02*
Y700D01*
X721Y687D01*
X737D01*
X595Y675D02*
Y700D01*
X607D01*
X612Y696D01*
Y687D01*
X607Y683D01*
X595D01*
X603D02*
X612Y675D01*
X620D02*
X628D01*
X624D01*
Y700D01*
X620Y696D01*
X641D02*
X645Y700D01*
X653D01*
X657Y696D01*
Y692D01*
X653Y687D01*
X649D01*
X653D01*
X657Y683D01*
Y679D01*
X653Y675D01*
X645D01*
X641Y679D01*
X915Y690D02*
Y715D01*
X927D01*
X932Y711D01*
Y702D01*
X927Y698D01*
X915D01*
X923D02*
X932Y690D01*
X940D02*
X948D01*
X944D01*
Y715D01*
X940Y711D01*
X977Y690D02*
X961D01*
X977Y707D01*
Y711D01*
X973Y715D01*
X965D01*
X961Y711D01*
X462Y625D02*
Y650D01*
X475D01*
X479Y646D01*
Y637D01*
X475Y633D01*
X462D01*
X471D02*
X479Y625D01*
X487D02*
X496D01*
X491D01*
Y650D01*
X487Y646D01*
X508Y625D02*
X516D01*
X512D01*
Y650D01*
X508Y646D01*
X1635Y2065D02*
Y2090D01*
X1647D01*
X1652Y2086D01*
Y2077D01*
X1647Y2073D01*
X1635D01*
X1643D02*
X1652Y2065D01*
X1660Y2086D02*
X1664Y2090D01*
X1672D01*
X1677Y2086D01*
Y2082D01*
X1672Y2077D01*
X1677Y2073D01*
Y2069D01*
X1672Y2065D01*
X1664D01*
X1660Y2069D01*
Y2073D01*
X1664Y2077D01*
X1660Y2082D01*
Y2086D01*
X1664Y2077D02*
X1672D01*
X360Y1380D02*
Y1405D01*
X372D01*
X377Y1401D01*
Y1392D01*
X372Y1388D01*
X360D01*
X368D02*
X377Y1380D01*
X385Y1405D02*
X402D01*
Y1401D01*
X385Y1384D01*
Y1380D01*
X255Y833D02*
Y858D01*
X267D01*
X272Y854D01*
Y846D01*
X267Y842D01*
X255D01*
X263D02*
X272Y833D01*
X297Y858D02*
X288Y854D01*
X280Y846D01*
Y838D01*
X284Y833D01*
X292D01*
X297Y838D01*
Y842D01*
X292Y846D01*
X280D01*
X705Y900D02*
Y925D01*
X718D01*
X722Y921D01*
Y912D01*
X718Y908D01*
X705D01*
X714D02*
X722Y900D01*
X747Y925D02*
X730D01*
Y912D01*
X739Y917D01*
X743D01*
X747Y912D01*
Y904D01*
X743Y900D01*
X735D01*
X730Y904D01*
X335Y1205D02*
Y1230D01*
X347D01*
X352Y1226D01*
Y1217D01*
X347Y1213D01*
X335D01*
X343D02*
X352Y1205D01*
X372D02*
Y1230D01*
X360Y1217D01*
X377D01*
X720Y1080D02*
Y1105D01*
X732D01*
X737Y1101D01*
Y1092D01*
X732Y1088D01*
X720D01*
X728D02*
X737Y1080D01*
X745Y1101D02*
X749Y1105D01*
X757D01*
X762Y1101D01*
Y1097D01*
X757Y1092D01*
X753D01*
X757D01*
X762Y1088D01*
Y1084D01*
X757Y1080D01*
X749D01*
X745Y1084D01*
X245Y1030D02*
Y1055D01*
X257D01*
X262Y1051D01*
Y1042D01*
X257Y1038D01*
X245D01*
X253D02*
X262Y1030D01*
X287D02*
X270D01*
X287Y1047D01*
Y1051D01*
X282Y1055D01*
X274D01*
X270Y1051D01*
X1337Y819D02*
Y836D01*
X1332Y840D01*
X1324D01*
X1320Y836D01*
Y819D01*
X1324Y815D01*
X1332D01*
X1328Y823D02*
X1337Y815D01*
X1332D02*
X1337Y819D01*
X1345Y815D02*
X1353D01*
X1349D01*
Y840D01*
X1345Y836D01*
X1366Y815D02*
X1374D01*
X1370D01*
Y840D01*
X1366Y836D01*
X1037Y814D02*
Y831D01*
X1032Y835D01*
X1024D01*
X1020Y831D01*
Y814D01*
X1024Y810D01*
X1032D01*
X1028Y818D02*
X1037Y810D01*
X1032D02*
X1037Y814D01*
X1045Y810D02*
X1053D01*
X1049D01*
Y835D01*
X1045Y831D01*
X1066D02*
X1070Y835D01*
X1078D01*
X1082Y831D01*
Y814D01*
X1078Y810D01*
X1070D01*
X1066Y814D01*
Y831D01*
X774Y868D02*
Y884D01*
X770Y888D01*
X761D01*
X757Y884D01*
Y868D01*
X761Y863D01*
X770D01*
X766Y872D02*
X774Y863D01*
X770D02*
X774Y868D01*
X782D02*
X786Y863D01*
X795D01*
X799Y868D01*
Y884D01*
X795Y888D01*
X786D01*
X782Y884D01*
Y880D01*
X786Y876D01*
X799D01*
X1527Y1599D02*
Y1616D01*
X1522Y1620D01*
X1514D01*
X1510Y1616D01*
Y1599D01*
X1514Y1595D01*
X1522D01*
X1518Y1603D02*
X1527Y1595D01*
X1522D02*
X1527Y1599D01*
X1552Y1595D02*
X1535D01*
X1552Y1612D01*
Y1616D01*
X1547Y1620D01*
X1539D01*
X1535Y1616D01*
X1522Y2204D02*
Y2221D01*
X1517Y2225D01*
X1509D01*
X1505Y2221D01*
Y2204D01*
X1509Y2200D01*
X1517D01*
X1513Y2208D02*
X1522Y2200D01*
X1517D02*
X1522Y2204D01*
X1530Y2200D02*
X1538D01*
X1534D01*
Y2225D01*
X1530Y2221D01*
X69Y982D02*
Y1007D01*
X81D01*
X86Y1003D01*
Y994D01*
X81Y990D01*
X69D01*
X94Y982D02*
X102D01*
X98D01*
Y1007D01*
X94Y1003D01*
X417Y317D02*
X408D01*
X412D01*
Y296D01*
X408Y292D01*
X404D01*
X400Y296D01*
X425Y292D02*
X433D01*
X429D01*
Y317D01*
X425Y313D01*
X640Y1115D02*
Y1090D01*
X652D01*
X657Y1094D01*
Y1111D01*
X652Y1115D01*
X640D01*
X665Y1111D02*
X669Y1115D01*
X677D01*
X682Y1111D01*
Y1107D01*
X677Y1102D01*
X673D01*
X677D01*
X682Y1098D01*
Y1094D01*
X677Y1090D01*
X669D01*
X665Y1094D01*
X345Y1070D02*
Y1045D01*
X357D01*
X362Y1049D01*
Y1066D01*
X357Y1070D01*
X345D01*
X387Y1045D02*
X370D01*
X387Y1062D01*
Y1066D01*
X382Y1070D01*
X374D01*
X370Y1066D01*
X508Y386D02*
X504Y390D01*
X496D01*
X491Y386D01*
Y369D01*
X496Y365D01*
X504D01*
X508Y369D01*
X516Y365D02*
X525D01*
X521D01*
Y390D01*
X516Y386D01*
X554Y365D02*
X537D01*
X554Y382D01*
Y386D01*
X550Y390D01*
X541D01*
X537Y386D01*
X687Y426D02*
X682Y430D01*
X674D01*
X670Y426D01*
Y409D01*
X674Y405D01*
X682D01*
X687Y409D01*
X695Y405D02*
X703D01*
X699D01*
Y430D01*
X695Y426D01*
X716Y405D02*
X724D01*
X720D01*
Y430D01*
X716Y426D01*
X484Y511D02*
X480Y515D01*
X472D01*
X468Y511D01*
Y494D01*
X472Y490D01*
X480D01*
X484Y494D01*
X493Y490D02*
X501D01*
X497D01*
Y515D01*
X493Y511D01*
X514D02*
X518Y515D01*
X526D01*
X530Y511D01*
Y494D01*
X526Y490D01*
X518D01*
X514Y494D01*
Y511D01*
X551Y646D02*
X547Y650D01*
X538D01*
X534Y646D01*
Y629D01*
X538Y625D01*
X547D01*
X551Y629D01*
X559D02*
X563Y625D01*
X572D01*
X576Y629D01*
Y646D01*
X572Y650D01*
X563D01*
X559Y646D01*
Y642D01*
X563Y637D01*
X576D01*
X1662Y1891D02*
X1657Y1895D01*
X1649D01*
X1645Y1891D01*
Y1874D01*
X1649Y1870D01*
X1657D01*
X1662Y1874D01*
X1687Y1870D02*
X1670D01*
X1687Y1887D01*
Y1891D01*
X1682Y1895D01*
X1674D01*
X1670Y1891D01*
M02*
