G04*
G04 #@! TF.GenerationSoftware,Altium Limited,Altium Designer,19.0.10 (269)*
G04*
G04 Layer_Color=32896*
%FSLAX23Y23*%
%MOIN*%
G70*
G01*
G75*
%ADD16C,0.008*%
%ADD63C,0.010*%
D16*
X2450Y1530D02*
Y1495D01*
X2467D01*
X2473Y1501D01*
Y1507D01*
X2467Y1512D01*
X2450D01*
X2467D01*
X2473Y1518D01*
Y1524D01*
X2467Y1530D01*
X2450D01*
X2491Y1495D02*
X2502D01*
X2508Y1501D01*
Y1512D01*
X2502Y1518D01*
X2491D01*
X2485Y1512D01*
Y1501D01*
X2491Y1495D01*
X2526Y1518D02*
X2537D01*
X2543Y1512D01*
Y1495D01*
X2526D01*
X2520Y1501D01*
X2526Y1507D01*
X2543D01*
X2555Y1518D02*
Y1495D01*
Y1507D01*
X2561Y1512D01*
X2567Y1518D01*
X2572D01*
X2613Y1530D02*
Y1495D01*
X2596D01*
X2590Y1501D01*
Y1512D01*
X2596Y1518D01*
X2613D01*
X2677Y1530D02*
X2666D01*
X2660Y1524D01*
Y1501D01*
X2666Y1495D01*
X2677D01*
X2683Y1501D01*
Y1524D01*
X2677Y1530D01*
X2695Y1518D02*
Y1501D01*
X2701Y1495D01*
X2718D01*
Y1518D01*
X2736Y1524D02*
Y1518D01*
X2730D01*
X2742D01*
X2736D01*
Y1501D01*
X2742Y1495D01*
X2759D02*
X2771D01*
X2765D01*
Y1530D01*
X2759D01*
X2788Y1495D02*
X2800D01*
X2794D01*
Y1518D01*
X2788D01*
X2817Y1495D02*
Y1518D01*
X2835D01*
X2841Y1512D01*
Y1495D01*
X2870D02*
X2858D01*
X2852Y1501D01*
Y1512D01*
X2858Y1518D01*
X2870D01*
X2876Y1512D01*
Y1507D01*
X2852D01*
X2448Y2310D02*
X2425D01*
X2448Y2333D01*
Y2339D01*
X2442Y2345D01*
X2431D01*
X2425Y2339D01*
X2518Y2345D02*
X2507D01*
X2512D01*
Y2316D01*
X2507Y2310D01*
X2501D01*
X2495Y2316D01*
X2530Y2333D02*
Y2316D01*
X2536Y2310D01*
X2553D01*
Y2333D01*
X2565Y2310D02*
X2577D01*
X2571D01*
Y2345D01*
X2565D01*
X2594Y2333D02*
Y2316D01*
X2600Y2310D01*
X2617D01*
Y2304D01*
X2612Y2298D01*
X2606D01*
X2617Y2310D02*
Y2333D01*
X2687Y2310D02*
X2664D01*
X2687Y2333D01*
Y2339D01*
X2682Y2345D01*
X2670D01*
X2664Y2339D01*
X2699D02*
X2705Y2345D01*
X2717D01*
X2722Y2339D01*
Y2316D01*
X2717Y2310D01*
X2705D01*
X2699Y2316D01*
Y2339D01*
X2734Y2310D02*
X2746D01*
X2740D01*
Y2345D01*
X2734Y2339D01*
X2763Y2316D02*
X2769Y2310D01*
X2781D01*
X2787Y2316D01*
Y2339D01*
X2781Y2345D01*
X2769D01*
X2763Y2339D01*
Y2333D01*
X2769Y2327D01*
X2787D01*
X2425Y2420D02*
Y2455D01*
X2442D01*
X2448Y2449D01*
Y2437D01*
X2442Y2432D01*
X2425D01*
X2483Y2449D02*
X2477Y2455D01*
X2466D01*
X2460Y2449D01*
Y2426D01*
X2466Y2420D01*
X2477D01*
X2483Y2426D01*
X2495Y2455D02*
Y2420D01*
X2512D01*
X2518Y2426D01*
Y2432D01*
X2512Y2437D01*
X2495D01*
X2512D01*
X2518Y2443D01*
Y2449D01*
X2512Y2455D01*
X2495D01*
X2571Y2420D02*
Y2455D01*
X2582D02*
Y2420D01*
X2565Y2443D02*
X2582D01*
X2588D01*
X2565Y2432D02*
X2588D01*
X2600Y2449D02*
X2606Y2455D01*
X2617D01*
X2623Y2449D01*
Y2426D01*
X2617Y2420D01*
X2606D01*
X2600Y2426D01*
Y2449D01*
X2635D02*
X2641Y2455D01*
X2652D01*
X2658Y2449D01*
Y2426D01*
X2652Y2420D01*
X2641D01*
X2635Y2426D01*
Y2449D01*
X2693Y2420D02*
X2670D01*
X2693Y2443D01*
Y2449D01*
X2687Y2455D01*
X2676D01*
X2670Y2449D01*
X2705Y2437D02*
X2728D01*
X2740Y2449D02*
X2746Y2455D01*
X2757D01*
X2763Y2449D01*
Y2426D01*
X2757Y2420D01*
X2746D01*
X2740Y2426D01*
Y2449D01*
X2775D02*
X2781Y2455D01*
X2792D01*
X2798Y2449D01*
Y2426D01*
X2792Y2420D01*
X2781D01*
X2775Y2426D01*
Y2449D01*
X2810D02*
X2816Y2455D01*
X2827D01*
X2833Y2449D01*
Y2443D01*
X2827Y2437D01*
X2833Y2432D01*
Y2426D01*
X2827Y2420D01*
X2816D01*
X2810Y2426D01*
Y2432D01*
X2816Y2437D01*
X2810Y2443D01*
Y2449D01*
X2816Y2437D02*
X2827D01*
X2845Y2420D02*
X2857D01*
X2851D01*
Y2455D01*
X2845Y2449D01*
X2909Y2420D02*
Y2455D01*
X2927D01*
X2932Y2449D01*
Y2437D01*
X2927Y2432D01*
X2909D01*
X2921D02*
X2932Y2420D01*
X2961D02*
X2950D01*
X2944Y2426D01*
Y2437D01*
X2950Y2443D01*
X2961D01*
X2967Y2437D01*
Y2432D01*
X2944D01*
X2979Y2443D02*
X2991Y2420D01*
X3002Y2443D01*
X3049Y2437D02*
X3072D01*
D63*
X-25Y2530D02*
X2185D01*
Y0D02*
Y2530D01*
X-25Y0D02*
X2185D01*
X-25D02*
Y2530D01*
M02*
