M48
;Layer_Color=9474304
;FILE_FORMAT=2:3
INCH,LZ
;TYPE=PLATED
T1F00S00C0.012
T2F00S00C0.025
T3F00S00C0.028
T4F00S00C0.039
T5F00S00C0.062
%
T01
X0034Y00425
X00485Y0047
X00675Y0038
X00876Y00525
X00964Y0053
X01185Y00535
X013Y00625
X0141Y00725
X01355Y00925
X01569Y00945
Y006
X01185Y01
X01015Y00885
X00774Y00715
X0076Y00675
X00739Y00737
X00544Y00739
X005Y00738
X00572Y00695
X00565Y0094
X00565Y00995
X00245Y0094
Y00625
X0028Y0066
X0014Y01035
X00065Y01153
Y01218
X00275Y01085
X0034Y0137
X00625Y01188
X00795Y0108
X00935Y01005
X0105Y01105
X01195Y0119
X01375Y01025
X015Y0154
X0152Y017
X0093Y01765
X00876Y01825
X00876Y0214
X0096Y02135
X00235Y01895
T02
X00085Y00785
Y00835
Y00885
Y00935
T03
X0009Y0143
X0086Y0116
X00865Y0109
X00945
Y0116
X00535Y0225
X00455
Y02335
X00535
T04
X005Y0016
X006
X007
T05
X0006Y01585
Y0213
X0208Y02045
Y01715
M30
