G04*
G04 #@! TF.GenerationSoftware,Altium Limited,Altium Designer,19.0.10 (269)*
G04*
G04 Layer_Color=2752767*
%FSLAX23Y23*%
%MOIN*%
G70*
G01*
G75*
%ADD16C,0.008*%
%ADD17C,0.006*%
%ADD63C,0.010*%
%ADD90C,0.002*%
%ADD91C,0.003*%
%ADD92C,0.016*%
D16*
X2448Y2310D02*
X2425D01*
X2448Y2333D01*
Y2339D01*
X2442Y2345D01*
X2431D01*
X2425Y2339D01*
X2518Y2345D02*
X2507D01*
X2512D01*
Y2316D01*
X2507Y2310D01*
X2501D01*
X2495Y2316D01*
X2530Y2333D02*
Y2316D01*
X2536Y2310D01*
X2553D01*
Y2333D01*
X2565Y2310D02*
X2577D01*
X2571D01*
Y2345D01*
X2565D01*
X2594Y2333D02*
Y2316D01*
X2600Y2310D01*
X2617D01*
Y2304D01*
X2612Y2298D01*
X2606D01*
X2617Y2310D02*
Y2333D01*
X2687Y2310D02*
X2664D01*
X2687Y2333D01*
Y2339D01*
X2682Y2345D01*
X2670D01*
X2664Y2339D01*
X2699D02*
X2705Y2345D01*
X2717D01*
X2722Y2339D01*
Y2316D01*
X2717Y2310D01*
X2705D01*
X2699Y2316D01*
Y2339D01*
X2734Y2310D02*
X2746D01*
X2740D01*
Y2345D01*
X2734Y2339D01*
X2763Y2316D02*
X2769Y2310D01*
X2781D01*
X2787Y2316D01*
Y2339D01*
X2781Y2345D01*
X2769D01*
X2763Y2339D01*
Y2333D01*
X2769Y2327D01*
X2787D01*
X2425Y2420D02*
Y2455D01*
X2442D01*
X2448Y2449D01*
Y2437D01*
X2442Y2432D01*
X2425D01*
X2483Y2449D02*
X2477Y2455D01*
X2466D01*
X2460Y2449D01*
Y2426D01*
X2466Y2420D01*
X2477D01*
X2483Y2426D01*
X2495Y2455D02*
Y2420D01*
X2512D01*
X2518Y2426D01*
Y2432D01*
X2512Y2437D01*
X2495D01*
X2512D01*
X2518Y2443D01*
Y2449D01*
X2512Y2455D01*
X2495D01*
X2571Y2420D02*
Y2455D01*
X2582D02*
Y2420D01*
X2565Y2443D02*
X2582D01*
X2588D01*
X2565Y2432D02*
X2588D01*
X2600Y2449D02*
X2606Y2455D01*
X2617D01*
X2623Y2449D01*
Y2426D01*
X2617Y2420D01*
X2606D01*
X2600Y2426D01*
Y2449D01*
X2635D02*
X2641Y2455D01*
X2652D01*
X2658Y2449D01*
Y2426D01*
X2652Y2420D01*
X2641D01*
X2635Y2426D01*
Y2449D01*
X2693Y2420D02*
X2670D01*
X2693Y2443D01*
Y2449D01*
X2687Y2455D01*
X2676D01*
X2670Y2449D01*
X2705Y2437D02*
X2728D01*
X2740Y2449D02*
X2746Y2455D01*
X2757D01*
X2763Y2449D01*
Y2426D01*
X2757Y2420D01*
X2746D01*
X2740Y2426D01*
Y2449D01*
X2775D02*
X2781Y2455D01*
X2792D01*
X2798Y2449D01*
Y2426D01*
X2792Y2420D01*
X2781D01*
X2775Y2426D01*
Y2449D01*
X2810D02*
X2816Y2455D01*
X2827D01*
X2833Y2449D01*
Y2443D01*
X2827Y2437D01*
X2833Y2432D01*
Y2426D01*
X2827Y2420D01*
X2816D01*
X2810Y2426D01*
Y2432D01*
X2816Y2437D01*
X2810Y2443D01*
Y2449D01*
X2816Y2437D02*
X2827D01*
X2845Y2420D02*
X2857D01*
X2851D01*
Y2455D01*
X2845Y2449D01*
X2909Y2420D02*
Y2455D01*
X2927D01*
X2932Y2449D01*
Y2437D01*
X2927Y2432D01*
X2909D01*
X2921D02*
X2932Y2420D01*
X2961D02*
X2950D01*
X2944Y2426D01*
Y2437D01*
X2950Y2443D01*
X2961D01*
X2967Y2437D01*
Y2432D01*
X2944D01*
X2979Y2443D02*
X2991Y2420D01*
X3002Y2443D01*
X3049Y2437D02*
X3072D01*
X2488Y530D02*
G03*
X2488Y530I-24J0D01*
G01*
D17*
X-209Y1094D02*
Y1054D01*
X-249Y1094D01*
X-259D01*
X-269Y1084D01*
Y1064D01*
X-259Y1054D01*
X-269Y1154D02*
Y1114D01*
X-239D01*
X-249Y1134D01*
Y1144D01*
X-239Y1154D01*
X-219D01*
X-209Y1144D01*
Y1124D01*
X-219Y1114D01*
X-259Y1174D02*
X-269Y1184D01*
Y1204D01*
X-259Y1214D01*
X-249D01*
X-239Y1204D01*
Y1194D01*
Y1204D01*
X-229Y1214D01*
X-219D01*
X-209Y1204D01*
Y1184D01*
X-219Y1174D01*
X-259Y1234D02*
X-269Y1244D01*
Y1264D01*
X-259Y1274D01*
X-219D01*
X-209Y1264D01*
Y1244D01*
X-219Y1234D01*
X-259D01*
X-209Y1294D02*
X-219D01*
Y1304D01*
X-209D01*
Y1294D01*
X-259Y1344D02*
X-269Y1354D01*
Y1374D01*
X-259Y1384D01*
X-219D01*
X-209Y1374D01*
Y1354D01*
X-219Y1344D01*
X-259D01*
Y1404D02*
X-269Y1414D01*
Y1434D01*
X-259Y1444D01*
X-219D01*
X-209Y1434D01*
Y1414D01*
X-219Y1404D01*
X-259D01*
X914Y-276D02*
X874D01*
X914Y-236D01*
Y-226D01*
X904Y-216D01*
X884D01*
X874Y-226D01*
X974Y-276D02*
X934D01*
X974Y-236D01*
Y-226D01*
X964Y-216D01*
X944D01*
X934Y-226D01*
X994Y-276D02*
X1014D01*
X1004D01*
Y-216D01*
X994Y-226D01*
X1044D02*
X1054Y-216D01*
X1074D01*
X1084Y-226D01*
Y-266D01*
X1074Y-276D01*
X1054D01*
X1044Y-266D01*
Y-226D01*
X1104Y-276D02*
Y-266D01*
X1114D01*
Y-276D01*
X1104D01*
X1154Y-226D02*
X1164Y-216D01*
X1184D01*
X1194Y-226D01*
Y-266D01*
X1184Y-276D01*
X1164D01*
X1154Y-266D01*
Y-226D01*
X1214D02*
X1224Y-216D01*
X1244D01*
X1254Y-226D01*
Y-266D01*
X1244Y-276D01*
X1224D01*
X1214Y-266D01*
Y-226D01*
D63*
X-265Y60D02*
X-245Y0D01*
X-225Y60D01*
X-245Y2530D02*
X-225Y2470D01*
X-265D02*
X-245Y2530D01*
Y0D02*
Y1038D01*
Y1460D02*
Y2530D01*
X-255Y0D02*
X-40D01*
X-255Y2530D02*
X-40D01*
X-25Y-240D02*
X35Y-220D01*
X-25Y-240D02*
X35Y-260D01*
X2125D02*
X2185Y-240D01*
X2125Y-220D02*
X2185Y-240D01*
X-25D02*
X858D01*
X1270D02*
X2185D01*
X-25Y-250D02*
Y-15D01*
X2185Y-250D02*
Y-15D01*
X2974Y860D02*
Y920D01*
X2944Y890D01*
X2984D01*
X3044Y860D02*
X3004D01*
X3044Y900D01*
Y910D01*
X3034Y920D01*
X3014D01*
X3004Y910D01*
X3640Y860D02*
X3660D01*
X3650D01*
Y920D01*
X3640Y910D01*
X3730Y860D02*
X3690D01*
X3730Y900D01*
Y910D01*
X3720Y920D01*
X3700D01*
X3690Y910D01*
X3750Y860D02*
Y900D01*
X3760D01*
X3770Y890D01*
Y860D01*
Y890D01*
X3780Y900D01*
X3790Y890D01*
Y860D01*
X3810D02*
X3830D01*
X3820D01*
Y900D01*
X3810D01*
X3860Y860D02*
X3880D01*
X3870D01*
Y920D01*
X3860D01*
X3990Y860D02*
X3970Y880D01*
Y900D01*
X3990Y920D01*
X4020Y910D02*
X4030Y920D01*
X4050D01*
X4060Y910D01*
Y870D01*
X4050Y860D01*
X4030D01*
X4020Y870D01*
Y910D01*
X4080Y860D02*
Y870D01*
X4090D01*
Y860D01*
X4080D01*
X4130Y910D02*
X4140Y920D01*
X4160D01*
X4170Y910D01*
Y900D01*
X4160Y890D01*
X4150D01*
X4160D01*
X4170Y880D01*
Y870D01*
X4160Y860D01*
X4140D01*
X4130Y870D01*
X4190Y910D02*
X4200Y920D01*
X4220D01*
X4229Y910D01*
Y870D01*
X4220Y860D01*
X4200D01*
X4190Y870D01*
Y910D01*
X4279Y860D02*
Y920D01*
X4249Y890D01*
X4289D01*
X4309Y910D02*
X4319Y920D01*
X4339D01*
X4349Y910D01*
Y900D01*
X4339Y890D01*
X4349Y880D01*
Y870D01*
X4339Y860D01*
X4319D01*
X4309Y870D01*
Y880D01*
X4319Y890D01*
X4309Y900D01*
Y910D01*
X4319Y890D02*
X4339D01*
X4369Y860D02*
Y900D01*
X4379D01*
X4389Y890D01*
Y860D01*
Y890D01*
X4399Y900D01*
X4409Y890D01*
Y860D01*
X4429D02*
Y900D01*
X4439D01*
X4449Y890D01*
Y860D01*
Y890D01*
X4459Y900D01*
X4469Y890D01*
Y860D01*
X4489D02*
X4509Y880D01*
Y900D01*
X4489Y920D01*
X4983Y860D02*
Y920D01*
X5013D01*
X5023Y910D01*
Y890D01*
X5013Y880D01*
X4983D01*
X5043Y920D02*
X5083D01*
X5063D01*
Y860D01*
X5103Y920D02*
Y860D01*
Y890D01*
X5143D01*
Y920D01*
Y860D01*
X5487D02*
Y920D01*
X5517D01*
X5527Y910D01*
Y890D01*
X5517Y880D01*
X5487D01*
X5507D02*
X5527Y860D01*
X5557D02*
X5577D01*
X5587Y870D01*
Y890D01*
X5577Y900D01*
X5557D01*
X5547Y890D01*
Y870D01*
X5557Y860D01*
X5607Y900D02*
Y870D01*
X5617Y860D01*
X5647D01*
Y900D01*
X5667Y860D02*
Y900D01*
X5697D01*
X5707Y890D01*
Y860D01*
X5767Y920D02*
Y860D01*
X5737D01*
X5727Y870D01*
Y890D01*
X5737Y900D01*
X5767D01*
X2974Y740D02*
Y800D01*
X2944Y770D01*
X2984D01*
X3680Y740D02*
X3640D01*
X3680Y780D01*
Y790D01*
X3670Y800D01*
X3650D01*
X3640Y790D01*
X3740Y800D02*
X3700D01*
Y770D01*
X3720Y780D01*
X3730D01*
X3740Y770D01*
Y750D01*
X3730Y740D01*
X3710D01*
X3700Y750D01*
X3760Y740D02*
Y780D01*
X3770D01*
X3780Y770D01*
Y740D01*
Y770D01*
X3790Y780D01*
X3800Y770D01*
Y740D01*
X3820D02*
X3840D01*
X3830D01*
Y780D01*
X3820D01*
X3870Y740D02*
X3890D01*
X3880D01*
Y800D01*
X3870D01*
X4000Y740D02*
X3980Y760D01*
Y780D01*
X4000Y800D01*
X4030Y790D02*
X4040Y800D01*
X4060D01*
X4070Y790D01*
Y750D01*
X4060Y740D01*
X4040D01*
X4030Y750D01*
Y790D01*
X4090Y740D02*
Y750D01*
X4100D01*
Y740D01*
X4090D01*
X4180Y800D02*
X4160Y790D01*
X4140Y770D01*
Y750D01*
X4150Y740D01*
X4170D01*
X4180Y750D01*
Y760D01*
X4170Y770D01*
X4140D01*
X4200Y790D02*
X4210Y800D01*
X4229D01*
X4239Y790D01*
Y780D01*
X4229Y770D01*
X4220D01*
X4229D01*
X4239Y760D01*
Y750D01*
X4229Y740D01*
X4210D01*
X4200Y750D01*
X4299Y800D02*
X4259D01*
Y770D01*
X4279Y780D01*
X4289D01*
X4299Y770D01*
Y750D01*
X4289Y740D01*
X4269D01*
X4259Y750D01*
X4319Y740D02*
Y780D01*
X4329D01*
X4339Y770D01*
Y740D01*
Y770D01*
X4349Y780D01*
X4359Y770D01*
Y740D01*
X4379D02*
Y780D01*
X4389D01*
X4399Y770D01*
Y740D01*
Y770D01*
X4409Y780D01*
X4419Y770D01*
Y740D01*
X4439D02*
X4459Y760D01*
Y780D01*
X4439Y800D01*
X4983Y740D02*
Y800D01*
X5013D01*
X5023Y790D01*
Y770D01*
X5013Y760D01*
X4983D01*
X5043Y800D02*
X5083D01*
X5063D01*
Y740D01*
X5103Y800D02*
Y740D01*
Y770D01*
X5143D01*
Y800D01*
Y740D01*
X5487D02*
Y800D01*
X5517D01*
X5527Y790D01*
Y770D01*
X5517Y760D01*
X5487D01*
X5507D02*
X5527Y740D01*
X5557D02*
X5577D01*
X5587Y750D01*
Y770D01*
X5577Y780D01*
X5557D01*
X5547Y770D01*
Y750D01*
X5557Y740D01*
X5607Y780D02*
Y750D01*
X5617Y740D01*
X5647D01*
Y780D01*
X5667Y740D02*
Y780D01*
X5697D01*
X5707Y770D01*
Y740D01*
X5767Y800D02*
Y740D01*
X5737D01*
X5727Y750D01*
Y770D01*
X5737Y780D01*
X5767D01*
X2944Y630D02*
X2954Y620D01*
X2974D01*
X2984Y630D01*
Y670D01*
X2974Y680D01*
X2954D01*
X2944Y670D01*
Y660D01*
X2954Y650D01*
X2984D01*
X3680Y620D02*
X3640D01*
X3680Y660D01*
Y670D01*
X3670Y680D01*
X3650D01*
X3640Y670D01*
X3700D02*
X3710Y680D01*
X3730D01*
X3740Y670D01*
Y660D01*
X3730Y650D01*
X3740Y640D01*
Y630D01*
X3730Y620D01*
X3710D01*
X3700Y630D01*
Y640D01*
X3710Y650D01*
X3700Y660D01*
Y670D01*
X3710Y650D02*
X3730D01*
X3760Y620D02*
Y660D01*
X3770D01*
X3780Y650D01*
Y620D01*
Y650D01*
X3790Y660D01*
X3800Y650D01*
Y620D01*
X3820D02*
X3840D01*
X3830D01*
Y660D01*
X3820D01*
X3870Y620D02*
X3890D01*
X3880D01*
Y680D01*
X3870D01*
X4000Y620D02*
X3980Y640D01*
Y660D01*
X4000Y680D01*
X4030Y670D02*
X4040Y680D01*
X4060D01*
X4070Y670D01*
Y630D01*
X4060Y620D01*
X4040D01*
X4030Y630D01*
Y670D01*
X4090Y620D02*
Y630D01*
X4100D01*
Y620D01*
X4090D01*
X4140Y680D02*
X4180D01*
Y670D01*
X4140Y630D01*
Y620D01*
X4200D02*
X4220D01*
X4210D01*
Y680D01*
X4200Y670D01*
X4249Y620D02*
X4269D01*
X4259D01*
Y680D01*
X4249Y670D01*
X4339Y620D02*
X4299D01*
X4339Y660D01*
Y670D01*
X4329Y680D01*
X4309D01*
X4299Y670D01*
X4359Y620D02*
Y660D01*
X4369D01*
X4379Y650D01*
Y620D01*
Y650D01*
X4389Y660D01*
X4399Y650D01*
Y620D01*
X4419D02*
Y660D01*
X4429D01*
X4439Y650D01*
Y620D01*
Y650D01*
X4449Y660D01*
X4459Y650D01*
Y620D01*
X4479D02*
X4499Y640D01*
Y660D01*
X4479Y680D01*
X4983Y620D02*
Y680D01*
X5013D01*
X5023Y670D01*
Y650D01*
X5013Y640D01*
X4983D01*
X5043Y680D02*
X5083D01*
X5063D01*
Y620D01*
X5103Y680D02*
Y620D01*
Y650D01*
X5143D01*
Y680D01*
Y620D01*
X5487D02*
Y680D01*
X5517D01*
X5527Y670D01*
Y650D01*
X5517Y640D01*
X5487D01*
X5507D02*
X5527Y620D01*
X5557D02*
X5577D01*
X5587Y630D01*
Y650D01*
X5577Y660D01*
X5557D01*
X5547Y650D01*
Y630D01*
X5557Y620D01*
X5607Y660D02*
Y630D01*
X5617Y620D01*
X5647D01*
Y660D01*
X5667Y620D02*
Y660D01*
X5697D01*
X5707Y650D01*
Y620D01*
X5767Y680D02*
Y620D01*
X5737D01*
X5727Y630D01*
Y650D01*
X5737Y660D01*
X5767D01*
X2944Y550D02*
X2954Y560D01*
X2974D01*
X2984Y550D01*
Y540D01*
X2974Y530D01*
X2964D01*
X2974D01*
X2984Y520D01*
Y510D01*
X2974Y500D01*
X2954D01*
X2944Y510D01*
X3640Y550D02*
X3650Y560D01*
X3670D01*
X3680Y550D01*
Y540D01*
X3670Y530D01*
X3660D01*
X3670D01*
X3680Y520D01*
Y510D01*
X3670Y500D01*
X3650D01*
X3640Y510D01*
X3700D02*
X3710Y500D01*
X3730D01*
X3740Y510D01*
Y550D01*
X3730Y560D01*
X3710D01*
X3700Y550D01*
Y540D01*
X3710Y530D01*
X3740D01*
X3760Y500D02*
Y510D01*
X3770D01*
Y500D01*
X3760D01*
X3810Y550D02*
X3820Y560D01*
X3840D01*
X3850Y550D01*
Y540D01*
X3840Y530D01*
X3830D01*
X3840D01*
X3850Y520D01*
Y510D01*
X3840Y500D01*
X3820D01*
X3810Y510D01*
X3870Y560D02*
X3910D01*
Y550D01*
X3870Y510D01*
Y500D01*
X3930D02*
Y540D01*
X3940D01*
X3950Y530D01*
Y500D01*
Y530D01*
X3960Y540D01*
X3970Y530D01*
Y500D01*
X3990D02*
X4010D01*
X4000D01*
Y540D01*
X3990D01*
X4040Y500D02*
X4060D01*
X4050D01*
Y560D01*
X4040D01*
X4170Y500D02*
X4150Y520D01*
Y540D01*
X4170Y560D01*
X4200Y500D02*
X4220D01*
X4210D01*
Y560D01*
X4200Y550D01*
X4249Y500D02*
Y540D01*
X4259D01*
X4269Y530D01*
Y500D01*
Y530D01*
X4279Y540D01*
X4289Y530D01*
Y500D01*
X4309D02*
Y540D01*
X4319D01*
X4329Y530D01*
Y500D01*
Y530D01*
X4339Y540D01*
X4349Y530D01*
Y500D01*
X4369D02*
X4389Y520D01*
Y540D01*
X4369Y560D01*
X4983Y500D02*
Y560D01*
X5013D01*
X5023Y550D01*
Y530D01*
X5013Y520D01*
X4983D01*
X5043Y560D02*
X5083D01*
X5063D01*
Y500D01*
X5103Y560D02*
Y500D01*
Y530D01*
X5143D01*
Y560D01*
Y500D01*
X5487D02*
Y560D01*
X5517D01*
X5527Y550D01*
Y530D01*
X5517Y520D01*
X5487D01*
X5507D02*
X5527Y500D01*
X5557D02*
X5577D01*
X5587Y510D01*
Y530D01*
X5577Y540D01*
X5557D01*
X5547Y530D01*
Y510D01*
X5557Y500D01*
X5607Y540D02*
Y510D01*
X5617Y500D01*
X5647D01*
Y540D01*
X5667Y500D02*
Y540D01*
X5697D01*
X5707Y530D01*
Y500D01*
X5767Y560D02*
Y500D01*
X5737D01*
X5727Y510D01*
Y530D01*
X5737Y540D01*
X5767D01*
X2974Y380D02*
Y440D01*
X2944Y410D01*
X2984D01*
X3680Y440D02*
X3660Y430D01*
X3640Y410D01*
Y390D01*
X3650Y380D01*
X3670D01*
X3680Y390D01*
Y400D01*
X3670Y410D01*
X3640D01*
X3740Y380D02*
X3700D01*
X3740Y420D01*
Y430D01*
X3730Y440D01*
X3710D01*
X3700Y430D01*
X3760Y380D02*
Y420D01*
X3770D01*
X3780Y410D01*
Y380D01*
Y410D01*
X3790Y420D01*
X3800Y410D01*
Y380D01*
X3820D02*
X3840D01*
X3830D01*
Y420D01*
X3820D01*
X3870Y380D02*
X3890D01*
X3880D01*
Y440D01*
X3870D01*
X4000Y380D02*
X3980Y400D01*
Y420D01*
X4000Y440D01*
X4030Y380D02*
X4050D01*
X4040D01*
Y440D01*
X4030Y430D01*
X4080Y380D02*
Y390D01*
X4090D01*
Y380D01*
X4080D01*
X4170Y440D02*
X4130D01*
Y410D01*
X4150Y420D01*
X4160D01*
X4170Y410D01*
Y390D01*
X4160Y380D01*
X4140D01*
X4130Y390D01*
X4190Y440D02*
X4229D01*
Y430D01*
X4190Y390D01*
Y380D01*
X4279D02*
Y440D01*
X4249Y410D01*
X4289D01*
X4309Y430D02*
X4319Y440D01*
X4339D01*
X4349Y430D01*
Y420D01*
X4339Y410D01*
X4349Y400D01*
Y390D01*
X4339Y380D01*
X4319D01*
X4309Y390D01*
Y400D01*
X4319Y410D01*
X4309Y420D01*
Y430D01*
X4319Y410D02*
X4339D01*
X4369Y380D02*
Y420D01*
X4379D01*
X4389Y410D01*
Y380D01*
Y410D01*
X4399Y420D01*
X4409Y410D01*
Y380D01*
X4429D02*
Y420D01*
X4439D01*
X4449Y410D01*
Y380D01*
Y410D01*
X4459Y420D01*
X4469Y410D01*
Y380D01*
X4489D02*
X4509Y400D01*
Y420D01*
X4489Y440D01*
X4983Y380D02*
Y440D01*
X5013D01*
X5023Y430D01*
Y410D01*
X5013Y400D01*
X4983D01*
X5043Y440D02*
X5083D01*
X5063D01*
Y380D01*
X5103Y440D02*
Y380D01*
Y410D01*
X5143D01*
Y440D01*
Y380D01*
X5487D02*
Y440D01*
X5517D01*
X5527Y430D01*
Y410D01*
X5517Y400D01*
X5487D01*
X5507D02*
X5527Y380D01*
X5557D02*
X5577D01*
X5587Y390D01*
Y410D01*
X5577Y420D01*
X5557D01*
X5547Y410D01*
Y390D01*
X5557Y380D01*
X5607Y420D02*
Y390D01*
X5617Y380D01*
X5647D01*
Y420D01*
X5667Y380D02*
Y420D01*
X5697D01*
X5707Y410D01*
Y380D01*
X5767Y440D02*
Y380D01*
X5737D01*
X5727Y390D01*
Y410D01*
X5737Y420D01*
X5767D01*
X2984Y320D02*
X2964Y310D01*
X2944Y290D01*
Y270D01*
X2954Y260D01*
X2974D01*
X2984Y270D01*
Y280D01*
X2974Y290D01*
X2944D01*
X3044Y260D02*
X3004D01*
X3044Y300D01*
Y310D01*
X3034Y320D01*
X3014D01*
X3004Y310D01*
X3152Y320D02*
X3192D01*
X3172D01*
Y260D01*
X3222D02*
X3242D01*
X3252Y270D01*
Y290D01*
X3242Y300D01*
X3222D01*
X3212Y290D01*
Y270D01*
X3222Y260D01*
X3282Y310D02*
Y300D01*
X3272D01*
X3292D01*
X3282D01*
Y270D01*
X3292Y260D01*
X3332Y300D02*
X3352D01*
X3362Y290D01*
Y260D01*
X3332D01*
X3322Y270D01*
X3332Y280D01*
X3362D01*
X3382Y260D02*
X3402D01*
X3392D01*
Y320D01*
X3382D01*
D90*
X52Y2122D02*
Y2138D01*
X68D01*
Y2122D01*
X52D01*
Y1577D02*
Y1593D01*
X68D01*
Y1577D01*
X52D01*
X2072Y1707D02*
Y1723D01*
X2088D01*
Y1707D01*
X2072D01*
Y2037D02*
Y2053D01*
X2088D01*
Y2037D01*
X2072D01*
X85Y927D02*
X77Y943D01*
X93D01*
X85Y927D01*
Y877D02*
X77Y893D01*
X93D01*
X85Y877D01*
Y827D02*
X77Y843D01*
X93D01*
X85Y827D01*
Y777D02*
X77Y793D01*
X93D01*
X85Y777D01*
X572Y687D02*
X576Y691D01*
X580D01*
X576Y695D01*
X580Y699D01*
X576D01*
X572Y703D01*
X568Y699D01*
X564D01*
X568Y695D01*
X564Y691D01*
X568D01*
X572Y687D01*
X760Y667D02*
X764Y671D01*
X768D01*
X764Y675D01*
X768Y679D01*
X764D01*
X760Y683D01*
X756Y679D01*
X752D01*
X756Y675D01*
X752Y671D01*
X756D01*
X760Y667D01*
X964Y522D02*
X968Y526D01*
X972D01*
X968Y530D01*
X972Y534D01*
X968D01*
X964Y538D01*
X960Y534D01*
X956D01*
X960Y530D01*
X956Y526D01*
X960D01*
X964Y522D01*
X1300Y617D02*
X1304Y621D01*
X1308D01*
X1304Y625D01*
X1308Y629D01*
X1304D01*
X1300Y633D01*
X1296Y629D01*
X1292D01*
X1296Y625D01*
X1292Y621D01*
X1296D01*
X1300Y617D01*
X876Y1817D02*
X880Y1821D01*
X884D01*
X880Y1825D01*
X884Y1829D01*
X880D01*
X876Y1833D01*
X872Y1829D01*
X868D01*
X872Y1825D01*
X868Y1821D01*
X872D01*
X876Y1817D01*
X930Y1757D02*
X934Y1761D01*
X938D01*
X934Y1765D01*
X938Y1769D01*
X934D01*
X930Y1773D01*
X926Y1769D01*
X922D01*
X926Y1765D01*
X922Y1761D01*
X926D01*
X930Y1757D01*
X876Y2132D02*
X880Y2136D01*
X884D01*
X880Y2140D01*
X884Y2144D01*
X880D01*
X876Y2148D01*
X872Y2144D01*
X868D01*
X872Y2140D01*
X868Y2136D01*
X872D01*
X876Y2132D01*
X65Y1210D02*
X69Y1214D01*
X73D01*
X69Y1218D01*
X73Y1222D01*
X69D01*
X65Y1226D01*
X61Y1222D01*
X57D01*
X61Y1218D01*
X57Y1214D01*
X61D01*
X65Y1210D01*
X82Y1422D02*
X86Y1430D01*
X82Y1438D01*
X90Y1434D01*
X98Y1438D01*
X94Y1430D01*
X98Y1422D01*
X90Y1426D01*
X82Y1422D01*
X795Y1072D02*
X799Y1076D01*
X803D01*
X799Y1080D01*
X803Y1084D01*
X799D01*
X795Y1088D01*
X791Y1084D01*
X787D01*
X791Y1080D01*
X787Y1076D01*
X791D01*
X795Y1072D01*
X857Y1082D02*
X861Y1090D01*
X857Y1098D01*
X865Y1094D01*
X873Y1098D01*
X869Y1090D01*
X873Y1082D01*
X865Y1086D01*
X857Y1082D01*
X935Y997D02*
X939Y1001D01*
X943D01*
X939Y1005D01*
X943Y1009D01*
X939D01*
X935Y1013D01*
X931Y1009D01*
X927D01*
X931Y1005D01*
X927Y1001D01*
X931D01*
X935Y997D01*
X1050Y1097D02*
X1054Y1101D01*
X1058D01*
X1054Y1105D01*
X1058Y1109D01*
X1054D01*
X1050Y1113D01*
X1046Y1109D01*
X1042D01*
X1046Y1105D01*
X1042Y1101D01*
X1046D01*
X1050Y1097D01*
X852Y1152D02*
X856Y1160D01*
X852Y1168D01*
X860Y1164D01*
X868Y1168D01*
X864Y1160D01*
X868Y1152D01*
X860Y1156D01*
X852Y1152D01*
X937Y1082D02*
X941Y1090D01*
X937Y1098D01*
X945Y1094D01*
X953Y1098D01*
X949Y1090D01*
X953Y1082D01*
X945Y1086D01*
X937Y1082D01*
Y1152D02*
X941Y1160D01*
X937Y1168D01*
X945Y1164D01*
X953Y1168D01*
X949Y1160D01*
X953Y1152D01*
X945Y1156D01*
X937Y1152D01*
X275Y1077D02*
X279Y1081D01*
X283D01*
X279Y1085D01*
X283Y1089D01*
X279D01*
X275Y1093D01*
X271Y1089D01*
X267D01*
X271Y1085D01*
X267Y1081D01*
X271D01*
X275Y1077D01*
X527Y2327D02*
X531Y2335D01*
X527Y2343D01*
X535Y2339D01*
X543Y2343D01*
X539Y2335D01*
X543Y2327D01*
X535Y2331D01*
X527Y2327D01*
X340Y1362D02*
X344Y1366D01*
X348D01*
X344Y1370D01*
X348Y1374D01*
X344D01*
X340Y1378D01*
X336Y1374D01*
X332D01*
X336Y1370D01*
X332Y1366D01*
X336D01*
X340Y1362D01*
X447Y2327D02*
X451Y2335D01*
X447Y2343D01*
X455Y2339D01*
X463Y2343D01*
X459Y2335D01*
X463Y2327D01*
X455Y2331D01*
X447Y2327D01*
X527Y2242D02*
X531Y2250D01*
X527Y2258D01*
X535Y2254D01*
X543Y2258D01*
X539Y2250D01*
X543Y2242D01*
X535Y2246D01*
X527Y2242D01*
X447D02*
X451Y2250D01*
X447Y2258D01*
X455Y2254D01*
X463Y2258D01*
X459Y2250D01*
X463Y2242D01*
X455Y2246D01*
X447Y2242D01*
X235Y1887D02*
X239Y1891D01*
X243D01*
X239Y1895D01*
X243Y1899D01*
X239D01*
X235Y1903D01*
X231Y1899D01*
X227D01*
X231Y1895D01*
X227Y1891D01*
X231D01*
X235Y1887D01*
X625Y1179D02*
X629Y1184D01*
X633D01*
X629Y1188D01*
X633Y1191D01*
X629D01*
X625Y1196D01*
X621Y1191D01*
X617D01*
X621Y1188D01*
X617Y1184D01*
X621D01*
X625Y1179D01*
X65Y1145D02*
X69Y1149D01*
X73D01*
X69Y1153D01*
X73Y1157D01*
X69D01*
X65Y1161D01*
X61Y1157D01*
X57D01*
X61Y1153D01*
X57Y1149D01*
X61D01*
X65Y1145D01*
X245Y617D02*
X249Y621D01*
X253D01*
X249Y625D01*
X253Y629D01*
X249D01*
X245Y633D01*
X241Y629D01*
X237D01*
X241Y625D01*
X237Y621D01*
X241D01*
X245Y617D01*
X544Y731D02*
X548Y735D01*
X552D01*
X548Y739D01*
X552Y743D01*
X548D01*
X544Y747D01*
X540Y743D01*
X536D01*
X540Y739D01*
X536Y735D01*
X540D01*
X544Y731D01*
X739Y729D02*
X743Y733D01*
X747D01*
X743Y737D01*
X747Y741D01*
X743D01*
X739Y745D01*
X735Y741D01*
X731D01*
X735Y737D01*
X731Y733D01*
X735D01*
X739Y729D01*
X485Y462D02*
X489Y466D01*
X493D01*
X489Y470D01*
X493Y474D01*
X489D01*
X485Y478D01*
X481Y474D01*
X477D01*
X481Y470D01*
X477Y466D01*
X481D01*
X485Y462D01*
X675Y372D02*
X679Y376D01*
X683D01*
X679Y380D01*
X683Y384D01*
X679D01*
X675Y388D01*
X671Y384D01*
X667D01*
X671Y380D01*
X667Y376D01*
X671D01*
X675Y372D01*
X1185Y992D02*
X1189Y996D01*
X1193D01*
X1189Y1000D01*
X1193Y1004D01*
X1189D01*
X1185Y1008D01*
X1181Y1004D01*
X1177D01*
X1181Y1000D01*
X1177Y996D01*
X1181D01*
X1185Y992D01*
X500Y730D02*
X504Y734D01*
X508D01*
X504Y738D01*
X508Y742D01*
X504D01*
X500Y746D01*
X496Y742D01*
X492D01*
X496Y738D01*
X492Y734D01*
X496D01*
X500Y730D01*
X565Y987D02*
X569Y991D01*
X573D01*
X569Y995D01*
X573Y999D01*
X569D01*
X565Y1003D01*
X561Y999D01*
X557D01*
X561Y995D01*
X557Y991D01*
X561D01*
X565Y987D01*
X565Y932D02*
X569Y936D01*
X573D01*
X569Y940D01*
X573Y944D01*
X569D01*
X565Y948D01*
X561Y944D01*
X557D01*
X561Y940D01*
X557Y936D01*
X561D01*
X565Y932D01*
X140Y1027D02*
X144Y1031D01*
X148D01*
X144Y1035D01*
X148Y1039D01*
X144D01*
X140Y1043D01*
X136Y1039D01*
X132D01*
X136Y1035D01*
X132Y1031D01*
X136D01*
X140Y1027D01*
X280Y652D02*
X284Y656D01*
X288D01*
X284Y660D01*
X288Y664D01*
X284D01*
X280Y668D01*
X276Y664D01*
X272D01*
X276Y660D01*
X272Y656D01*
X276D01*
X280Y652D01*
X1195Y1182D02*
X1199Y1186D01*
X1203D01*
X1199Y1190D01*
X1203Y1194D01*
X1199D01*
X1195Y1198D01*
X1191Y1194D01*
X1187D01*
X1191Y1190D01*
X1187Y1186D01*
X1191D01*
X1195Y1182D01*
X960Y2127D02*
X964Y2131D01*
X968D01*
X964Y2135D01*
X968Y2139D01*
X964D01*
X960Y2143D01*
X956Y2139D01*
X952D01*
X956Y2135D01*
X952Y2131D01*
X956D01*
X960Y2127D01*
X1569Y592D02*
X1573Y596D01*
X1577D01*
X1573Y600D01*
X1577Y604D01*
X1573D01*
X1569Y608D01*
X1565Y604D01*
X1561D01*
X1565Y600D01*
X1561Y596D01*
X1565D01*
X1569Y592D01*
X1015Y877D02*
X1019Y881D01*
X1023D01*
X1019Y885D01*
X1023Y889D01*
X1019D01*
X1015Y893D01*
X1011Y889D01*
X1007D01*
X1011Y885D01*
X1007Y881D01*
X1011D01*
X1015Y877D01*
X245Y932D02*
X249Y936D01*
X253D01*
X249Y940D01*
X253Y944D01*
X249D01*
X245Y948D01*
X241Y944D01*
X237D01*
X241Y940D01*
X237Y936D01*
X241D01*
X245Y932D01*
X340Y417D02*
X344Y421D01*
X348D01*
X344Y425D01*
X348Y429D01*
X344D01*
X340Y433D01*
X336Y429D01*
X332D01*
X336Y425D01*
X332Y421D01*
X336D01*
X340Y417D01*
X1355Y917D02*
X1359Y921D01*
X1363D01*
X1359Y925D01*
X1363Y929D01*
X1359D01*
X1355Y933D01*
X1351Y929D01*
X1347D01*
X1351Y925D01*
X1347Y921D01*
X1351D01*
X1355Y917D01*
X876Y517D02*
X880Y521D01*
X884D01*
X880Y525D01*
X884Y529D01*
X880D01*
X876Y533D01*
X872Y529D01*
X868D01*
X872Y525D01*
X868Y521D01*
X872D01*
X876Y517D01*
X1185Y527D02*
X1189Y531D01*
X1193D01*
X1189Y535D01*
X1193Y539D01*
X1189D01*
X1185Y543D01*
X1181Y539D01*
X1177D01*
X1181Y535D01*
X1177Y531D01*
X1181D01*
X1185Y527D01*
X1569Y937D02*
X1573Y941D01*
X1577D01*
X1573Y945D01*
X1577Y949D01*
X1573D01*
X1569Y953D01*
X1565Y949D01*
X1561D01*
X1565Y945D01*
X1561Y941D01*
X1565D01*
X1569Y937D01*
X1520Y1692D02*
X1524Y1696D01*
X1528D01*
X1524Y1700D01*
X1528Y1704D01*
X1524D01*
X1520Y1708D01*
X1516Y1704D01*
X1512D01*
X1516Y1700D01*
X1512Y1696D01*
X1516D01*
X1520Y1692D01*
X1500Y1532D02*
X1504Y1536D01*
X1508D01*
X1504Y1540D01*
X1508Y1544D01*
X1504D01*
X1500Y1548D01*
X1496Y1544D01*
X1492D01*
X1496Y1540D01*
X1492Y1536D01*
X1496D01*
X1500Y1532D01*
X1410Y717D02*
X1414Y721D01*
X1418D01*
X1414Y725D01*
X1418Y729D01*
X1414D01*
X1410Y733D01*
X1406Y729D01*
X1402D01*
X1406Y725D01*
X1402Y721D01*
X1406D01*
X1410Y717D01*
X1375Y1017D02*
X1379Y1021D01*
X1383D01*
X1379Y1025D01*
X1383Y1029D01*
X1379D01*
X1375Y1033D01*
X1371Y1029D01*
X1367D01*
X1371Y1025D01*
X1367Y1021D01*
X1371D01*
X1375Y1017D01*
X774Y707D02*
X778Y711D01*
X782D01*
X778Y715D01*
X782Y719D01*
X778D01*
X774Y723D01*
X770Y719D01*
X766D01*
X770Y715D01*
X766Y711D01*
X770D01*
X774Y707D01*
X2464Y866D02*
X2476Y878D01*
X2488D01*
X2476Y890D01*
X2488Y902D01*
X2476D01*
X2464Y914D01*
X2452Y902D01*
X2440D01*
X2452Y890D01*
X2440Y878D01*
X2452D01*
X2464Y866D01*
Y746D02*
X2440Y794D01*
X2488D01*
X2464Y746D01*
X2440Y626D02*
X2452Y650D01*
X2440Y674D01*
X2464Y662D01*
X2488Y674D01*
X2476Y650D01*
X2488Y626D01*
X2464Y638D01*
X2440Y626D01*
Y386D02*
Y434D01*
X2488D01*
Y386D01*
X2440D01*
D91*
X708Y160D02*
G03*
X708Y160I-8J0D01*
G01*
X508D02*
G03*
X508Y160I-8J0D01*
G01*
X608D02*
G03*
X608Y160I-8J0D01*
G01*
D92*
X2488Y1064D02*
X2476Y1076D01*
X2452D01*
X2440Y1064D01*
Y1052D01*
X2452Y1040D01*
X2476D01*
X2488Y1028D01*
Y1016D01*
X2476Y1004D01*
X2452D01*
X2440Y1016D01*
X2512Y1052D02*
Y1016D01*
X2524Y1004D01*
X2560D01*
Y992D01*
X2548Y980D01*
X2536D01*
X2560Y1004D02*
Y1052D01*
X2584Y1004D02*
Y1052D01*
X2596D01*
X2608Y1040D01*
Y1004D01*
Y1040D01*
X2620Y1052D01*
X2632Y1040D01*
Y1004D01*
X2656Y1076D02*
Y1004D01*
X2692D01*
X2704Y1016D01*
Y1028D01*
Y1040D01*
X2692Y1052D01*
X2656D01*
X2740Y1004D02*
X2764D01*
X2776Y1016D01*
Y1040D01*
X2764Y1052D01*
X2740D01*
X2728Y1040D01*
Y1016D01*
X2740Y1004D01*
X2800D02*
X2824D01*
X2812D01*
Y1076D01*
X2800D01*
X2944D02*
Y1004D01*
Y1040D01*
X2992D01*
Y1076D01*
Y1004D01*
X3016D02*
X3040D01*
X3028D01*
Y1052D01*
X3016D01*
X3088Y1064D02*
Y1052D01*
X3076D01*
X3100D01*
X3088D01*
Y1016D01*
X3100Y1004D01*
X3256Y1064D02*
X3244Y1076D01*
X3220D01*
X3208Y1064D01*
Y1016D01*
X3220Y1004D01*
X3244D01*
X3256Y1016D01*
X3292Y1004D02*
X3316D01*
X3328Y1016D01*
Y1040D01*
X3316Y1052D01*
X3292D01*
X3280Y1040D01*
Y1016D01*
X3292Y1004D01*
X3352Y1052D02*
Y1016D01*
X3364Y1004D01*
X3400D01*
Y1052D01*
X3424Y1004D02*
Y1052D01*
X3460D01*
X3472Y1040D01*
Y1004D01*
X3508Y1064D02*
Y1052D01*
X3496D01*
X3520D01*
X3508D01*
Y1016D01*
X3520Y1004D01*
X3688Y1076D02*
X3640D01*
Y1040D01*
X3664D01*
X3640D01*
Y1004D01*
X3712D02*
X3736D01*
X3724D01*
Y1052D01*
X3712D01*
X3772Y1004D02*
Y1052D01*
X3808D01*
X3820Y1040D01*
Y1004D01*
X3844D02*
X3868D01*
X3856D01*
Y1052D01*
X3844D01*
X3904Y1004D02*
X3940D01*
X3952Y1016D01*
X3940Y1028D01*
X3916D01*
X3904Y1040D01*
X3916Y1052D01*
X3952D01*
X3976Y1076D02*
Y1004D01*
Y1040D01*
X3988Y1052D01*
X4012D01*
X4024Y1040D01*
Y1004D01*
X4084D02*
X4060D01*
X4048Y1016D01*
Y1040D01*
X4060Y1052D01*
X4084D01*
X4096Y1040D01*
Y1028D01*
X4048D01*
X4168Y1076D02*
Y1004D01*
X4132D01*
X4120Y1016D01*
Y1040D01*
X4132Y1052D01*
X4168D01*
X4263Y1076D02*
Y1004D01*
Y1040D01*
X4311D01*
Y1076D01*
Y1004D01*
X4347D02*
X4371D01*
X4383Y1016D01*
Y1040D01*
X4371Y1052D01*
X4347D01*
X4335Y1040D01*
Y1016D01*
X4347Y1004D01*
X4407D02*
X4431D01*
X4419D01*
Y1076D01*
X4407D01*
X4503Y1004D02*
X4479D01*
X4467Y1016D01*
Y1040D01*
X4479Y1052D01*
X4503D01*
X4515Y1040D01*
Y1028D01*
X4467D01*
X4659Y1064D02*
X4647Y1076D01*
X4623D01*
X4611Y1064D01*
Y1052D01*
X4623Y1040D01*
X4647D01*
X4659Y1028D01*
Y1016D01*
X4647Y1004D01*
X4623D01*
X4611Y1016D01*
X4683Y1004D02*
X4707D01*
X4695D01*
Y1052D01*
X4683D01*
X4743D02*
X4791D01*
X4743Y1004D01*
X4791D01*
X4851D02*
X4827D01*
X4815Y1016D01*
Y1040D01*
X4827Y1052D01*
X4851D01*
X4863Y1040D01*
Y1028D01*
X4815D01*
X4983Y1004D02*
Y1076D01*
X5019D01*
X5031Y1064D01*
Y1040D01*
X5019Y1028D01*
X4983D01*
X5055Y1004D02*
X5079D01*
X5067D01*
Y1076D01*
X5055D01*
X5127Y1052D02*
X5151D01*
X5163Y1040D01*
Y1004D01*
X5127D01*
X5115Y1016D01*
X5127Y1028D01*
X5163D01*
X5199Y1064D02*
Y1052D01*
X5187D01*
X5211D01*
X5199D01*
Y1016D01*
X5211Y1004D01*
X5283D02*
X5259D01*
X5247Y1016D01*
Y1040D01*
X5259Y1052D01*
X5283D01*
X5295Y1040D01*
Y1028D01*
X5247D01*
X5367Y1076D02*
Y1004D01*
X5331D01*
X5319Y1016D01*
Y1040D01*
X5331Y1052D01*
X5367D01*
X5487Y1076D02*
Y1004D01*
Y1040D01*
X5535D01*
Y1076D01*
Y1004D01*
X5571D02*
X5595D01*
X5607Y1016D01*
Y1040D01*
X5595Y1052D01*
X5571D01*
X5559Y1040D01*
Y1016D01*
X5571Y1004D01*
X5631D02*
X5655D01*
X5643D01*
Y1076D01*
X5631D01*
X5727Y1004D02*
X5703D01*
X5691Y1016D01*
Y1040D01*
X5703Y1052D01*
X5727D01*
X5739Y1040D01*
Y1028D01*
X5691D01*
X5835Y1076D02*
X5883D01*
X5859D01*
Y1004D01*
X5907Y1052D02*
Y1016D01*
X5919Y1004D01*
X5955D01*
Y992D01*
X5943Y980D01*
X5931D01*
X5955Y1004D02*
Y1052D01*
X5979Y980D02*
Y1052D01*
X6015D01*
X6027Y1040D01*
Y1016D01*
X6015Y1004D01*
X5979D01*
X6087D02*
X6063D01*
X6051Y1016D01*
Y1040D01*
X6063Y1052D01*
X6087D01*
X6099Y1040D01*
Y1028D01*
X6051D01*
X2352Y1112D02*
X6219D01*
X2352Y950D02*
X6219D01*
X2352Y1112D02*
Y230D01*
X6219Y1112D02*
Y230D01*
X2900Y1112D02*
Y230D01*
X3596Y1112D02*
Y230D01*
X4939Y1112D02*
Y230D01*
X5443Y1112D02*
Y230D01*
X2352Y350D02*
X6219D01*
X2352Y230D02*
X6219D01*
M02*
