G04*
G04 #@! TF.GenerationSoftware,Altium Limited,Altium Designer,19.0.10 (269)*
G04*
G04 Layer_Physical_Order=2*
G04 Layer_Color=36540*
%FSLAX23Y23*%
%MOIN*%
G70*
G01*
G75*
%ADD16C,0.008*%
%ADD63C,0.010*%
%ADD69C,0.062*%
%ADD70R,0.062X0.062*%
%ADD73C,0.022*%
%ADD74C,0.050*%
D16*
X2478Y1399D02*
X2472Y1405D01*
X2461D01*
X2455Y1399D01*
Y1393D01*
X2461Y1387D01*
X2472D01*
X2478Y1382D01*
Y1376D01*
X2472Y1370D01*
X2461D01*
X2455Y1376D01*
X2490Y1370D02*
X2502D01*
X2496D01*
Y1393D01*
X2490D01*
X2531Y1358D02*
X2537D01*
X2542Y1364D01*
Y1393D01*
X2525D01*
X2519Y1387D01*
Y1376D01*
X2525Y1370D01*
X2542D01*
X2554D02*
Y1393D01*
X2572D01*
X2577Y1387D01*
Y1370D01*
X2595Y1393D02*
X2607D01*
X2612Y1387D01*
Y1370D01*
X2595D01*
X2589Y1376D01*
X2595Y1382D01*
X2612D01*
X2624Y1370D02*
X2636D01*
X2630D01*
Y1405D01*
X2624D01*
X2688D02*
Y1370D01*
X2712D01*
X2729Y1393D02*
X2741D01*
X2747Y1387D01*
Y1370D01*
X2729D01*
X2723Y1376D01*
X2729Y1382D01*
X2747D01*
X2758Y1393D02*
Y1376D01*
X2764Y1370D01*
X2782D01*
Y1364D01*
X2776Y1358D01*
X2770D01*
X2782Y1370D02*
Y1393D01*
X2811Y1370D02*
X2799D01*
X2793Y1376D01*
Y1387D01*
X2799Y1393D01*
X2811D01*
X2817Y1387D01*
Y1382D01*
X2793D01*
X2828Y1393D02*
Y1370D01*
Y1382D01*
X2834Y1387D01*
X2840Y1393D01*
X2846D01*
X2898Y1370D02*
X2910D01*
X2904D01*
Y1405D01*
X2898Y1399D01*
X2448Y2310D02*
X2425D01*
X2448Y2333D01*
Y2339D01*
X2442Y2345D01*
X2431D01*
X2425Y2339D01*
X2518Y2345D02*
X2507D01*
X2512D01*
Y2316D01*
X2507Y2310D01*
X2501D01*
X2495Y2316D01*
X2530Y2333D02*
Y2316D01*
X2536Y2310D01*
X2553D01*
Y2333D01*
X2565Y2310D02*
X2577D01*
X2571D01*
Y2345D01*
X2565D01*
X2594Y2333D02*
Y2316D01*
X2600Y2310D01*
X2617D01*
Y2304D01*
X2612Y2298D01*
X2606D01*
X2617Y2310D02*
Y2333D01*
X2687Y2310D02*
X2664D01*
X2687Y2333D01*
Y2339D01*
X2682Y2345D01*
X2670D01*
X2664Y2339D01*
X2699D02*
X2705Y2345D01*
X2717D01*
X2722Y2339D01*
Y2316D01*
X2717Y2310D01*
X2705D01*
X2699Y2316D01*
Y2339D01*
X2734Y2310D02*
X2746D01*
X2740D01*
Y2345D01*
X2734Y2339D01*
X2763Y2316D02*
X2769Y2310D01*
X2781D01*
X2787Y2316D01*
Y2339D01*
X2781Y2345D01*
X2769D01*
X2763Y2339D01*
Y2333D01*
X2769Y2327D01*
X2787D01*
X2425Y2420D02*
Y2455D01*
X2442D01*
X2448Y2449D01*
Y2437D01*
X2442Y2432D01*
X2425D01*
X2483Y2449D02*
X2477Y2455D01*
X2466D01*
X2460Y2449D01*
Y2426D01*
X2466Y2420D01*
X2477D01*
X2483Y2426D01*
X2495Y2455D02*
Y2420D01*
X2512D01*
X2518Y2426D01*
Y2432D01*
X2512Y2437D01*
X2495D01*
X2512D01*
X2518Y2443D01*
Y2449D01*
X2512Y2455D01*
X2495D01*
X2571Y2420D02*
Y2455D01*
X2582D02*
Y2420D01*
X2565Y2443D02*
X2582D01*
X2588D01*
X2565Y2432D02*
X2588D01*
X2600Y2449D02*
X2606Y2455D01*
X2617D01*
X2623Y2449D01*
Y2426D01*
X2617Y2420D01*
X2606D01*
X2600Y2426D01*
Y2449D01*
X2635D02*
X2641Y2455D01*
X2652D01*
X2658Y2449D01*
Y2426D01*
X2652Y2420D01*
X2641D01*
X2635Y2426D01*
Y2449D01*
X2693Y2420D02*
X2670D01*
X2693Y2443D01*
Y2449D01*
X2687Y2455D01*
X2676D01*
X2670Y2449D01*
X2705Y2437D02*
X2728D01*
X2740Y2449D02*
X2746Y2455D01*
X2757D01*
X2763Y2449D01*
Y2426D01*
X2757Y2420D01*
X2746D01*
X2740Y2426D01*
Y2449D01*
X2775D02*
X2781Y2455D01*
X2792D01*
X2798Y2449D01*
Y2426D01*
X2792Y2420D01*
X2781D01*
X2775Y2426D01*
Y2449D01*
X2810D02*
X2816Y2455D01*
X2827D01*
X2833Y2449D01*
Y2443D01*
X2827Y2437D01*
X2833Y2432D01*
Y2426D01*
X2827Y2420D01*
X2816D01*
X2810Y2426D01*
Y2432D01*
X2816Y2437D01*
X2810Y2443D01*
Y2449D01*
X2816Y2437D02*
X2827D01*
X2845Y2420D02*
X2857D01*
X2851D01*
Y2455D01*
X2845Y2449D01*
X2909Y2420D02*
Y2455D01*
X2927D01*
X2932Y2449D01*
Y2437D01*
X2927Y2432D01*
X2909D01*
X2921D02*
X2932Y2420D01*
X2961D02*
X2950D01*
X2944Y2426D01*
Y2437D01*
X2950Y2443D01*
X2961D01*
X2967Y2437D01*
Y2432D01*
X2944D01*
X2979Y2443D02*
X2991Y2420D01*
X3002Y2443D01*
X3049Y2437D02*
X3072D01*
D63*
X616Y248D02*
Y696D01*
X600Y232D02*
X616Y248D01*
Y696D02*
X657Y737D01*
X572Y232D02*
Y695D01*
X500Y160D02*
X572Y232D01*
X657Y737D02*
X739D01*
X475Y955D02*
X760Y1240D01*
X250Y955D02*
X475D01*
X760Y1240D02*
Y1765D01*
X1020Y1105D02*
X1050D01*
X961Y1046D02*
X1020Y1105D01*
X910Y1046D02*
X961D01*
X760Y1765D02*
Y2035D01*
Y1765D02*
X820Y1825D01*
X876D01*
X795Y1667D02*
X960Y1832D01*
X795Y1080D02*
Y1667D01*
X960Y1832D02*
Y2135D01*
X930Y1455D02*
Y1765D01*
Y1455D02*
X1195Y1190D01*
X865Y2140D02*
X876D01*
X760Y2035D02*
X865Y2140D01*
X870Y940D02*
X956Y1026D01*
X565Y940D02*
X870D01*
X859Y995D02*
X910Y1046D01*
X565Y995D02*
X859D01*
X1227Y1026D02*
X1268Y985D01*
X956Y1026D02*
X1227D01*
X1185Y1105D02*
X1370Y1290D01*
X1050Y1105D02*
X1185D01*
X90Y1430D02*
X145Y1375D01*
Y1215D02*
Y1375D01*
Y1215D02*
X275Y1085D01*
X235Y1495D02*
Y1895D01*
X275Y1320D02*
Y1455D01*
X235Y1495D02*
X275Y1455D01*
Y1320D02*
X407Y1188D01*
X625D01*
X245Y950D02*
X250Y955D01*
X245Y940D02*
Y950D01*
X280Y485D02*
X340Y425D01*
X280Y485D02*
Y660D01*
X600Y160D02*
Y232D01*
X1268Y985D02*
X1392D01*
X1415Y1700D02*
X1520D01*
X1370Y1655D02*
X1415Y1700D01*
X1370Y1290D02*
Y1655D01*
X1392Y985D02*
X1610Y1203D01*
Y1490D01*
X1560Y1540D02*
X1610Y1490D01*
X1500Y1540D02*
X1560D01*
D69*
X600Y160D02*
D03*
D70*
X500D02*
D03*
D73*
X572Y695D02*
D03*
X876Y1825D02*
D03*
X930Y1765D02*
D03*
X876Y2140D02*
D03*
X795Y1080D02*
D03*
X935Y1005D02*
D03*
X1050Y1105D02*
D03*
X275Y1085D02*
D03*
X235Y1895D02*
D03*
X625Y1188D02*
D03*
X739Y737D02*
D03*
X565Y995D02*
D03*
X565Y940D02*
D03*
X280Y660D02*
D03*
X1195Y1190D02*
D03*
X960Y2135D02*
D03*
X245Y940D02*
D03*
X340Y425D02*
D03*
X1520Y1700D02*
D03*
X1500Y1540D02*
D03*
D74*
X90Y1430D02*
D03*
M02*
