G04*
G04 #@! TF.GenerationSoftware,Altium Limited,Altium Designer,19.0.10 (269)*
G04*
G04 Layer_Color=8388736*
%FSLAX23Y23*%
%MOIN*%
G70*
G01*
G75*
%ADD16C,0.008*%
%ADD38R,0.039X0.039*%
%ADD39R,0.063X0.049*%
%ADD40R,0.039X0.043*%
%ADD41R,0.099X0.099*%
%ADD42R,0.051X0.047*%
%ADD43R,0.158X0.118*%
%ADD44R,0.126X0.071*%
%ADD45R,0.252X0.236*%
%ADD46R,0.051X0.051*%
%ADD47R,0.034X0.030*%
%ADD48R,0.036X0.032*%
%ADD49R,0.051X0.051*%
%ADD50R,0.036X0.036*%
%ADD51R,0.036X0.036*%
%ADD52R,0.032X0.017*%
%ADD53R,0.017X0.032*%
%ADD54R,0.030X0.065*%
%ADD55R,0.030X0.065*%
%ADD56C,0.128*%
%ADD57C,0.070*%
%ADD58R,0.070X0.070*%
%ADD59R,0.043X0.043*%
%ADD60C,0.043*%
%ADD61C,0.030*%
%ADD62C,0.058*%
G36*
X627Y477D02*
X618Y468D01*
X603Y468D01*
Y484D01*
X627D01*
X627Y477D01*
D02*
G37*
G36*
X639Y448D02*
X622D01*
X622Y463D01*
X632Y472D01*
X639Y472D01*
Y448D01*
D02*
G37*
G36*
Y558D02*
X632Y558D01*
X622Y567D01*
X622Y583D01*
X639D01*
Y558D01*
D02*
G37*
G36*
X618Y563D02*
X627Y554D01*
X627Y546D01*
X603D01*
Y563D01*
X618Y563D01*
D02*
G37*
G36*
X737Y468D02*
X722Y468D01*
X713Y477D01*
X713Y484D01*
X737D01*
Y468D01*
D02*
G37*
G36*
X708Y472D02*
X718Y463D01*
X718Y448D01*
X701D01*
Y472D01*
X708Y472D01*
D02*
G37*
G36*
X718Y567D02*
X708Y558D01*
X701Y558D01*
Y583D01*
X718D01*
X718Y567D01*
D02*
G37*
G36*
X737Y546D02*
X713D01*
X713Y554D01*
X722Y563D01*
X737Y563D01*
Y546D01*
D02*
G37*
D16*
X2445Y1930D02*
X2468D01*
X2457D01*
Y1895D01*
X2486D02*
X2497D01*
X2503Y1901D01*
Y1912D01*
X2497Y1918D01*
X2486D01*
X2480Y1912D01*
Y1901D01*
X2486Y1895D01*
X2515Y1883D02*
Y1918D01*
X2532D01*
X2538Y1912D01*
Y1901D01*
X2532Y1895D01*
X2515D01*
X2608Y1924D02*
X2602Y1930D01*
X2591D01*
X2585Y1924D01*
Y1918D01*
X2591Y1912D01*
X2602D01*
X2608Y1907D01*
Y1901D01*
X2602Y1895D01*
X2591D01*
X2585Y1901D01*
X2626Y1895D02*
X2637D01*
X2643Y1901D01*
Y1912D01*
X2637Y1918D01*
X2626D01*
X2620Y1912D01*
Y1901D01*
X2626Y1895D01*
X2655D02*
X2667D01*
X2661D01*
Y1930D01*
X2655D01*
X2707D02*
Y1895D01*
X2690D01*
X2684Y1901D01*
Y1912D01*
X2690Y1918D01*
X2707D01*
X2737Y1895D02*
X2725D01*
X2719Y1901D01*
Y1912D01*
X2725Y1918D01*
X2737D01*
X2742Y1912D01*
Y1907D01*
X2719D01*
X2754Y1918D02*
Y1895D01*
Y1907D01*
X2760Y1912D01*
X2766Y1918D01*
X2772D01*
X2448Y2310D02*
X2425D01*
X2448Y2333D01*
Y2339D01*
X2442Y2345D01*
X2431D01*
X2425Y2339D01*
X2518Y2345D02*
X2507D01*
X2512D01*
Y2316D01*
X2507Y2310D01*
X2501D01*
X2495Y2316D01*
X2530Y2333D02*
Y2316D01*
X2536Y2310D01*
X2553D01*
Y2333D01*
X2565Y2310D02*
X2577D01*
X2571D01*
Y2345D01*
X2565D01*
X2594Y2333D02*
Y2316D01*
X2600Y2310D01*
X2617D01*
Y2304D01*
X2612Y2298D01*
X2606D01*
X2617Y2310D02*
Y2333D01*
X2687Y2310D02*
X2664D01*
X2687Y2333D01*
Y2339D01*
X2682Y2345D01*
X2670D01*
X2664Y2339D01*
X2699D02*
X2705Y2345D01*
X2717D01*
X2722Y2339D01*
Y2316D01*
X2717Y2310D01*
X2705D01*
X2699Y2316D01*
Y2339D01*
X2734Y2310D02*
X2746D01*
X2740D01*
Y2345D01*
X2734Y2339D01*
X2763Y2316D02*
X2769Y2310D01*
X2781D01*
X2787Y2316D01*
Y2339D01*
X2781Y2345D01*
X2769D01*
X2763Y2339D01*
Y2333D01*
X2769Y2327D01*
X2787D01*
X2425Y2420D02*
Y2455D01*
X2442D01*
X2448Y2449D01*
Y2437D01*
X2442Y2432D01*
X2425D01*
X2483Y2449D02*
X2477Y2455D01*
X2466D01*
X2460Y2449D01*
Y2426D01*
X2466Y2420D01*
X2477D01*
X2483Y2426D01*
X2495Y2455D02*
Y2420D01*
X2512D01*
X2518Y2426D01*
Y2432D01*
X2512Y2437D01*
X2495D01*
X2512D01*
X2518Y2443D01*
Y2449D01*
X2512Y2455D01*
X2495D01*
X2571Y2420D02*
Y2455D01*
X2582D02*
Y2420D01*
X2565Y2443D02*
X2582D01*
X2588D01*
X2565Y2432D02*
X2588D01*
X2600Y2449D02*
X2606Y2455D01*
X2617D01*
X2623Y2449D01*
Y2426D01*
X2617Y2420D01*
X2606D01*
X2600Y2426D01*
Y2449D01*
X2635D02*
X2641Y2455D01*
X2652D01*
X2658Y2449D01*
Y2426D01*
X2652Y2420D01*
X2641D01*
X2635Y2426D01*
Y2449D01*
X2693Y2420D02*
X2670D01*
X2693Y2443D01*
Y2449D01*
X2687Y2455D01*
X2676D01*
X2670Y2449D01*
X2705Y2437D02*
X2728D01*
X2740Y2449D02*
X2746Y2455D01*
X2757D01*
X2763Y2449D01*
Y2426D01*
X2757Y2420D01*
X2746D01*
X2740Y2426D01*
Y2449D01*
X2775D02*
X2781Y2455D01*
X2792D01*
X2798Y2449D01*
Y2426D01*
X2792Y2420D01*
X2781D01*
X2775Y2426D01*
Y2449D01*
X2810D02*
X2816Y2455D01*
X2827D01*
X2833Y2449D01*
Y2443D01*
X2827Y2437D01*
X2833Y2432D01*
Y2426D01*
X2827Y2420D01*
X2816D01*
X2810Y2426D01*
Y2432D01*
X2816Y2437D01*
X2810Y2443D01*
Y2449D01*
X2816Y2437D02*
X2827D01*
X2845Y2420D02*
X2857D01*
X2851D01*
Y2455D01*
X2845Y2449D01*
X2909Y2420D02*
Y2455D01*
X2927D01*
X2932Y2449D01*
Y2437D01*
X2927Y2432D01*
X2909D01*
X2921D02*
X2932Y2420D01*
X2961D02*
X2950D01*
X2944Y2426D01*
Y2437D01*
X2950Y2443D01*
X2961D01*
X2967Y2437D01*
Y2432D01*
X2944D01*
X2979Y2443D02*
X2991Y2420D01*
X3002Y2443D01*
X3049Y2437D02*
X3072D01*
D38*
X390Y907D02*
D03*
Y995D02*
D03*
X635Y951D02*
D03*
Y1040D02*
D03*
D39*
X1600Y1832D02*
D03*
Y1758D02*
D03*
Y2027D02*
D03*
Y1953D02*
D03*
D40*
X634Y835D02*
D03*
X560D02*
D03*
X597Y756D02*
D03*
X484Y835D02*
D03*
X410D02*
D03*
X447Y756D02*
D03*
D41*
X447Y2000D02*
D03*
X624D02*
D03*
D42*
X505Y1900D02*
D03*
X572D02*
D03*
D43*
X750Y2450D02*
D03*
Y2135D02*
D03*
X260Y2450D02*
D03*
Y2135D02*
D03*
D44*
X1358Y2270D02*
D03*
Y2450D02*
D03*
X1355Y1345D02*
D03*
Y1525D02*
D03*
X1072Y2140D02*
D03*
Y1960D02*
D03*
Y1850D02*
D03*
Y1670D02*
D03*
D45*
X1075Y2360D02*
D03*
X1072Y1435D02*
D03*
X1355Y2050D02*
D03*
Y1760D02*
D03*
D46*
X495Y1130D02*
D03*
X565D02*
D03*
D47*
X670Y650D02*
D03*
Y610D02*
D03*
X624Y650D02*
D03*
Y610D02*
D03*
X445Y555D02*
D03*
Y595D02*
D03*
X494Y555D02*
D03*
Y595D02*
D03*
X780Y555D02*
D03*
Y594D02*
D03*
D48*
X876Y738D02*
D03*
Y813D02*
D03*
X774Y775D02*
D03*
X1409Y782D02*
D03*
X1511Y820D02*
D03*
Y745D02*
D03*
X1084Y780D02*
D03*
X1186Y817D02*
D03*
Y743D02*
D03*
D49*
X705Y790D02*
D03*
Y860D02*
D03*
X720Y1040D02*
D03*
Y969D02*
D03*
X1511Y875D02*
D03*
Y945D02*
D03*
X1511Y670D02*
D03*
Y600D02*
D03*
X310Y995D02*
D03*
Y925D02*
D03*
X335Y825D02*
D03*
Y754D02*
D03*
X876Y660D02*
D03*
Y590D02*
D03*
X876Y875D02*
D03*
Y945D02*
D03*
X1185Y665D02*
D03*
Y594D02*
D03*
X1186Y875D02*
D03*
Y945D02*
D03*
X410Y1270D02*
D03*
Y1341D02*
D03*
X410Y1130D02*
D03*
Y1201D02*
D03*
D50*
X544Y594D02*
D03*
Y555D02*
D03*
X575Y380D02*
D03*
Y420D02*
D03*
X630Y380D02*
D03*
Y420D02*
D03*
D51*
X530Y468D02*
D03*
X570D02*
D03*
D52*
X619Y535D02*
D03*
Y515D02*
D03*
Y496D02*
D03*
X721D02*
D03*
Y515D02*
D03*
Y535D02*
D03*
D53*
X650Y464D02*
D03*
X670D02*
D03*
X690D02*
D03*
Y566D02*
D03*
X670D02*
D03*
X650D02*
D03*
D54*
X567Y1340D02*
D03*
Y1255D02*
D03*
X493Y1340D02*
D03*
X530Y1255D02*
D03*
D55*
X493Y1255D02*
D03*
D56*
X60Y2130D02*
D03*
Y1585D02*
D03*
X2080Y1715D02*
D03*
Y2045D02*
D03*
D57*
X700Y160D02*
D03*
X600D02*
D03*
D58*
X500D02*
D03*
D59*
X85Y935D02*
D03*
D60*
Y885D02*
D03*
Y835D02*
D03*
Y785D02*
D03*
D61*
X572Y695D02*
D03*
X760Y675D02*
D03*
X964Y530D02*
D03*
X1300Y625D02*
D03*
X876Y1825D02*
D03*
X930Y1765D02*
D03*
X876Y2140D02*
D03*
X65Y1218D02*
D03*
X795Y1080D02*
D03*
X935Y1005D02*
D03*
X1050Y1105D02*
D03*
X275Y1085D02*
D03*
X340Y1370D02*
D03*
X235Y1895D02*
D03*
X625Y1188D02*
D03*
X65Y1153D02*
D03*
X245Y625D02*
D03*
X544Y739D02*
D03*
X739Y737D02*
D03*
X485Y470D02*
D03*
X675Y380D02*
D03*
X1185Y1000D02*
D03*
X500Y738D02*
D03*
X565Y995D02*
D03*
X565Y940D02*
D03*
X140Y1035D02*
D03*
X280Y660D02*
D03*
X1195Y1190D02*
D03*
X960Y2135D02*
D03*
X1569Y600D02*
D03*
X1015Y885D02*
D03*
X245Y940D02*
D03*
X340Y425D02*
D03*
X1355Y925D02*
D03*
X876Y525D02*
D03*
X1185Y535D02*
D03*
X1569Y945D02*
D03*
X1520Y1700D02*
D03*
X1500Y1540D02*
D03*
X1410Y725D02*
D03*
X1375Y1025D02*
D03*
X774Y715D02*
D03*
D62*
X90Y1430D02*
D03*
X865Y1090D02*
D03*
X860Y1160D02*
D03*
X945Y1090D02*
D03*
Y1160D02*
D03*
X535Y2335D02*
D03*
X455D02*
D03*
X535Y2250D02*
D03*
X455D02*
D03*
M02*
